<?xml version="1.0" standalone="no"?>
<!DOCTYPE svg PUBLIC "-//W3C//DTD SVG 1.1//EN" "http://www.w3.org/Graphics/SVG/1.1/DTD/svg11.dtd" >
<svg>
<metadata>
Created by FontForge 20090914 at Thu Jul  2 21:34:09 2015
 By www-data
Copyright 2003 BibleWorks LLC
</metadata>
<defs>
<font id="Bwhebb" horiz-adv-x="1" >
  <font-face 
    font-family="Bwhebb"
    font-weight="400"
    font-stretch="normal"
    units-per-em="1000"
    panose-1="2 0 4 0 0 0 0 0 0 0"
    ascent="800"
    descent="-200"
    x-height="461"
    bbox="-645 -270.999 648 729"
    underline-thickness="20"
    underline-position="-111"
    unicode-range="U+0020-U+2122"
  />
<missing-glyph horiz-adv-x="368" 
 />
    <glyph glyph-name=".notdef" horiz-adv-x="368" 
 />
    <glyph glyph-name="space" unicode=" " horiz-adv-x="368" 
 />
    <glyph glyph-name="exclam" unicode="!" horiz-adv-x="248" 
d="M192 393c0 -0.666992 -9.66113 -30.998 -28.9941 -90.998c-11.333 -36 -17 -68 -17 -96c0 -12 0.666992 -28.167 2 -48.5s3.16602 -43 5.49902 -68l7 -78.5l7 -78.5c2.33301 -25 4.16602 -47.833 5.49902 -68.5s2 -36.667 2 -48c0 -6 -1.33301 -12.833 -4 -20.5
s-6 -14.667 -10 -21s-8.5 -11.833 -13.5 -16.5s-10.167 -7 -15.5 -7l-15 4c0 16.667 0.166992 39.5 0.5 68.5s0.666016 61.333 0.999023 97s0.833008 72.667 1.5 111s1.16699 75.333 1.5 111s0.666016 68 0.999023 97s0.5 51.833 0.5 68.5c0 5.33301 -4.66699 11 -14 17
s-19.5 11.5 -30.5 16.5s-20.833 8.83301 -29.5 11.5s-12.334 3.66699 -11.001 3c-20 12 -30 29.333 -30 52c0 6.66699 1.16699 14 3.5 22s5.5 15.167 9.5 21.5s8.83301 11.666 14.5 15.999s11.5 6.5 17.5 6.5c10 0 22.167 -2.5 36.5 -7.5s28.5 -11.5 42.5 -19.5
s26.667 -16.833 38 -26.5s18.666 -18.834 21.999 -27.501z" />
    <glyph glyph-name="quotedbl" unicode="&#x22;" 
d="M-56 -126h-54v-129h-36v129h-56v36h146v-36z" />
    <glyph glyph-name="numbersign" unicode="#" horiz-adv-x="434" 
d="M378 360c0 -28 -13.667 -48.6689 -41 -62.002c-4 2.66699 -9.16699 5.5 -15.5 8.5s-13.833 6.83301 -22.5 11.5c-29.333 -11.333 -63.333 -49.666 -102 -114.999s-58 -114 -58 -146c0 -11.333 0.833008 -28.833 2.5 -52.5l5.5 -74.5l5.5 -74.5
c1.66699 -23.667 2.5 -41.167 2.5 -52.5c0 -25.333 -15.333 -48 -46 -68l-7 9v501c0 6 6 29.667 18 71c-25.333 10 -45.5 18.5 -60.5 25.5s-26.333 13.5 -34 19.5s-12.667 12.333 -15 19s-3.5 14.667 -3.5 24c0 6.66699 1.16699 13.667 3.5 21s5.5 14 9.5 20
s8.33301 11 13 15s9.33398 6 14.001 6c1.33301 0 3.66602 -0.833008 6.99902 -2.5s6.66602 -3.66699 9.99902 -6s6.5 -4.66602 9.5 -6.99902s5.16699 -4.16602 6.5 -5.49902c34.667 -5.33301 58.5 -14.333 71.5 -27s19.5 -31.334 19.5 -56.001l-24 -44
c-16 -30 -24 -49.333 -24 -58l7 -103l8 -5l55 75.5l74 108.5c-29.333 31.333 -44 53 -44 65c0 6 1.16699 12.833 3.5 20.5s5.5 15.167 9.5 22.5s8.5 13.833 13.5 19.5s10.167 9.16699 15.5 10.5l28 -21c12.667 -9.33301 25.334 -19.5 38.001 -30.5s23.667 -22.167 33 -33.5
s14 -21 14 -29z" />
    <glyph glyph-name="dollar" unicode="$" horiz-adv-x="468" 
d="M395 391c0 -3.33301 -2.33301 -8.66699 -7 -16l-16 -26c-6 -10 -11.333 -20.667 -16 -32s-7 -22 -7 -32c0 -14 0.666992 -32.833 2 -56.5s3 -50 5 -79l6.5 -90.5l6.5 -90.5c2 -29 3.66699 -55.5 5 -79.5s2 -43 2 -57c0 -21.333 -4 -40.5 -12 -57.5
s-18.667 -25.5 -32 -25.5h-4l-7 10c0 11.333 0.333008 64.333 1 159l3 409c-15.333 10 -37 15 -65 15c-6.66699 0 -16.5 -0.5 -29.5 -1.5s-26.833 -2.33301 -41.5 -4s-28.5 -3 -41.5 -4s-22.833 -1.5 -29.5 -1.5c-65.333 0 -98 28 -98 84c0 26 7.66699 45.667 23 59
c10 -4.66699 27.667 -15.667 53 -33c8 0 19.667 0.333008 35 1s31.5 1.5 48.5 2.5s33.333 1.5 49 1.5h35.5c50 2 84.333 -1.33301 103 -10s28 -23.667 28 -45z" />
    <glyph glyph-name="percent" unicode="%" horiz-adv-x="468" 
d="M226 210c0 -18 -9 -27 -27 -27s-27 9 -27 27s9 27 27 27s27 -9 27 -27zM229 96c0 -18 -9.33301 -27 -28 -27c-17.333 0 -26 9.33301 -26 28c0 17.333 9 26 27 26s27 -9 27 -27zM395 391c0 -3.33301 -2.33301 -8.66699 -7 -16l-16 -26c-6 -10 -11.333 -20.667 -16 -32
s-7 -22 -7 -32c0 -14 0.666992 -32.833 2 -56.5s3 -50 5 -79l6.5 -90.5l6.5 -90.5c2 -29 3.66699 -55.5 5 -79.5s2 -43 2 -57c0 -21.333 -4 -40.5 -12 -57.5s-18.667 -25.5 -32 -25.5h-4l-7 10c0 11.333 0.333008 64.333 1 159l3 409c-15.333 10 -37 15 -65 15
c-6.66699 0 -16.5 -0.5 -29.5 -1.5s-26.833 -2.33301 -41.5 -4s-28.5 -3 -41.5 -4s-22.833 -1.5 -29.5 -1.5c-65.333 0 -98 28 -98 84c0 26 7.66699 45.667 23 59c10 -4.66699 27.667 -15.667 53 -33c8 0 19.667 0.333008 35 1s31.5 1.5 48.5 2.5s33.333 1.5 49 1.5h35.5
c50 2 84.333 -1.33301 103 -10s28 -23.667 28 -45z" />
    <glyph glyph-name="ampersand" unicode="&#x26;" horiz-adv-x="468" 
d="M241 184c0 -20 -9.66699 -30 -29 -30c-18.667 0 -28 9.66699 -28 29c0 18.667 9.33301 28 28 28c19.333 0 29 -9 29 -27zM395 391c0 -3.33301 -2.33301 -8.66699 -7 -16l-16 -26c-6 -10 -11.333 -20.667 -16 -32s-7 -22 -7 -32c0 -14 0.666992 -32.833 2 -56.5
s3 -50 5 -79l6.5 -90.5l6.5 -90.5c2 -29 3.66699 -55.5 5 -79.5s2 -43 2 -57c0 -21.333 -4 -40.5 -12 -57.5s-18.667 -25.5 -32 -25.5h-4l-7 10c0 11.333 0.333008 64.333 1 159l3 409c-15.333 10 -37 15 -65 15c-6.66699 0 -16.5 -0.5 -29.5 -1.5
s-26.833 -2.33301 -41.5 -4s-28.5 -3 -41.5 -4s-22.833 -1.5 -29.5 -1.5c-65.333 0 -98 28 -98 84c0 26 7.66699 45.667 23 59c10 -4.66699 27.667 -15.667 53 -33c8 0 19.667 0.333008 35 1s31.5 1.5 48.5 2.5s33.333 1.5 49 1.5h35.5c50 2 84.333 -1.33301 103 -10
s28 -23.667 28 -45z" />
    <glyph glyph-name="quotesingle" unicode="'" horiz-adv-x="3" 
d="M-181 -126h-54v-129h-36v129h-56v36h146v-36z" />
    <glyph glyph-name="parenleft" unicode="(" 
d="M-407 -255h-24v149h24v-149z" />
    <glyph glyph-name="parenright" unicode=")" 
d="M-234 -255h-26v149h26v-149z" />
    <glyph glyph-name="asterisk" unicode="*" 
d="M-111 -255h-26v149h26v-149z" />
    <glyph glyph-name="plus" unicode="+" 
d="M-172 -247l-23 -13l-50 109l-53 -106l-23 8l74 149z" />
    <glyph glyph-name="comma" unicode="," 
d="M-171 -120c0 -16.667 -8.66699 -25 -26 -25s-26 8.66699 -26 26c0 16.667 8.66699 25 26 25s26 -8.66699 26 -26zM-294 -120c0 -16.667 -8.66699 -25 -26 -25s-26 8.66699 -26 26c0 16.667 8.66699 25 26 25s26 -8.66699 26 -26zM-232 -232
c0 -16.667 -8.66699 -25 -26 -25s-26 8.66699 -26 26c0 16.667 8.66699 25 26 25s26 -8.66699 26 -26z" />
    <glyph glyph-name="hyphen" unicode="-" horiz-adv-x="273" 
d="M218 374h-208v67h208v-67z" />
    <glyph glyph-name="period" unicode="." 
d="M-226 -120c0 -16.667 -8.66699 -25 -26 -25c-18 0 -27 8.66699 -27 26c0 16.667 9 25 27 25c17.333 0 26 -8.66699 26 -26zM-226 -232c0 -16.667 -8.66699 -25 -26 -25c-18 0 -27 8.66699 -27 26c0 16.667 9 25 27 25c17.333 0 26 -8.66699 26 -26z" />
    <glyph glyph-name="slash" unicode="/" 
d="M-214 -120c0 -16.667 -9 -25 -27 -25c-17.333 0 -26 8.66699 -26 26c0 16.667 8.66699 25 26 25c18 0 27 -8.66699 27 -26zM-309 -120c0 -16.667 -8.66699 -25 -26 -25c-18 0 -27 8.66699 -27 26c0 16.667 9 25 27 25c17.333 0 26 -8.66699 26 -26zM-262 -232
c0 -16.667 -8.66699 -25 -26 -25c-18 0 -27 8.66699 -27 26c0 16.667 9 25 27 25c17.333 0 26 -8.66699 26 -26zM-128 -120c0 -16.667 -8.66699 -25 -26 -25c-18 0 -27 8.66699 -27 26c0 16.667 9 25 27 25c17.333 0 26 -8.66699 26 -26zM-128 -232
c0 -16.667 -8.66699 -25 -26 -25c-18 0 -27 8.66699 -27 26c0 16.667 9 25 27 25c17.333 0 26 -8.66699 26 -26z" />
    <glyph glyph-name="zero" unicode="0" horiz-adv-x="352" 
d="M335 229c0 -75.333 -14.0029 -134.167 -42.0029 -176.5s-67 -63.5 -117 -63.5c-25.333 0 -47.833 5.66699 -67.5 17s-36.334 27.5 -50.001 48.5s-24 46.167 -31 75.5s-10.5 62.333 -10.5 99s3.66699 70.334 11 101.001s17.833 56.834 31.5 78.501
s30.334 38.5 50.001 50.5s41.834 18 66.501 18s46.834 -6 66.501 -18s36.334 -28.833 50.001 -50.5s24.167 -47.834 31.5 -78.501s11 -64.334 11 -101.001zM263.997 238.999c0 146.667 -28.667 220 -86 220c-58.667 0 -88 -76.667 -88 -230c0 -147.333 29.333 -221 88 -221
c57.333 0 86 77 86 231z" />
    <glyph glyph-name="one" unicode="1" horiz-adv-x="352" 
d="M281 0h-200.001v15c46 0 69 14.667 69 44v313c0 24.667 -9 37 -27 37c-10.667 0 -25.667 -3.33301 -45 -10v7c84.667 44.667 129.334 67 134.001 67l1 -415c0 -28.667 22.667 -43 68 -43v-15z" />
    <glyph glyph-name="two" unicode="2" horiz-adv-x="352" 
d="M336 98l-34.002 -98h-285v9l94 95c22.667 23.333 37.667 39.333 45 48c54.667 64.667 82 122 82 172c0 28.667 -8 52.334 -24 71.001s-36.667 28 -62 28c-13.333 0 -24.5 -0.833008 -33.5 -2.5s-17.667 -5.16699 -26 -10.5s-17 -13.5 -26 -24.5
s-20.167 -25.833 -33.5 -44.5l-16 8c36.667 82.667 86.334 124 149.001 124c18 0 34.833 -2.66699 50.5 -8s29.334 -13 41.001 -23s20.834 -22 27.501 -36s10 -30 10 -48c0 -50.667 -23.667 -106.334 -71 -167.001c-8.66699 -11.333 -23.834 -28.333 -45.501 -51l-84.5 -87
h165c21.333 0 44.333 17.333 69 52z" />
    <glyph glyph-name="three" unicode="3" horiz-adv-x="352" 
d="M302 148c0 -24 -4.50098 -45.6689 -13.501 -65.002s-21.833 -35.666 -38.5 -48.999s-36.334 -23.666 -59.001 -30.999s-48 -11 -76 -11c-56 0 -84 12.333 -84 37c0 17.333 9.66699 26 29 26c3.33301 0 9.5 -2.16699 18.5 -6.5l29 -14c10.333 -5 20.333 -9.5 30 -13.5
s16.5 -6 20.5 -6c30 0 53 10 69 30s24 47 24 81c0 37.333 -11.167 64.5 -33.5 81.5s-60.5 26.833 -114.5 29.5v9c16 2 31.167 6 45.5 12s27 14 38 24s19.833 21.667 26.5 35s10 28 10 44c0 20.667 -6.5 37.834 -19.5 51.501s-29.833 20.5 -50.5 20.5
c-11.333 0 -21.166 -1 -29.499 -3s-16.666 -5.83301 -24.999 -11.5s-16.833 -13.5 -25.5 -23.5s-18.667 -23 -30 -39l-10 8c10 21.333 20 39 30 53s20.5 25.167 31.5 33.5s23 14.166 36 17.499s28.167 5 45.5 5c30.667 0 55.334 -8.16699 74.001 -24.5s28 -37.833 28 -64.5
c0 -10.667 -0.833008 -20.167 -2.5 -28.5s-4.83398 -16.5 -9.50098 -24.5s-10.834 -16.167 -18.501 -24.5s-17.5 -17.5 -29.5 -27.5c16.667 -9.33301 30.334 -18.333 41.001 -27s19.167 -18 25.5 -28s10.833 -21.167 13.5 -33.5s4 -26.5 4 -42.5z" />
    <glyph glyph-name="four" unicode="4" horiz-adv-x="352" 
d="M330 113h-66v-113h-60v113h-190v45l220 315h30v-315h66v-45zM204 158v228l-164 -228h164z" />
    <glyph glyph-name="five" unicode="5" horiz-adv-x="352" 
d="M306 478l-32.998 -65.998h-146l-30 -64c40.667 -6.66699 74 -15 100 -25s46.667 -22.667 62 -38s26 -33.833 32 -55.5s9 -47.5 9 -77.5c0 -22.667 -4.83301 -43.834 -14.5 -63.501s-22.667 -36.667 -39 -51s-35.333 -25.666 -57 -33.999s-44.834 -12.5 -69.501 -12.5
c-64 0 -96 14.667 -96 44c0 18.667 9.66699 28 29 28c4 0 10.667 -2.5 20 -7.5l29.5 -16.5c10.333 -6 20.666 -11.5 30.999 -16.5s18.5 -7.5 24.5 -7.5c12.667 0 24.5 3.16699 35.5 9.5s20.5 15 28.5 26s14.333 23.667 19 38s7 29.166 7 44.499
c0 88.667 -67.667 139.667 -203 153l75 180c4.66699 0 11.667 -0.333008 21 -1l29 -2c10 -0.666992 19.5 -1.33398 28.5 -2.00098s15.833 -1 20.5 -1c40 0 66.667 7.66699 80 23z" />
    <glyph glyph-name="six" unicode="6" horiz-adv-x="352" 
d="M331 143c0 -22 -3.66406 -42.5029 -10.9971 -61.5029s-17.333 -35.333 -30 -49s-27.834 -24.5 -45.501 -32.5s-36.5 -12 -56.5 -12c-24 0 -46 5 -66 15s-37.167 23.833 -51.5 41.5s-25.5 38.334 -33.5 62.001s-12 49.5 -12 77.5c0 42 7 81 21 117s33.5 67.333 58.5 94
s54.667 47.667 89 63s72.166 23 113.499 23v-12c-26.667 -5.33301 -50 -12.666 -70 -21.999s-38 -21.833 -54 -37.5s-30.333 -35 -43 -58s-24.667 -50.5 -36 -82.5c26.667 22.667 58.334 34 95.001 34c20 0 38.167 -4.16699 54.5 -12.5s30.166 -19.666 41.499 -33.999
s20.166 -31.333 26.499 -51s9.5 -40.5 9.5 -62.5zM266.003 142.997c0 36.667 -8.5 66.667 -25.5 90s-40.5 35 -70.5 35c-16 0 -29.167 -1.5 -39.5 -4.5s-18.666 -8.66699 -24.999 -17s-10.833 -19.833 -13.5 -34.5s-4 -33.667 -4 -57c0 -18.667 2.66699 -36.834 8 -54.501
s12.666 -33.167 21.999 -46.5s20.5 -24.166 33.5 -32.499s27.167 -12.5 42.5 -12.5c48 0 72 44.667 72 134z" />
    <glyph glyph-name="seven" unicode="7" horiz-adv-x="352" 
d="M313 464l-142 -464h-48l130 418h-143c-9.33301 0 -17 -0.333008 -23 -1s-11.5 -3 -16.5 -7s-10.667 -10 -17 -18s-14.5 -19 -24.5 -33l-14 7l40 107h258v-9z" />
    <glyph glyph-name="eight" unicode="8" horiz-adv-x="352" 
d="M310 108c0 -18.667 -3.66895 -35.332 -11.002 -49.999s-17.333 -27.167 -30 -37.5s-27.334 -18.333 -44.001 -24s-34 -8.5 -52 -8.5c-18.667 0 -36.167 2.83301 -52.5 8.5s-30.666 13.834 -42.999 24.501s-22 23 -29 37s-10.5 29.667 -10.5 47c0 44 31.667 86.667 95 128
c-20 16 -36.167 29.5 -48.5 40.5s-21.666 21.5 -27.999 31.5s-10.666 19.833 -12.999 29.5s-3.5 21.167 -3.5 34.5c0 15.333 3.66699 29.666 11 42.999s17 24.833 29 34.5s26 17.167 42 22.5s33 8 51 8c36 0 65.667 -9 89 -27s35 -41.667 35 -71c0 -51.333 -31 -90 -93 -116
c70.667 -52.667 106 -104.334 106 -155.001zM244.998 379.002c0 52.667 -28.001 79 -84.001 79c-19.333 0 -35.166 -7.33301 -47.499 -22s-18.5 -31.667 -18.5 -51c0 -40.667 29.667 -78 89 -112c40.667 32.667 61 68 61 106zM255.997 87.002
c0 10.667 -1.66699 20.834 -5 30.501s-9 19.5 -17 29.5s-18.833 20.833 -32.5 32.5s-30.834 25.167 -51.501 40.5c-39.333 -29.333 -59 -64.666 -59 -105.999c0 -14 2.16699 -27.333 6.5 -40s10.333 -23.834 18 -33.501s16.834 -17.334 27.501 -23.001s22.667 -8.5 36 -8.5
c51.333 0 77 26 77 78z" />
    <glyph glyph-name="nine" unicode="9" horiz-adv-x="352" 
d="M328 290c0 -42 -6.66699 -81.001 -20 -117.001s-32.333 -67.5 -57 -94.5s-54.5 -48.167 -89.5 -63.5s-73.833 -23.333 -116.5 -24v13c26 4.66699 49.333 12 70 22s39 23 55 39s30.167 35.5 42.5 58.5s23.5 49.833 33.5 80.5c-25.333 -24 -56.333 -36 -93 -36
c-40.667 0 -73 15 -97 45s-36 69 -36 117c0 22 3.5 42.333 10.5 61s16.833 34.834 29.5 48.501s27.667 24.5 45 32.5s36.666 12 57.999 12c24.667 0 47.167 -4.83301 67.5 -14.5s37.833 -23.167 52.5 -40.5s25.834 -37.833 33.501 -61.5s11.5 -49.5 11.5 -77.5zM262 317.999
c0 19.333 -2.5 37.832 -7.5 55.499s-12.167 33.167 -21.5 46.5s-20.333 24 -33 32s-27 12 -43 12c-48 0 -72 -44.667 -72 -134c0 -39.333 8.5 -70.166 25.5 -92.499s40.5 -33.5 70.5 -33.5c16 0 29.167 1.33301 39.5 4s18.5 8.16699 24.5 16.5s10.333 20 13 35
s4 34.5 4 58.5z" />
    <glyph glyph-name="colon" unicode=":" 
d="M-45 -131h-156v41h156v-41z" />
    <glyph glyph-name="semicolon" unicode=";" 
d="M-172 -131h-160v41h160v-41z" />
    <glyph glyph-name="less" unicode="&#x3c;" 
d="M-41 -120c0 -16.667 -8.66699 -25 -26 -25c-18 0 -27 8.66699 -27 26c0 16.667 9 25 27 25c17.333 0 26 -8.66699 26 -26zM-154 -120c0 -16.667 -8.66699 -25 -26 -25c-18 0 -27 8.66699 -27 26c0 16.667 9 25 27 25c17.333 0 26 -8.66699 26 -26zM-99 -232
c0 -16.667 -8.66699 -25 -26 -25s-26 8.66699 -26 26c0 16.667 8.66699 25 26 25s26 -8.66699 26 -26z" />
    <glyph glyph-name="equal" unicode="=" 
d="M-49 -245l-23 -13l-57 108l-55 -106l-23 9l77 149z" />
    <glyph glyph-name="greater" unicode="&#x3e;" 
d="M-75 -120c0 -16.667 -8.66699 -25 -26 -25c-18.667 0 -28 8.66699 -28 26c0 16.667 9.33301 25 28 25c17.333 0 26 -8.66699 26 -26zM-75 -232c0 -16.667 -8.66699 -25 -26 -25c-18.667 0 -28 8.66699 -28 26c0 16.667 9.33301 25 28 25c17.333 0 26 -8.66699 26 -26z
" />
    <glyph glyph-name="question" unicode="?" 
d="M-35 -120c0 -16.667 -9 -25 -27 -25c-17.333 0 -26 8.66699 -26 26c0 16.667 8.66699 25 26 25c18 0 27 -8.66699 27 -26zM-122 -120c0 -16.667 -8.66699 -25 -26 -25c-16.667 0 -25 8.66699 -25 26c0 16.667 8.33301 25 25 25c17.333 0 26 -8.66699 26 -26zM-216 -120
c0 -16.667 -8.66699 -25 -26 -25s-26 8.66699 -26 26c0 16.667 8.66699 25 26 25s26 -8.66699 26 -26zM-168 -232c0 -16.667 -9 -25 -27 -25s-27 8.66699 -27 26c0 16.667 9 25 27 25s27 -8.66699 27 -26zM-35 -232c0 -16.667 -9 -25 -27 -25c-17.333 0 -26 8.66699 -26 26
c0 16.667 8.66699 25 26 25c18 0 27 -8.66699 27 -26z" />
    <glyph glyph-name="at" unicode="@" horiz-adv-x="415" 
d="M347 -230c0 -7.33301 -9.33105 -15.999 -27.998 -25.999l-16 21v540l5 31h-204c-6 0 -11 -0.333008 -15 -1s-8 -2.66699 -12 -6s-8.33301 -8.33301 -13 -15s-10.667 -16 -18 -28c6.66699 -10.667 24.334 -17 53.001 -19l62 -4l11 -11l4 -29c0 -8 -1.5 -14.667 -4.5 -20
s-8.33301 -9.5 -16 -12.5s-18.167 -5.16699 -31.5 -6.5s-30.333 -2 -51 -2c-10.667 0 -29 -5.33301 -55 -16c-8 8 -12 28 -12 60c0 21.333 14.333 55.666 43 102.999c-11.333 10.667 -20 19.5 -26 26.5s-10.333 13 -13 18s-4.33398 10 -5.00098 15s-1 11.167 -1 18.5
c0 31.333 8 51 24 59c42.667 -14 76 -21 100 -21c5.33301 0 13.166 0.333008 23.499 1s21.333 1.5 33 2.5s22.667 1.83301 33 2.5s18.166 1 23.499 1c38 0 64.833 -9.5 80.5 -28.5s23.5 -53.5 23.5 -103.5z" />
    <glyph glyph-name="A" unicode="A" horiz-adv-x="249" 
d="M134 532c0 -19.333 -10.667 -29 -32 -29c-20 0 -30 10.667 -30 32c0 20 10.667 30 32 30c20 0 30 -11 30 -33zM181 80c0 -49.333 -9.66602 -77.001 -28.999 -83.001c-9.33301 8 -14 22.667 -14 44c0 11.333 0.833008 28.833 2.5 52.5l5 74.5l5 74.5
c1.66699 23.667 2.5 41.167 2.5 52.5c0 18 -12.333 28 -37 30c-23.333 2 -42 4.16699 -56 6.5s-24.5 6.33301 -31.5 12s-11.5 13 -13.5 22s-3 20.833 -3 35.5c0 36 7.66699 58.667 23 68c12 -18 25.333 -28.333 40 -31l66 -4c7.33301 -2 13.666 -5.66699 18.999 -11
s9.5 -13.666 12.5 -24.999s5.16699 -26.5 6.5 -45.5s2 -42.833 2 -71.5v-201z" />
    <glyph glyph-name="B" unicode="B" horiz-adv-x="447" 
d="M385 33c0 -13.333 -4.17383 -22.666 -12.5068 -27.999s-23.166 -8 -44.499 -8h-137c-67.333 0 -125.333 1 -174 3c2.66699 22.667 11.334 55 26.001 97c4 7.33301 38.667 11 104 11c8.66699 0 17.667 -0.166992 27 -0.5s19.333 -0.5 30 -0.5l73 -2
c16.667 -0.666992 31 1.66602 43 6.99902c2.66699 13.333 4 34.333 4 63v16c0 31.333 -1.66699 56.333 -5 75s-10.333 33 -21 43s-25.5 16.5 -44.5 19.5s-44.167 4.5 -75.5 4.5c-7.33301 0 -18.166 -0.333008 -32.499 -1s-25.166 -1 -32.499 -1c-28 0 -48.167 5 -60.5 15
s-18.5 29 -18.5 57c0 30.667 7.66699 50 23 58c0.666992 0 3.33398 -1.16699 8.00098 -3.5l15.5 -7.5c5.66699 -2.66699 11.334 -5.16699 17.001 -7.5s9.83398 -3.5 12.501 -3.5h-1c0 0.666992 37.333 1 112 1c24 0 43.833 -2 59.5 -6s28.167 -12 37.5 -24s16 -29 20 -51
s6 -51.333 6 -88l1 -163c2 -0.666992 6 -1 12 -1h8c2.66699 0 5.66699 0.333008 9 1c7.33301 -7.33301 11 -32.333 11 -75zM209.993 216c0 -18.667 -9 -28 -27 -28s-27 9 -27 27c0 19.333 9 29 27 29s27 -9.33301 27 -28z" />
    <glyph glyph-name="C" unicode="C" horiz-adv-x="415" 
d="M356 114c0 -6 -1.16309 -14.1641 -3.49609 -24.4971s-5.33301 -21.166 -9 -32.499s-7.83398 -22.333 -12.501 -33s-9.33398 -19.334 -14.001 -26.001h-316l27 54c5.33301 10 9.33301 19.667 12 29s5 18.333 7 27c8.66699 0 21.5 -0.166992 38.5 -0.5
s34.833 -0.5 53.5 -0.5s36.667 -0.166992 54 -0.5s30.333 -0.5 39 -0.5c6.66699 0 12.834 0.166992 18.501 0.5s11.167 0.833008 16.5 1.5l9 18c0 4.66699 -27 21 -81 49c-53.333 28 -81 51 -83 69c-0.666992 6 -1.33398 12.667 -2.00098 20l-2.5 25l-3.5 35
c-4 8 -26.333 12 -67 12c-8 0 -15 3.83301 -21 11.5s-9 15.5 -9 23.5v74l12 23c13.333 -8 26.666 -13.333 39.999 -16s25.166 -5.83398 35.499 -9.50098s18.833 -9.66699 25.5 -18s10 -22.5 10 -42.5c0 -4 -0.333008 -9.16699 -1 -15.5s-1.5 -13 -2.5 -20
s-1.83301 -13.667 -2.5 -20s-1 -11.5 -1 -15.5c0 -23.333 7.66699 -41.833 23 -55.5s35 -21.167 59 -22.5c12 11.333 28.667 45.666 50 102.999c0 0.666992 -2.16699 2.83398 -6.5 6.50098s-9 8.5 -14 14.5s-9.5 13 -13.5 21s-6 16.667 -6 26c0 35.333 10.333 59.333 31 72
c2.66699 -1.33301 6 -3.5 10 -6.5s8 -6.5 12 -10.5s7.5 -7.66699 10.5 -11s5.5 -5.66602 7.5 -6.99902c1.33301 -1.33301 4.83301 -2.83301 10.5 -4.5s12 -3.83398 19 -6.50098s13.5 -5.66699 19.5 -9s10.333 -6.66602 13 -9.99902c0 -5.33301 0.5 -13.5 1.5 -24.5
s1.5 -19.167 1.5 -24.5c0 -30.667 -8.33301 -46 -25 -46c-10.667 0 -23.667 6.66699 -39 20c-6 -6 -12 -13.5 -18 -22.5s-11.167 -18.833 -15.5 -29.5s-8 -21.334 -11 -32.001s-4.5 -20.334 -4.5 -29.001c12 -12 24.833 -20.5 38.5 -25.5s26.5 -10.167 38.5 -15.5
s21.833 -12.833 29.5 -22.5s11.5 -24.834 11.5 -45.501zM72.0039 188.003c0 -18.667 -9.66699 -28 -29 -28c-18 0 -27 9 -27 27c0 18.667 9.66699 28 29 28c18 0 27 -9 27 -27z" />
    <glyph glyph-name="D" unicode="D" horiz-adv-x="444" 
d="M386 363l-6.99902 -7.99902c-4.66699 -5.33301 -9.66699 -11.833 -15 -19.5s-10.333 -15.667 -15 -24s-7 -15.166 -7 -20.499c0 -11.333 1 -27.833 3 -49.5s4 -44.5 6 -68.5l6 -69c2 -22 3 -38.667 3 -50c0 -22.667 -3.5 -37.334 -10.5 -44.001
s-19.167 -10.667 -36.5 -12c0 12.667 0.5 32.167 1.5 58.5l3 83l3 83c1 26.333 1.5 45.833 1.5 58.5c0 36.667 -7 55 -21 55h-252c-6 0 -11.667 2.5 -17 7.5s-10.333 11.5 -15 19.5s-8.33398 16.667 -11.001 26s-4 18 -4 26c0 32 12.333 53.333 37 64l11 -7
c10.667 -22.667 55 -34 133 -34c6 0 15.167 0.333008 27.5 1s25.5 1.16699 39.5 1.5s27.167 0.833008 39.5 1.5s21.5 1 27.5 1c14.667 0 26.5 -0.666992 35.5 -2s16 -4.83301 21 -10.5s8.33301 -13.834 10 -24.501s2.5 -25 2.5 -43zM203.001 202.001
c0 -18.667 -10 -28.001 -30 -28.001c-19.333 0 -29 9.33301 -29 28c0 8 3 15 9 21s13 9 21 9c7.33301 0 14 -3.16699 20 -9.5s9 -13.166 9 -20.499z" />
    <glyph glyph-name="E" unicode="E" 
d="M-43 -120c0 -16.667 -8.66699 -25 -26 -25c-18 0 -27 8.66699 -27 26c0 16.667 9 25 27 25c17.333 0 26 -8.66699 26 -26zM-159 -120c0 -16.667 -8.66699 -25 -26 -25c-18 0 -27 8.66699 -27 26c0 16.667 9 25 27 25c17.333 0 26 -8.66699 26 -26z" />
    <glyph glyph-name="F" unicode="F" horiz-adv-x="462" 
d="M293 206c0 -17.333 -8.66699 -26 -26 -26c-15.333 0 -23 8.66699 -23 26c0 15.333 8.33301 23 25 23c16 0 24 -7.66699 24 -23zM417 377c0 -53.333 -21.9951 -179 -65.9951 -377h-247c-48 94.667 -72 177.334 -72 248.001c0 4 0.333008 9.33301 1 16s1.5 13.667 2.5 21
l3 21c1 6.66699 1.5 12 1.5 16c0 4.66699 -1.5 12.5 -4.5 23.5l-10 36c-3.66699 13 -7 25.5 -10 37.5s-4.5 21.333 -4.5 28c0 12.667 5.33301 20.334 16 23.001c7.33301 -5.33301 17.166 -11.166 29.499 -17.499l43.5 -21.5c13.333 -19.333 20 -41.333 20 -66l-4 -21
l-52 -21c-8.66699 -24 -13 -51.667 -13 -83c0 -25.333 13 -63.333 39 -114l27 -18c31.333 46 58 122 80 228c-0.666992 1.33301 -3 4.83301 -7 10.5s-8.16699 12 -12.5 19s-8.33301 14.167 -12 21.5s-5.5 14 -5.5 20v3l2 46l14 16c8.66699 -8.66699 18.834 -16 30.501 -22
s22.667 -12.5 33 -19.5s19.166 -16 26.499 -27s11 -25.833 11 -44.5c0 -14 -17 -22 -51 -24l-32 -116c-14 -45.333 -28 -82.333 -42 -111h178l8.5 26c3.66699 11.333 7.33398 24 11.001 38l11.5 43c4 14.667 7.5 28.5 10.5 41.5l7.5 33.5c2 9.33301 3 15.666 3 18.999
c0 6 -3.33301 11.333 -10 16s-13.834 9.16699 -21.501 13.5s-14.834 8.83301 -21.501 13.5s-10.334 10 -11.001 16l-8 66c0 7.33301 2.5 15.666 7.5 24.999s11.167 14.666 18.5 15.999c8 -9.33301 16.667 -16.833 26 -22.5s18.166 -11.5 26.499 -17.5
s15.166 -13.167 20.499 -21.5s8 -20.5 8 -36.5zM110.005 525c0 -8.66699 -3 -16 -9 -22s-13.333 -9 -22 -9s-16 3 -22 9s-9 13.333 -9 22s3 15.834 9 21.501s13.333 8.5 22 8.5s16 -2.83301 22 -8.5s9 -12.834 9 -21.501z" />
    <glyph glyph-name="G" unicode="G" horiz-adv-x="273" 
d="M203 20c0 -16 -3.33398 -23.999 -10.001 -23.999s-11.834 5.66699 -15.501 17s-7.5 21.833 -11.5 31.5l-11.5 27.5c-3.66699 8.66699 -6.83398 14.667 -9.50098 18c-10 -36.667 -22 -66.334 -36 -89.001c-18 -1.33301 -33.167 -2.5 -45.5 -3.5s-22.166 -1.5 -29.499 -1.5
c-10 0 -19 1.66699 -27 5v38c0 51.333 22 77 66 77c4 0 9.16699 -0.166992 15.5 -0.5s13 -0.833008 20 -1.5s13.833 -1.16699 20.5 -1.5s12 -0.5 16 -0.5l18 17c0 8.66699 0.166992 21.667 0.5 39l1 54.5l1 54.5c0.333008 17.333 0.5 30.333 0.5 39
c0 14.667 -19.667 22 -59 22c-5.33301 0 -11.166 -0.166992 -17.499 -0.5s-13.166 -0.833008 -20.499 -1.5c-20 18 -30 42.333 -30 73c0 36.667 9.33301 55 28 55l22 -23c70.667 0 106.667 -18 108 -54c4 -120.667 6 -243 6 -367zM107.999 222.001
c0 -18 -8.66699 -27 -26 -27c-18.667 0 -28 10 -28 30c0 16 9.33301 24 28 24c17.333 0 26 -9 26 -27z" />
    <glyph glyph-name="H" unicode="H" horiz-adv-x="468" 
d="M401 359c0 -0.666992 -2.33105 -3.66797 -6.99805 -9.00098s-9.66699 -11.5 -15 -18.5s-10.333 -14.333 -15 -22s-7 -14.5 -7 -20.5c0 -11.333 0.833008 -28.166 2.5 -50.499l5 -70.5l5 -71c1.66699 -22.667 2.5 -39.334 2.5 -50.001c0 -20.667 -2.66699 -34.667 -8 -42
s-15.666 -11 -30.999 -11h-5c0 8.66699 0.333008 21.667 1 39s1.16699 35.333 1.5 54s0.833008 36.667 1.5 54s1 30.333 1 39c0 82.667 -6.66699 132.667 -20 150h-209c-24 0 -44.5 7.83301 -61.5 23.5s-25.5 35.5 -25.5 59.5c0 32 12.333 53.333 37 64
c4.66699 -2 9.5 -4.66699 14.5 -8s9.83301 -6.83301 14.5 -10.5l12 -9.5c3.33301 -2.66699 6 -4 8 -4c12 -4 35.333 -6 70 -6c7.33301 0 18.5 0.333008 33.5 1s30.667 1.5 47 2.5s32.166 1.83301 47.499 2.5s26.666 1 33.999 1c23.333 0 40.166 -6.16699 50.499 -18.5
s15.5 -35.166 15.5 -68.499zM240.002 194.999c0 -18 -9.33301 -27 -28 -27c-17.333 0 -26 9.33301 -26 28c0 17.333 9 26 27 26s27 -9 27 -27zM92.002 212.999c0 -4 -1.16699 -10.3359 -3.5 -19.0029s-3.5 -15 -3.5 -19c0 -5.33301 0.333008 -13 1 -23
s1.16699 -20.667 1.5 -32s0.833008 -22.166 1.5 -32.499s1 -18.166 1 -23.499c0 -23.333 -13.667 -46.666 -41 -69.999c-15.333 0 -23 5.33301 -23 16c0 6 0.833008 14.5 2.5 25.5s3.66699 22.667 6 35l6.5 35c2 11 3 19.167 3 24.5c1.33301 37.333 4.5 63.333 9.5 78
s13.5 22 25.5 22c8.66699 0 13 -5.66699 13 -17z" />
    <glyph glyph-name="I" unicode="I" 
d="M-104 -123c0 -16.667 -8.66699 -25 -26 -25c-18 0 -27 8.66699 -27 26c0 16.667 9 25 27 25c17.333 0 26 -8.66699 26 -26z" />
    <glyph glyph-name="J" unicode="J" horiz-adv-x="453" 
d="M306 204c0 -18.667 -9.33301 -28 -28 -28c-17.333 0 -26 9.33301 -26 28s9 28 27 28s27 -9.33301 27 -28zM386 191c0 -47.333 -14.001 -108.337 -42.001 -183.004l-15 -8h-313l-7 167c0 8.66699 2 20.5 6 35.5s8.5 30.5 13.5 46.5l13.5 45c4 14 6.33301 24.333 7 31
c-4 4.66699 -8.16699 8.83398 -12.5 12.501s-8 7.83398 -11 12.501s-5.5 10.334 -7.5 17.001s-3 15.334 -3 26.001c0 42 12 69 36 81c6 -8 17.333 -19.667 34 -35l47 -22c9.33301 -7.33301 14 -26.666 14 -57.999c0 -8.66699 -4.66699 -24 -14 -46l-15 -6
c-11.333 3.33301 -23.666 9 -36.999 17c-26 -17.333 -39 -59 -39 -125c0 -34 3.66699 -57.667 11 -71s19.666 -20 36.999 -20h212c39.333 0 59 22.333 59 67c0 107.333 -26.333 161 -79 161c-35.333 0 -58.333 -14.333 -69 -43l-20 -84l-9 -6
c-5.33301 7.33301 -8 19.666 -8 36.999c0 10 2 24.333 6 43s8.5 38 13.5 58s9.5 39 13.5 57s6.33301 31.333 7 40c0.666992 3.33301 1.33398 7 2.00098 11s1.66699 8.33301 3 13l15 12c100.667 -26 151 -120.333 151 -283z" />
    <glyph glyph-name="K" unicode="K" horiz-adv-x="447" 
d="M374 235c0 -156.667 -53.668 -234.331 -161.001 -232.998l-207 1c0 39.333 7 66.5 21 81.5s37 22.5 69 22.5c4.66699 0 11.834 -0.333008 21.501 -1s19.667 -1.16699 30 -1.5s20.333 -0.833008 30 -1.5s16.834 -1 21.501 -1c56.667 0 97.5 9.66699 122.5 29
s37.5 51 37.5 95c0 36 -9.5 61.833 -28.5 77.5s-50.833 23.5 -95.5 23.5c-4.66699 0 -11.334 -0.166992 -20.001 -0.5s-18 -0.833008 -28 -1.5s-19.5 -1.16699 -28.5 -1.5s-15.833 -0.5 -20.5 -0.5c-75.333 0 -113 31.667 -113 95c0 28 7.66699 46.667 23 56
c0.666992 0 3 -1.83301 7 -5.5s8.83301 -7.5 14.5 -11.5s11.5 -7.66699 17.5 -11s11 -5 15 -5c16.667 -0.666992 37.167 -1.33398 61.5 -2.00098s53.166 -1 86.499 -1c22.667 -2.66699 41.834 -8.83398 57.501 -18.501s28.5 -22.167 38.5 -37.5s17.167 -35 21.5 -59
s6.5 -53.333 6.5 -88zM211.999 218.003c0 -20 -9.66699 -30 -29 -30c-20 0 -30 9.66699 -30 29c0 8 3.16699 14.833 9.5 20.5s13.5 8.5 21.5 8.5c18.667 0 28 -9.33301 28 -28z" />
    <glyph glyph-name="L" unicode="L" horiz-adv-x="444" 
d="M383 260c0 -16 -0.331055 -28.6699 -0.998047 -38.0029s-2.16699 -17 -4.5 -23s-15.333 -20.333 -39 -43l-77.5 -74l-87 -82c-18 0 -27 9.66699 -27 29c0 20.667 18.333 43 55 67c87.333 56 135.5 90.167 144.5 102.5s13.5 24.166 13.5 35.499
c0 12 -2.33301 23.667 -7 35s-10.834 21.5 -18.501 30.5s-16.834 16.167 -27.501 21.5s-22 8 -34 8h-235c-14.667 22.667 -22 55.334 -22 98.001v112c0 6.66699 6.66699 21.334 20 44.001l27 47c-2.66699 16 -13 29.333 -31 40v36l13 7c4.66699 0 10.167 -1.66699 16.5 -5
s12.333 -7.33301 18 -12s10.5 -10 14.5 -16s6 -11.333 6 -16c0 -23.333 -11.667 -44.666 -35 -63.999v-97c0 -37.333 25.667 -58.666 77 -63.999c14 0 77.333 0.333008 190 1c34 -1.33301 51 -61.333 51 -180zM194.002 217.997c0 -18.667 -9.66699 -28 -29 -28
c-18 0 -27 9.66699 -27 29c0 17.333 9.33301 26 28 26s28 -9 28 -27z" />
    <glyph glyph-name="M" unicode="M" horiz-adv-x="465" 
d="M395 169c0 -113.333 -23.3281 -169.999 -69.9951 -169.999c-8.66699 0 -28.334 0.166992 -59.001 0.5s-72.667 0.833008 -126 1.5v44c0 43.333 23 65 69 65c7.33301 0 18 -0.666992 32 -2s24.667 -2 32 -2c19.333 0 35.166 1 47.499 3s21.833 5.66699 28.5 11
s11.167 12.5 13.5 21.5s3.5 20.167 3.5 33.5c0 22 -4.33301 43 -13 63s-20.334 37.333 -35.001 52s-31.834 26.334 -51.501 35.001s-40.5 13 -62.5 13c-66.667 0 -109 -29.333 -127 -88c-8 -27.333 -12 -84.333 -12 -171c0 -45.333 -15.333 -71 -46 -77
c0.666992 94 2.66699 148 6 162l16 40.5l42 101.5l-45 41c-18.667 16.667 -28 33.667 -28 51c0 15.333 4.83301 31 14.5 47s21.5 25.667 35.5 29c15.333 -4.66699 42 -25.334 80 -62.001l6 -56c10.667 0 19.5 0.666992 26.5 2s12.5 5 16.5 11s6.66699 15 8 27s2 28.333 2 49
c0 13.333 9.66699 20 29 20c17.333 0 34.166 -4.33301 50.499 -13s31.333 -19.834 45 -33.501s25.5 -29 35.5 -46s17.333 -33.833 22 -50.5c9.33301 -34 14 -85 14 -153zM224.005 214.001c0 -17.333 -8.33301 -26 -25 -26s-25 8.66699 -25 26s8.33301 26 25 26
s25 -8.66699 25 -26z" />
    <glyph glyph-name="N" unicode="N" horiz-adv-x="249" 
d="M189 113c0 -46 -1.66992 -74.002 -5.00293 -84.002c-5.33301 -15.333 -17.666 -24.666 -36.999 -27.999s-45 -5 -77 -5c-43.333 0 -65 13.667 -65 41c0 14 0.833008 25.333 2.5 34s5.83398 15.5 12.501 20.5s16.334 8.83301 29.001 11.5s29.667 5 51 7
c26 2 42 10.333 48 25l4 -2l1 -7l1 171c0 18.667 -11.333 30.334 -34 35.001c-33.333 7.33301 -52 13 -56 17l-35 30l-1 13c0 9.33301 0.833008 18.833 2.5 28.5s4 18.5 7 26.5s6.33301 14.667 10 20s7.5 8.33301 11.5 9c1.33301 -0.666992 3.33301 -2.5 6 -5.5
s5.83398 -6.33301 9.50098 -10s8.16699 -7.16699 13.5 -10.5s11.666 -5.33301 18.999 -6l6 4c44 -6 66 -34.667 66 -86c0 -4 -0.166992 -9.5 -0.5 -16.5l-1 -21.5l-1 -21.5c-0.333008 -7 -0.5 -12.5 -0.5 -16.5c0 -8 0.666992 -20 2 -36s2.83301 -32.833 4.5 -50.5
s3.16699 -34.5 4.5 -50.5s2 -28 2 -36zM97.9971 213.998c0 -17.333 -9 -26 -27 -26c-17.333 0 -26 8.66699 -26 26c0 18 9 27 27 27c17.333 0 26 -9 26 -27z" />
    <glyph glyph-name="O" unicode="O" 
d="M-173 546c0 -16.667 -8.66699 -25 -26 -25c-18 0 -27 8.66699 -27 26c0 16.667 9 25 27 25c17.333 0 26 -8.66699 26 -26z" />
    <glyph glyph-name="P" unicode="P" horiz-adv-x="429" 
d="M297 191c0 -17.333 -8.66699 -26 -26 -26c-18 0 -27 9 -27 27c0 17.333 8.66699 26 26 26c18 0 27 -9 27 -27zM367 74c0 -12 -12.002 -38.001 -36.002 -78.001h-323l-2 3c4.66699 17.333 11.334 35 20.001 53s19.334 36.667 32.001 56h277c8.66699 18 13 44.667 13 80
c0 21.333 -2.66699 41.166 -8 59.499s-12.666 34 -21.999 47s-20.833 23.167 -34.5 30.5s-28.5 11 -44.5 11h-131c-11.333 0 -21.166 -5 -29.499 -15s-12.5 -21 -12.5 -33c0 -8.66699 0.833008 -15.167 2.5 -19.5s5.5 -7.5 11.5 -9.5s15 -3.5 27 -4.5
s28.333 -2.16699 49 -3.5c21.333 -5.33301 32 -19.333 32 -42c0 -26 -20.333 -39.333 -61 -40c-50.667 -2 -83.334 -9.33301 -98.001 -22c0 6 -0.333008 15.167 -1 27.5s-1 21.5 -1 27.5c0 40.667 7.33301 77 22 109c-21.333 33.333 -32 67 -32 101
c0 27.333 7.33301 48 22 62c14.667 -7.33301 26.667 -18.333 36 -33c6 0 14.667 0.333008 26 1s23.333 1.33398 36 2.00098s24.667 1.33398 36 2.00098s20 1 26 1c22.667 0 44.167 -4.16699 64.5 -12.5s38.166 -20 53.499 -35s27.5 -32.5 36.5 -52.5s13.5 -41.333 13.5 -64
v-209z" />
    <glyph glyph-name="Q" unicode="Q" horiz-adv-x="432" 
d="M366 292c0 -31.333 -0.832031 -56.8359 -2.49902 -76.5029s-6.33398 -36.167 -14.001 -49.5s-19 -24.666 -34 -33.999s-35.833 -19 -62.5 -29c-54 -20 -102 -47 -144 -81l-4 10c0 34.667 21 62.667 63 84l119 46c42 18 63 43.667 63 77c0 26 -5.5 47.667 -16.5 65
s-26.833 26 -47.5 26h-188c-38.667 0 -62.834 5.83301 -72.501 17.5s-14.5 24.167 -14.5 37.5c0 44 11 69.667 33 77c0.666992 -0.666992 2 -1.66699 4 -3c1.33301 -1.33301 2.83301 -2.66602 4.5 -3.99902s4.16699 -2.66602 7.5 -3.99902
c10.667 -6.66699 18.334 -10 23.001 -10c6 0 36.5 0.333008 91.5 1s92 -1.33301 111 -6s34.5 -13 46.5 -25s20.667 -27.833 26 -47.5s8 -43.5 8 -71.5zM196.001 242.997c0 -18.667 -9.66699 -28 -29 -28c-17.333 0 -26 9 -26 27c0 17.333 9.33301 26 28 26
c18 0 27 -8.33301 27 -25zM61.001 -155.003c0 -10.667 -1.00293 -21.832 -3.00293 -33.499s-4.66699 -22.334 -8 -32.001s-7.16602 -17.667 -11.499 -24s-8.83301 -9.5 -13.5 -9.5l-11 4l-2 403c0 40.667 12.667 77.667 38 111l11 -6c-18 -30 -27 -54.667 -27 -74
c0 -10 1.33301 -25.667 4 -47s5.83398 -43.833 9.50098 -67.5s6.83398 -46 9.50098 -67s4 -36.5 4 -46.5v-111z" />
    <glyph glyph-name="R" unicode="R" horiz-adv-x="417" 
d="M349 302c0 -12 -0.166016 -30.334 -0.499023 -55.001s-0.666016 -50.667 -0.999023 -78s-0.666016 -53.166 -0.999023 -77.499s-0.5 -42.5 -0.5 -54.5c0 -23.333 -10 -39.333 -30 -48c-6 2.66699 -9 11 -9 25c0 8.66699 0.666992 22 2 40s2.66602 37 3.99902 57
s2.66602 39 3.99902 57s2 31.667 2 41c0 28 -1.33301 50.5 -4 67.5s-7.5 30.333 -14.5 40s-16.333 16 -28 19s-26.167 4.5 -43.5 4.5c-8.66699 0 -21.167 -0.333008 -37.5 -1s-33.5 -1.5 -51.5 -2.5s-35.333 -1.83301 -52 -2.5s-29 -1 -37 -1c-10 6 -17.833 11.667 -23.5 17
s-10 11.333 -13 18s-5 14.167 -6 22.5s-1.5 18.5 -1.5 30.5c0 16 1.66699 29.667 5 41l13 9c7.33301 -4 16.666 -14 27.999 -30l142 1c35.333 0 63.333 -1.5 84 -4.5s36.167 -9.5 46.5 -19.5s16.833 -24.167 19.5 -42.5s4 -42.833 4 -73.5zM198.001 208.999
c0 -18.667 -9.33398 -28 -28.001 -28c-18 0 -27 9.33301 -27 28c0 7.33301 2.83301 13.5 8.5 18.5s12.167 7.5 19.5 7.5c6.66699 0 12.834 -2.66699 18.501 -8s8.5 -11.333 8.5 -18z" />
    <glyph glyph-name="S" unicode="S" horiz-adv-x="419" 
d="M356 200c0 -30 -3.83203 -57.3311 -11.499 -81.998s-18.834 -46 -33.501 -64s-32.5 -31.833 -53.5 -41.5s-44.833 -14.5 -71.5 -14.5h-37c-47.333 0 -83.833 17.167 -109.5 51.5s-38.5 80.833 -38.5 139.5c0 43.333 15.333 86.666 46 129.999
c-28.667 35.333 -43 63.333 -43 84c0 37.333 12.667 61 38 71c19.333 -23.333 51.333 -35 96 -35c7.33301 0 17.833 0.333008 31.5 1s24.167 1 31.5 1c27.333 0 50.833 -4.16699 70.5 -12.5s35.667 -22 48 -41s21.5 -43.833 27.5 -74.5s9 -68.334 9 -113.001z
M327.001 217.002c0 55.333 -18.666 89.667 -55.999 103c-17.333 6 -60.333 9 -129 9c-14.667 0 -29 -3.16699 -43 -9.5s-26.333 -14.666 -37 -24.999s-19.334 -22.5 -26.001 -36.5s-10 -28.333 -10 -43c0 -20 2.83301 -37.333 8.5 -52s15 -26.834 28 -36.501
s30 -16.667 51 -21s46.833 -6.5 77.5 -6.5c48.667 0 83.5 9.16699 104.5 27.5s31.5 48.5 31.5 90.5zM203.002 216.003c0 -15.333 -7.66699 -23 -23 -23s-23 7.66699 -23 23s7.66699 23 23 23c6 0 11.333 -2.33301 16 -7s7 -10 7 -16z" />
    <glyph glyph-name="T" unicode="T" horiz-adv-x="447" 
d="M390 58c0 -40 -9.66602 -60 -28.999 -60l-5 1v292c0 8.66699 -4 16.834 -12 24.501s-16.333 11.5 -25 11.5h-213c-26 -28 -39 -49 -39 -63c0 -10 2.66699 -24.167 8 -42.5s11.333 -37.5 18 -57.5s12.667 -39.167 18 -57.5s8 -32.5 8 -42.5c0 -43.333 -29.667 -65 -89 -65
l-18 3c-6.66699 11.333 -10 21.666 -10 30.999v4l2 43c28 18.667 42 33.667 42 45c0 4 -0.5 9.5 -1.5 16.5s-2.16699 14.167 -3.5 21.5s-2.5 14.5 -3.5 21.5s-1.5 12.5 -1.5 16.5v49c0 24 8.66699 51.667 26 83c-22 18.667 -33 42.334 -33 71.001
c0 39.333 9.66699 62.666 29 69.999c9.33301 -4.66699 21.666 -15.667 36.999 -33h217c52.667 0 79 -92.667 79 -278v2v-8c0 -3.33301 -0.166992 -8.83301 -0.5 -16.5s-0.5 -18 -0.5 -31v-51.5zM246.001 194c0 -17.333 -8.33301 -26 -25 -26c-18 0 -27 9.33301 -27 28
c0 17.333 9 26 27 26c16.667 0 25 -9.33301 25 -28z" />
    <glyph glyph-name="U" unicode="U" 
d="M-25 -232c0 -16.667 -8.66699 -25 -26 -25c-18 0 -27 8.66699 -27 26c0 16.667 9 25 27 25c17.333 0 26 -8.66699 26 -26zM-89 -176c0 -16.667 -8.66699 -25 -26 -25c-18 0 -27 8.66699 -27 26c0 16.667 9 25 27 25c17.333 0 26 -8.66699 26 -26zM-152 -120
c0 -16.667 -8.66699 -25 -26 -25c-18 0 -27 8.66699 -27 26c0 16.667 9 25 27 25c17.333 0 26 -8.66699 26 -26z" />
    <glyph glyph-name="V" unicode="V" horiz-adv-x="480" 
d="M302 206c0 -17.333 -8.66699 -26 -26 -26c-15.333 0 -23 8.66699 -23 26c0 15.333 8.33301 23 25 23c16 0 24 -7.66699 24 -23zM422 376c-0.666992 -1.33301 -3.49707 -17.5 -8.49707 -48.5l-23.5 -139.5l-33 -188h-247c-48 92.667 -72 175.334 -72 248.001
c0 4 0.333008 9.66699 1 17s1.5 14.666 2.5 21.999l3 22c1 7.33301 1.5 13 1.5 17s-1.5 11.5 -4.5 22.5l-10 35.5c-3.66699 12.667 -7 24.834 -10 36.501s-4.5 20.5 -4.5 26.5c0 12.667 5.33301 20.334 16 23.001c2.66699 -1.33301 4.83398 -3.16602 6.50098 -5.49902
s4 -5 7 -8s7.16699 -6.16699 12.5 -9.5s13 -6.33301 23 -9c18 -3.33301 29.833 -10.5 35.5 -21.5s8.5 -27.833 8.5 -50.5l-4 -22l-52 -21c-8.66699 -21.333 -13 -47.666 -13 -78.999c0 -64.667 22 -110 66 -136c8 13.333 16.667 30.5 26 51.5s18 42.667 26 65
s14.667 43.5 20 63.5s8 36 8 48c0 2 -2 6.16699 -6 12.5l-13 21c-4.66699 7.66699 -8.83398 15.334 -12.501 23.001s-5.5 13.5 -5.5 17.5l2 46l14 16c10.667 -10.667 21.834 -18.834 33.501 -24.501s22.5 -11.834 32.5 -18.501s18.167 -15.167 24.5 -25.5
s9.5 -25.5 9.5 -45.5c0 -10.667 -6.33301 -17.334 -19 -20.001l-31 -3l-32 -115c-12.667 -44 -26.667 -81.333 -42 -112h178c3.33301 8 8 22.167 14 42.5s11.833 41.666 17.5 63.999s10.5 42.666 14.5 60.999s6 29.5 6 33.5c0 6 -3.33301 11.333 -10 16
s-13.834 9.16699 -21.501 13.5s-14.834 8.83301 -21.501 13.5s-10.334 10 -11.001 16l-8 66v5c0 16.667 8.66699 28.667 26 36c5.33301 -6 15.666 -14.667 30.999 -26c20 -9.33301 33.167 -18.5 39.5 -27.5s9.5 -24.167 9.5 -45.5zM426.003 525c0 -8.66699 -3 -16 -9 -22
s-13.333 -9 -22 -9s-16 3 -22 9s-9 13.333 -9 22s3 15.834 9 21.501s13.333 8.5 22 8.5s16 -2.83301 22 -8.5s9 -12.834 9 -21.501z" />
    <glyph glyph-name="W" unicode="W" horiz-adv-x="249" 
d="M190 228c0 -8.66699 -0.169922 -21.6709 -0.50293 -39.0039s-0.666016 -35.666 -0.999023 -54.999s-0.666016 -37.666 -0.999023 -54.999s-0.5 -30.333 -0.5 -39c0 -14.667 -2.16699 -24.5 -6.5 -29.5s-13.833 -8.83301 -28.5 -11.5c-4 4 -6 11 -6 21
c0 12.667 0.5 31.334 1.5 56.001s2.16699 50.667 3.5 78s2.5 53.333 3.5 78s1.5 43.334 1.5 56.001c0 22 -12.667 35 -38 39l-71 12c-26 10.667 -39 35.667 -39 75c0 2.66699 0.666992 7 2 13l4.5 19.5c1.66699 7 3.33398 13.333 5.00098 19s3.16699 9.5 4.5 11.5
c24.667 -24 43 -36 55 -36c6 0 15 0.5 27 1.5s21 1.5 27 1.5c38 0 57 -72 57 -216zM97.9971 183.996c0 -19.333 -9.33301 -29 -28 -29c-18 0 -27 9.33301 -27 28c0 18 9.33301 27 28 27c18 0 27 -8.66699 27 -26z" />
    <glyph glyph-name="X" unicode="X" horiz-adv-x="462" 
d="M417 377c0 -53.333 -21.9951 -179 -65.9951 -377h-247c-48 94.667 -72 177.334 -72 248.001c0 4 0.333008 9.33301 1 16s1.5 13.667 2.5 21l3 21c1 6.66699 1.5 12 1.5 16c0 4.66699 -1.5 12.5 -4.5 23.5l-10 36c-3.66699 13 -7 25.5 -10 37.5s-4.5 21.333 -4.5 28
c0 12.667 5.33301 20.334 16 23.001c7.33301 -5.33301 17.166 -11.166 29.499 -17.499l43.5 -21.5c13.333 -19.333 20 -41.333 20 -66l-4 -21l-52 -21c-8.66699 -24 -13 -51.667 -13 -83c0 -25.333 13 -63.333 39 -114l27 -18c31.333 46 58 122 80 228
c-0.666992 1.33301 -3 4.83301 -7 10.5s-8.16699 12 -12.5 19s-8.33301 14.167 -12 21.5s-5.5 14 -5.5 20v3l2 46l14 16c8.66699 -8.66699 18.834 -16 30.501 -22s22.667 -12.5 33 -19.5s19.166 -16 26.499 -27s11 -25.833 11 -44.5c0 -14 -17 -22 -51 -24l-32 -116
c-14 -45.333 -28 -82.333 -42 -111h178l8.5 26c3.66699 11.333 7.33398 24 11.001 38l11.5 43c4 14.667 7.5 28.5 10.5 41.5l7.5 33.5c2 9.33301 3 15.666 3 18.999c0 6 -3.33301 11.333 -10 16s-13.834 9.16699 -21.501 13.5s-14.834 8.83301 -21.501 13.5
s-10.334 10 -11.001 16l-8 66c0 7.33301 2.5 15.666 7.5 24.999s11.167 14.666 18.5 15.999c8 -9.33301 16.667 -16.833 26 -22.5s18.166 -11.5 26.499 -17.5s15.166 -13.167 20.499 -21.5s8 -20.5 8 -36.5z" />
    <glyph glyph-name="Y" unicode="Y" horiz-adv-x="243" 
d="M172 352l-0.000976562 -40.001c0 -24 -1.16699 -43 -3.5 -57s-5.16602 -24.5 -8.49902 -31.5s-6.83301 -11.333 -10.5 -13s-6.5 -2.5 -8.5 -2.5c-6.66699 4 -10 8.66699 -10 14c0 6.66699 2 16.5 6 29.5s6 22.833 6 29.5c0 18 -17.333 33.333 -52 46l-64 15
c-17.333 7.33301 -26 27 -26 59c0 36.667 12.333 57.334 37 62.001l19 -13c8 -4.66699 15.667 -7.66699 23 -9c19.333 -1.33301 35 -3.33301 47 -6s21.333 -7.16699 28 -13.5s11.167 -15 13.5 -26s3.5 -25.5 3.5 -43.5zM82.999 251.999c0 -9.33301 -3.5 -17.333 -10.5 -24
s-15.167 -10 -24.5 -10c-20.667 0 -31 10.333 -31 31c0 22 11.333 33 34 33c21.333 0 32 -10 32 -30z" />
    <glyph glyph-name="Z" unicode="Z" horiz-adv-x="248" 
d="M199 355c0 -24.667 -8.33203 -37.002 -24.999 -37.002c-4.66699 0 -11.834 1.16699 -21.501 3.5s-16.834 3.5 -21.501 3.5c-18.667 0 -28 -16.333 -28 -49c0 -6 1.33301 -15 4 -27l8.5 -37.5l8.5 -37.5c2.66699 -12 4 -21 4 -27c0 -83.333 -6.33301 -131 -19 -143
c-4 2.66699 -8 11.5 -12 26.5s-7.66699 33 -11 54s-6.16602 43.333 -8.49902 67s-3.5 45.834 -3.5 66.501c0 4 0.333008 10.167 1 18.5s1.5 17.333 2.5 27s2 18.667 3 27s1.5 14.5 1.5 18.5c0 12.667 -3.5 21.167 -10.5 25.5l-22.5 13.5
c-8 4.66699 -15.5 11.834 -22.5 21.501s-10.5 26.5 -10.5 50.5c0 32 10.333 48 31 48c5.33301 0 16.666 -8 33.999 -24c24.667 -3.33301 44.834 -7 60.501 -11s27.667 -9.33301 36 -16s14 -15 17 -25s4.5 -22.333 4.5 -37zM56.001 201.998c0 -18.667 -9 -28 -27 -28
s-27 9 -27 27c0 19.333 9 29 27 29s27 -9.33301 27 -28z" />
    <glyph glyph-name="bracketleft" unicode="[" horiz-adv-x="422" 
d="M364 386l-0.99707 10.998c-8 -21.333 -23 -87.333 -45 -198c-18.667 -98 -35 -155 -49 -171c-6 -2 -15.833 -4.5 -29.5 -7.5s-29.167 -6.16699 -46.5 -9.5s-35.5 -6.5 -54.5 -9.5l-54.5 -8.5c-17.333 -2.66699 -32.833 -4.83398 -46.5 -6.50098
s-23.834 -2.5 -30.501 -2.5l-4 1v50c1.33301 21.333 6 35.5 14 42.5s22.667 11.5 44 13.5c26 2.66699 42.667 6.83398 50 12.501s11 16.167 11 31.5c0 9.33301 -2.16699 22.666 -6.5 39.999l-14 54.5l-14 55c-4.33301 17.667 -6.5 31.167 -6.5 40.5
c0 4 -2.33301 8.83301 -7 14.5l-15.5 18.5c-5.66699 6.66699 -10.834 14 -15.501 22s-7 16.667 -7 26c0 8.66699 0.666992 17.334 2 26.001s3.33301 16.5 6 23.5s5.66699 12.667 9 17s7 6.5 11 6.5c7.33301 0 15.666 -9 24.999 -27c18 -5.33301 32.333 -10 43 -14
s18.667 -8.5 24 -13.5s8.66602 -10.833 9.99902 -17.5s2 -15.334 2 -26.001c0 -9.33301 -0.666992 -17 -2 -23s-4.16602 -10.833 -8.49902 -14.5s-11 -6.16699 -20 -7.5s-21.167 -2.33301 -36.5 -3l1 -56c30 -44 45.333 -101 46 -171c12.667 1.33301 28 3.5 46 6.5
s39 7.16699 63 12.5c18 24.667 36.667 88.334 56 191.001c-2 2.66699 -18.667 10.667 -50 24c-24 10 -36 24 -36 42c0 8.66699 1.16699 18.667 3.5 30s5.5 21.833 9.5 31.5s8.5 17.834 13.5 24.501s9.83301 10.334 14.5 11.001l15 -24c20 -6 35.333 -11 46 -15
s18.5 -8.33301 23.5 -13s8 -10 9 -16s1.83301 -14.333 2.5 -25z" />
    <glyph glyph-name="backslash" unicode="\" 
d="M-134 -120c0 -16.667 -8.66699 -25 -26 -25c-18 0 -27 8.66699 -27 26c0 16.667 9 25 27 25c17.333 0 26 -8.66699 26 -26zM-134 -232c0 -16.667 -8.66699 -25 -26 -25c-18 0 -27 8.66699 -27 26c0 16.667 9 25 27 25c17.333 0 26 -8.66699 26 -26zM-238 -129h-54v-129
h-36v129h-56v36h146v-36z" />
    <glyph glyph-name="bracketright" unicode="]" 
d="M-139 -113c0 -16.667 -8.66699 -25 -26 -25c-18 0 -27 8.66699 -27 26c0 16.667 9 25 27 25c17.333 0 26 -8.66699 26 -26zM-139 -225c0 -16.667 -8.66699 -25 -26 -25c-18 0 -27 8.66699 -27 26c0 16.667 9 25 27 25c17.333 0 26 -8.66699 26 -26zM-235 -130h-146v41
h146v-41z" />
    <glyph glyph-name="asciicircum" unicode="^" horiz-adv-x="468" 
d="M243 199h-54v-99h-30v99h-62v31h146v-31zM383 391c0 -3.33301 -2.33301 -8.66699 -7 -16l-16 -26c-6 -10 -11.333 -20.667 -16 -32s-7 -22 -7 -32c0 -14 0.666992 -32.833 2 -56.5s3 -50 5 -79l6.5 -90.5l6.5 -90.5c2 -29 3.66699 -55.5 5 -79.5s2 -43 2 -57
c0 -21.333 -4 -40.5 -12 -57.5s-18.667 -25.5 -32 -25.5h-4l-7 10c0 11.333 0.333008 64.333 1 159l3 409c-15.333 10 -37 15 -65 15c-6.66699 0 -16.5 -0.5 -29.5 -1.5s-26.833 -2.33301 -41.5 -4s-28.5 -3 -41.5 -4s-22.833 -1.5 -29.5 -1.5c-65.333 0 -98 28 -98 84
c0 26 7.66699 45.667 23 59c10 -4.66699 27.667 -15.667 53 -33c8 0 19.667 0.333008 35 1s31.5 1.5 48.5 2.5s33.333 1.5 49 1.5h35.5c50 2 84.333 -1.33301 103 -10s28 -23.667 28 -45z" />
    <glyph glyph-name="underscore" unicode="_" 
d="M-349 -239l-20 -13l-59 101l-67 -105l-17 15l83 141z" />
    <glyph glyph-name="grave" unicode="`" horiz-adv-x="230" 
d="M168 345l-66 -68l-71 72l67 66zM162 102l-64 -67l-72 71l66 67z" />
    <glyph glyph-name="a" unicode="a" horiz-adv-x="456" 
d="M392 53c0 -33.333 -12.3311 -51.3301 -36.998 -53.9971c-8 4.66699 -14.333 11 -19 19l-14 24c-5.33301 7.33301 -17.833 20.666 -37.5 39.999l-81.5 77c-68.667 62.667 -106.667 94 -114 94c-14.667 0 -22 -12.333 -22 -37c0 -9.33301 14.333 -32.333 43 -69
c29.333 -37.333 44 -66 44 -86c0 -42.667 -39.333 -64 -118 -64l-20 5l-5 16l12.5 15.5l17.5 22.5c0 0.666992 -2 4.33398 -6 11.001s-8.16699 14.834 -12.5 24.501s-8.33301 19.667 -12 30s-5.5 19.166 -5.5 26.499c0 41.333 23 81.666 69 120.999l-43 56
c-18.667 24.667 -28 46 -28 64c0 19.333 4.66699 36.166 14 50.499s21.666 22.166 36.999 23.499c4.66699 -4.66699 14 -15.167 28 -31.5l47 -54l53.5 -58.5c18.333 -19.333 34.166 -34.666 47.499 -45.999c25.333 21.333 38 39.333 38 54c0 9.33301 -8.66699 22 -26 38
l-3 21c0 48 15 76 45 84c1.33301 -0.666992 7 -6 17 -16l32.5 -33l32.5 -34c10 -10.667 16 -17.334 18 -20.001c0 -62 -13 -93 -39 -93c-10 0 -26 10 -48 30c-10 0 -19.5 -5.5 -28.5 -16.5s-13.5 -21.5 -13.5 -31.5c4 -6.66699 11.333 -15.667 22 -27l34 -35l34 -34
c10.667 -10.667 18 -19 22 -25c16.667 -24.667 25 -52 25 -82z" />
    <glyph glyph-name="b" unicode="b" horiz-adv-x="447" 
d="M388 84c0 -8 -1.5 -17.0039 -4.5 -27.0039s-6.83301 -19.5 -11.5 -28.5s-9.83398 -16.5 -15.501 -22.5s-11.5 -9 -17.5 -9l-321 2l-1 16v3c0 8.66699 2.33301 18.334 7 29.001s9.83398 20.5 15.501 29.5s11 16.5 16 22.5s8.16699 9.33301 9.5 10
c-0.666992 -0.666992 25 -1 77 -1h33c28.667 -1.33301 50 -2 64 -2h38c14.667 0 23 0.333008 25 1l14 1c4 6.66699 6 19 6 37v92c-2.66699 35.333 -11.834 60.333 -27.501 75s-40.5 22 -74.5 22c-4.66699 0 -12.167 -0.166992 -22.5 -0.5s-21.166 -0.5 -32.499 -0.5
s-22.166 -0.166992 -32.499 -0.5s-17.833 -0.5 -22.5 -0.5c-48.667 0 -73 23.667 -73 71c0 28.667 7.66699 47.667 23 57c2 0 5 -1.16699 9 -3.5l13.5 -7.5c5 -2.66699 10.167 -5.16699 15.5 -7.5s10.666 -3.5 15.999 -3.5h66h65c18.667 0 34.5 -2.5 47.5 -7.5
s23.5 -15.167 31.5 -30.5s13.833 -37.166 17.5 -65.499s5.5 -65.833 5.5 -112.5c0 -3.33301 -0.5 -12.666 -1.5 -27.999s-1.5 -32.666 -1.5 -51.999v-11.5c0 -3.66699 0.333008 -7.16699 1 -10.5l1 -13l17 1c16.667 0.666992 25 -7.33301 25 -24z" />
    <glyph glyph-name="c" unicode="c" horiz-adv-x="415" 
d="M356 113c0 -6 -1.16602 -14.1699 -3.49902 -24.5029s-5.5 -21.166 -9.5 -32.499s-8.33301 -22.166 -13 -32.499s-9 -18.833 -13 -25.5h-310v11c-0.666992 -2 0.5 1.16699 3.5 9.5l10.5 30l12 35c4 11.667 6.66699 19.834 8 24.501h219l16 17
c-1.33301 8.66699 -28.333 25.667 -81 51c-16 8 -29.333 15 -40 21s-19.167 12 -25.5 18s-11 12.5 -14 19.5s-5.16699 15.167 -6.5 24.5l-2 39c-0.666992 12.667 -1.66699 25.334 -3 38.001c-28.667 0 -52.334 5.5 -71.001 16.5s-28 26.5 -28 46.5
c0 42.667 7.33301 66.334 22 71.001c2 -2 7 -5.33301 15 -10l74 -31c11.333 -5.33301 17 -15.666 17 -30.999c0 -4.66699 -0.333008 -11.834 -1 -21.501s-1.16699 -19.834 -1.5 -30.501s-0.833008 -20.834 -1.5 -30.501s-1 -16.834 -1 -21.501c0 -18 7.66699 -32.5 23 -43.5
s34.666 -17.167 57.999 -18.5c24.667 23.333 38.334 61.333 41.001 114c-21.333 19.333 -32 40 -32 62c0 41.333 10.333 65 31 71l59 -33c28.667 -16.667 43 -30.667 43 -42c0 -60.667 -7.33301 -91 -22 -91c-4.66699 0 -21 6.66699 -49 20
c-26.667 -29.333 -40 -64 -40 -104c10.667 -9.33301 22.667 -17.666 36 -24.999s26 -15 38 -23s22 -17.167 30 -27.5s12 -23.833 12 -40.5z" />
    <glyph glyph-name="d" unicode="d" horiz-adv-x="447" 
d="M386 360c0 -0.666992 -2.33203 -3.50098 -6.99902 -8.50098s-9.66699 -11 -15 -18s-10.333 -14.5 -15 -22.5s-7 -15 -7 -21c0 -11.333 0.833008 -28.333 2.5 -51l5.5 -72l5.5 -72.5c1.66699 -23 2.5 -39.833 2.5 -50.5c0 -32.667 -12.333 -49 -37 -49h-8l1 127
c0.666992 134.667 -4.66602 206 -15.999 214h-204c-61.333 0 -92 27 -92 81c0 30 12.333 50.333 37 61l16 -13.5c5.33301 -4.33301 12 -8.33301 20 -12s18.167 -6.66699 30.5 -9s28.166 -3.5 47.499 -3.5c8 0 19.667 0.333008 35 1s31.5 1.5 48.5 2.5
s33.167 1.83301 48.5 2.5s27 1 35 1c23.333 0 40.166 -6.16699 50.499 -18.5s15.5 -35.166 15.5 -68.499z" />
    <glyph glyph-name="e" unicode="e" 
d="M-173 -120c0 -16.667 -8.66699 -25 -26 -25s-26 8.33301 -26 25s8.66699 25 26 25s26 -8.33301 26 -25zM-290 -120c0 -16.667 -7.66699 -25 -23 -25c-18.667 0 -28 8.66699 -28 26c0 16.667 8.66699 25 26 25c16.667 0 25 -8.66699 25 -26z" />
    <glyph glyph-name="f" unicode="f" horiz-adv-x="459" 
d="M414 375c-0.666992 -13.333 -2.49707 -30.335 -5.49707 -51.002s-7.83301 -45 -14.5 -73l-30 -124c-0.666992 -14.667 -2.33398 -32.5 -5.00098 -53.5s-6.33398 -45.5 -11.001 -73.5h-247c-48 90.667 -72 173.334 -72 248.001c0 4 0.333008 9.5 1 16.5
s1.5 14.167 2.5 21.5l3 21.5c1 7 1.5 12.5 1.5 16.5c0 4.66699 -1.5 12.5 -4.5 23.5l-10 35.5c-3.66699 12.667 -7 25 -10 37s-4.5 21 -4.5 27c0 12.667 5.33301 20.334 16 23.001c7.33301 -5.33301 17.166 -11.166 29.499 -17.499l43.5 -21.5c13.333 -15.333 20 -37 20 -65
l-4 -22l-52 -21c-8.66699 -21.333 -13 -47.666 -13 -78.999c0 -62 22 -107.333 66 -136c8.66699 12.667 17.667 29.334 27 50.001s18 42.167 26 64.5s14.5 43.833 19.5 64.5s7.5 37 7.5 49l-3 15c-23.333 23.333 -34.666 43 -33.999 59l2 46l14 16
c8.66699 -8 18.834 -15 30.501 -21s22.667 -12.833 33 -20.5s19 -17 26 -28s10.5 -25.5 10.5 -43.5c0 -6 -2.66699 -10.667 -8 -14s-11.333 -6 -18 -8l-19.5 -6c-6.33301 -2 -10.166 -5.33301 -11.499 -10c-1.33301 -3.33301 -4.33301 -14 -9 -32
s-10.167 -38.167 -16.5 -60.5s-13.166 -44.833 -20.499 -67.5s-14.333 -40.334 -21 -53.001h178c3.33301 8 8 22.167 14 42.5s11.833 41.666 17.5 63.999s10.5 42.666 14.5 60.999s6 29.5 6 33.5c0 6 -3.33301 11.333 -10 16s-13.834 9.16699 -21.501 13.5
s-14.834 8.83301 -21.501 13.5s-10.334 10 -11.001 16l-8 66c0 7.33301 2.33301 15.666 7 24.999s11 14.666 19 15.999c5.33301 -6 15.666 -14.667 30.999 -26c20 -9.33301 33.333 -18.666 40 -27.999s10 -24.666 10 -45.999zM110.003 526.998c0 -8.66699 -3 -16 -9 -22
s-13.333 -9 -22 -9s-16 3 -22 9s-9 13.333 -9 22s3 15.834 9 21.501s13.333 8.5 22 8.5s16 -2.83301 22 -8.5s9 -12.834 9 -21.501z" />
    <glyph glyph-name="g" unicode="g" horiz-adv-x="261" 
d="M203 20c0 -16 -3.33398 -23.999 -10.001 -23.999s-11.834 5.66699 -15.501 17s-7.5 21.833 -11.5 31.5l-11.5 27.5c-3.66699 8.66699 -6.83398 14.667 -9.50098 18c-10 -36.667 -22 -66.334 -36 -89.001c-18 -1.33301 -33.167 -2.5 -45.5 -3.5s-22.166 -1.5 -29.499 -1.5
c-10 0 -19 1.66699 -27 5v38c0 51.333 22 77 66 77c4 0 9.16699 -0.166992 15.5 -0.5s13 -0.833008 20 -1.5s13.833 -1.16699 20.5 -1.5s12 -0.5 16 -0.5l18 17c0 8.66699 0.166992 21.667 0.5 39l1 54.5l1 54.5c0.333008 17.333 0.5 30.333 0.5 39
c0 14.667 -19.667 22 -59 22c-5.33301 0 -11.166 -0.166992 -17.499 -0.5s-13.166 -0.833008 -20.499 -1.5c-20 18 -30 42.333 -30 73c0 36.667 9.33301 55 28 55l22 -23c70.667 0 106.667 -18 108 -54c4 -120.667 6 -243 6 -367z" />
    <glyph glyph-name="h" unicode="h" horiz-adv-x="471" 
d="M413 360c0 -0.666992 -2.33105 -3.66992 -6.99805 -9.00293s-9.66699 -11.5 -15 -18.5s-10.333 -14.333 -15 -22s-7 -14.5 -7 -20.5c0 -12 0.833008 -29.5 2.5 -52.5l5.5 -72.5l5.5 -72.5c1.66699 -23 2.5 -40.5 2.5 -52.5c0 -30 -15 -45 -45 -45
c0 8 0.166992 20.333 0.5 37s0.833008 34.334 1.5 53.001s1.16699 36.334 1.5 53.001s0.5 29 0.5 37c0 91.333 -6.33301 143.333 -19 156h-204c-26 0 -48 7.83301 -66 23.5s-27 36.5 -27 62.5c0 30.667 12.667 51 38 61c2 -0.666992 4.83301 -2.5 8.5 -5.5
s7.5 -6.33301 11.5 -10s7.5 -7.16699 10.5 -10.5s5.16699 -5 6.5 -5c6.66699 -4.66699 33.667 -7 81 -7c7.33301 0 18.666 0.333008 33.999 1s31.333 1.5 48 2.5s32.5 1.83301 47.5 2.5s26.167 1 33.5 1c23.333 0 40.166 -6.16699 50.499 -18.5s15.5 -35.166 15.5 -68.499z
M104.002 213.997c0 -4 -1.16699 -10.335 -3.5 -19.002s-3.5 -15 -3.5 -19c0 -5.33301 0.333008 -13 1 -23s1.16699 -20.667 1.5 -32s0.833008 -22.166 1.5 -32.499s1 -18.166 1 -23.499c0 -21.333 -13.667 -44.666 -41 -69.999c-14.667 0 -22 7 -22 21
c0 6 0.833008 14.5 2.5 25.5s3.5 22.167 5.5 33.5l6 32.5c2 10.333 3 18.166 3 23.499c1.33301 38 4.5 64.167 9.5 78.5s13.5 21.5 25.5 21.5c8.66699 0 13 -5.66699 13 -17z" />
    <glyph glyph-name="i" unicode="i" 
d="M-229 -120c0 -16.667 -8.66699 -25 -26 -25c-18 0 -27 8.66699 -27 26c0 16.667 9 25 27 25c17.333 0 26 -8.66699 26 -26z" />
    <glyph glyph-name="j" unicode="j" horiz-adv-x="450" 
d="M390 226c0 -21.333 -1.83398 -45.168 -5.50098 -71.501s-8.66699 -51.166 -15 -74.499s-13.5 -43 -21.5 -59s-16.333 -24 -25 -24l-305 2c-2.66699 21.333 -4.5 48 -5.5 80s-1.5 69 -1.5 111c0 8 1.83301 19.333 5.5 34s7.66699 29.334 12 44.001s8.33301 27.5 12 38.5
s5.5 17.167 5.5 18.5c-6 6 -11 11.333 -15 16s-7.16699 9.33398 -9.5 14.001s-4 9.83398 -5 15.501s-1.5 12.5 -1.5 20.5c0 16 3.5 32.5 10.5 49.5s15.5 28.167 25.5 33.5c6 -3.33301 14.167 -8.33301 24.5 -15s20.5 -14.834 30.5 -24.501s18.833 -20.834 26.5 -33.501
s11.5 -26.667 11.5 -42c0 -10.667 -2.66699 -22.834 -8 -36.501s-11.666 -21.834 -18.999 -24.501l-40 17c-4 0 -8.16699 -3.66699 -12.5 -11s-8.33301 -16.5 -12 -27.5s-6.5 -22.833 -8.5 -35.5s-3 -24 -3 -34c0 -31.333 5.66699 -57 17 -77s27.666 -30 48.999 -30h194
c44.667 0 67 29.333 67 88c0 42.667 -8.5 78 -25.5 106s-39.833 42 -68.5 42c-16 0 -28.5 -3.66699 -37.5 -11s-16.167 -17 -21.5 -29s-9.5 -25.667 -12.5 -41s-6.5 -30.666 -10.5 -45.999l-9 -7c-4.66699 10 -7 18.667 -7 26c0 10.667 2 26.167 6 46.5
s8.33301 41.166 13 62.499l13 60.5c4 19 6.33301 33.167 7 42.5c0.666992 22.667 7.33398 34 20.001 34c20.667 0 40.5 -7.5 59.5 -22.5s35.5 -34.333 49.5 -58s25.167 -50.167 33.5 -79.5s12.5 -58.666 12.5 -87.999z" />
    <glyph glyph-name="k" unicode="k" horiz-adv-x="447" 
d="M374 235c0 -156.667 -53.6689 -234.333 -161.002 -233l-207 1c0 39.333 7 66.5 21 81.5s37 22.5 69 22.5c4.66699 0 11.834 -0.333008 21.501 -1s19.667 -1.16699 30 -1.5s20.333 -0.833008 30 -1.5s16.834 -1 21.501 -1c56.667 0 97.5 9.66699 122.5 29s37.5 51 37.5 95
c0 67.333 -39.667 101 -119 101c-4.66699 0 -11.667 -0.166992 -21 -0.5s-19.333 -0.833008 -30 -1.5s-20.667 -1.16699 -30 -1.5s-16.333 -0.5 -21 -0.5c-75.333 0 -113 31.667 -113 95c0 28 7.66699 46.667 23 56c0.666992 0 3 -1.83301 7 -5.5s8.83301 -7.5 14.5 -11.5
s11.5 -7.66699 17.5 -11s11 -5 15 -5h61.5c24.333 0 53.166 -0.666992 86.499 -2c22.667 -4 41.834 -10 57.501 -18s28.5 -20.333 38.5 -37s17.167 -37 21.5 -61s6.5 -53.333 6.5 -88z" />
    <glyph glyph-name="l" unicode="l" horiz-adv-x="444" 
d="M386 274c0 -19.333 -0.166992 -34.334 -0.5 -45.001s-1.5 -19.167 -3.5 -25.5s-5.16699 -11.833 -9.5 -16.5s-10.5 -10.334 -18.5 -17.001l-177 -167c-18 0 -27 9.66699 -27 29c0 10 2.83301 18.833 8.5 26.5s14.834 16.167 27.501 25.5s45.334 30.833 98.001 64.5
s79 63.167 79 88.5c0 12 -2.33301 23.667 -7 35s-10.834 21.5 -18.501 30.5s-16.834 16.167 -27.501 21.5s-22 8 -34 8h-235c-14.667 18.667 -22 51.334 -22 98.001v112c0 6.66699 6.66699 21.667 20 45l27 46c-6.66699 20.667 -17 34 -31 40v36l13 7
c4.66699 0 10.167 -1.66699 16.5 -5s12.333 -7.33301 18 -12s10.5 -10 14.5 -16s6 -11.333 6 -16c0 -23.333 -11.667 -44.666 -35 -63.999v-97c-0.666992 -45.333 41 -67.333 125 -66c70 0.666992 117.333 0 142 -2c34 2 51 -52.667 51 -164z" />
    <glyph glyph-name="m" unicode="m" horiz-adv-x="456" 
d="M375 214c0 -104 -7.66406 -175.001 -22.9971 -213.001l-138 -2c-17.333 -0.666992 -33 -0.666992 -47 0s-26.333 1.33398 -37 2.00098v53c0 37.333 24.667 56 74 56c7.33301 0 18.166 -0.666992 32.499 -2s25.166 -2 32.499 -2c17.333 0 31.5 1 42.5 3
s19.667 5.5 26 10.5s10.666 11.667 12.999 20s3.5 18.833 3.5 31.5c0 52 -13.667 92.833 -41 122.5s-67 44.5 -119 44.5c-67.333 0 -109.666 -28.667 -126.999 -86c-7.33301 -25.333 -11 -81.666 -11 -168.999c0 -30.667 -3.5 -51.167 -10.5 -61.5
s-19.167 -16.833 -36.5 -19.5v135c0 24 8 53 24 87l10 20l12 26c4.66699 10 10.667 22 18 36c0.666992 -1.33301 -2.83301 1 -10.5 7s-16.167 13.667 -25.5 23s-18 19.666 -26 30.999s-12 21.666 -12 30.999c0 5.33301 1.83301 12 5.5 20s8.16699 15.833 13.5 23.5
s11.166 14.334 17.499 20.001s12.166 8.5 17.499 8.5c2 0 7 -2.83301 15 -8.5l25.5 -19c9 -7 17.333 -13.833 25 -20.5s11.834 -11 12.501 -13c2 -4 3.66699 -21.667 5 -53c36.667 0 55 19.333 55 58c0 8.66699 -1 18.667 -3 30l7 14c10 4.66699 17.333 7 22 7
c50 0 88.833 -22.667 116.5 -68s41.5 -106.333 41.5 -183z" />
    <glyph glyph-name="n" unicode="n" horiz-adv-x="255" 
d="M190 85c0 -19.333 -0.833008 -34.833 -2.5 -46.5s-6 -20.667 -13 -27s-17.667 -10.5 -32 -12.5s-34.166 -3 -59.499 -3c-52 0 -78 13.333 -78 40c0 25.333 4.5 42.833 13.5 52.5s25.167 15.167 48.5 16.5c18.667 0.666992 33.667 2 45 4s20.166 8.66699 26.499 20
s10.5 30 12.5 56s3 63.333 3 112c0 18.667 -11.333 30.334 -34 35.001c-33.333 7.33301 -52 13 -56 17l-35 30l-1 13c0 9.33301 0.833008 18.833 2.5 28.5s4 18.5 7 26.5s6.33301 14.667 10 20s7.5 8.33301 11.5 9l33 -23c2 -1.33301 5.83301 -2.33301 11.5 -3
s12 -1.83398 19 -3.50098s13.833 -3.5 20.5 -5.5s11.667 -4.66699 15 -8c21.333 -21.333 32 -137.333 32 -348z" />
    <glyph glyph-name="o" unicode="o" 
d="M-367 545c0 -16.667 -8.66699 -25 -26 -25c-18 0 -27 8.66699 -27 26c0 16.667 9 25 27 25c17.333 0 26 -8.66699 26 -26z" />
    <glyph glyph-name="p" unicode="p" horiz-adv-x="435" 
d="M367 84c0 -13.333 -12.0029 -41.3359 -36.0029 -84.0029h-323l-2 3c14 50 27.333 85 40 105h289c8 10.667 12 25.667 12 45c0 122 -36 183 -108 183h-131c-11.333 0 -21.166 -5.16699 -29.499 -15.5s-12.5 -21.166 -12.5 -32.499c0 -7.33301 1 -13.166 3 -17.499
s6.16699 -7.83301 12.5 -10.5s15.5 -4.66699 27.5 -6s28 -2.66602 48 -3.99902c20.667 -4.66699 31 -18.667 31 -42c0 -27.333 -21.667 -41 -65 -41c-34.667 0 -52 0.666992 -52 2l-42 -22l-1 82c0 6.66699 10 34 30 82c-27.333 37.333 -41 69 -41 95c0 34 7.33301 53 22 57
c6 -3.33301 14 -10.666 24 -21.999h181c14.667 0 29.334 -5 44.001 -15s27.834 -22.833 39.501 -38.5s21.167 -32.834 28.5 -51.501s11 -36.667 11 -54v-198z" />
    <glyph glyph-name="q" unicode="q" horiz-adv-x="441" 
d="M372 247c0 -20 -1.66602 -37.002 -4.99902 -51.002s-9.33301 -26.167 -18 -36.5s-20.834 -19.666 -36.501 -27.999s-35.834 -16.5 -60.501 -24.5c-42 -14 -71 -27.333 -87 -40l-56 -45l-4 10c0 34.667 21 63 63 85l119 46c42 16 63 38.333 63 67
c0 68 -21.333 102 -64 102h-187c-54.667 -4 -82 11.667 -82 47v53c0 12.667 8.66699 22 26 28c32 -14 75.333 -20.667 130 -20s92.834 -1.5 114.501 -6.5s38.667 -14.667 51 -29s21 -34.166 26 -59.499s7.5 -58 7.5 -98zM61.001 -155.002
c0 -10.667 -1.00293 -21.832 -3.00293 -33.499s-4.66699 -22.334 -8 -32.001s-7.16602 -17.667 -11.499 -24s-8.83301 -9.5 -13.5 -9.5l-14 4l1 403c0 40.667 12.667 77.667 38 111h11v-6c-18 -25.333 -27 -50 -27 -74c0 -10 1.33301 -25.667 4 -47
s5.83398 -43.833 9.50098 -67.5s6.83398 -46 9.50098 -67s4 -36.5 4 -46.5v-111z" />
    <glyph glyph-name="r" unicode="r" horiz-adv-x="417" 
d="M348 225c0 -4 0.169922 -10.168 0.50293 -18.501s0.5 -16.833 0.5 -25.5s0.166992 -17.167 0.5 -25.5s0.5 -14.5 0.5 -18.5c0 -87.333 -11.333 -137.333 -34 -150c-6 2.66699 -9 11.334 -9 26.001c0 10.667 0.666992 26.667 2 48s3 43.833 5 67.5s3.66699 46.167 5 67.5
s2 37.333 2 48c0 18.667 -0.833008 33.834 -2.5 45.501s-4.66699 20.667 -9 27s-10 10.666 -17 12.999s-15.833 3.5 -26.5 3.5h-216c-8.66699 5.33301 -15.834 10.5 -21.501 15.5s-10 10.667 -13 17s-5.16699 13.833 -6.5 22.5s-2 19.334 -2 32.001c0 28 6 44.667 18 50
c10 -8 19.333 -17.667 28 -29c7.33301 0 18.666 0.166992 33.999 0.5s31.5 0.666016 48.5 0.999023s33.167 0.666016 48.5 0.999023s26.666 0.5 33.999 0.5c31.333 0 55.833 -3 73.5 -9s30.667 -17.167 39 -33.5s13.333 -38.666 15 -66.999s2.5 -64.833 2.5 -109.5z" />
    <glyph glyph-name="s" unicode="s" horiz-adv-x="419" 
d="M363 193c0 -15.333 -2.83496 -32.9951 -8.50195 -52.9951s-13.167 -39.167 -22.5 -57.5s-19.833 -34.333 -31.5 -48s-23.167 -21.834 -34.5 -24.501c-35.333 -8.66699 -70.333 -13 -105 -13c-24 0 -45.833 4.83301 -65.5 14.5s-36.5 23 -50.5 40s-24.833 37.333 -32.5 61
s-11.5 49.167 -11.5 76.5c0 43.333 15.333 86.666 46 129.999c-4.66699 6 -9.5 11.833 -14.5 17.5s-9.5 11.667 -13.5 18s-7.33301 13.666 -10 21.999s-4 18.5 -4 30.5c0 34 10.333 55 31 63c50 -21.333 88.333 -32 115 -32h11c6 0.666992 9.16699 1.16699 9.5 1.5
s1.33301 0.5 3 0.5s5.83398 -0.166992 12.501 -0.5s19.334 -0.5 38.001 -0.5c20 0 38.333 -6.66699 55 -20s31.167 -31.333 43.5 -54s22 -48.834 29 -78.501s10.5 -60.834 10.5 -93.501zM337.998 237.005c0 32 -8.16504 55.166 -24.498 69.499s-41.5 21.5 -75.5 21.5
c-7.33301 0 -22.5 -0.5 -45.5 -1.5s-53.5 -1.5 -91.5 -1.5c-10 -0.666992 -19.5 -4.66699 -28.5 -12s-16.833 -16.333 -23.5 -27s-12 -22.5 -16 -35.5s-6 -25.167 -6 -36.5c0 -21.333 2.33301 -39.166 7 -53.499s13 -26 25 -35s28.5 -15.333 49.5 -19s47.5 -5.5 79.5 -5.5
c29.333 0 53.666 2.33301 72.999 7s34.666 12.5 45.999 23.5s19.333 25 24 42s7 38.167 7 63.5z" />
    <glyph glyph-name="t" unicode="t" horiz-adv-x="447" 
d="M390 193l0.00195312 -107.998c-2.66699 -58.667 -11.667 -88 -27 -88l-10 2l3 295c0 8 -4.16699 15.5 -12.5 22.5s-16.5 10.5 -24.5 10.5h-214c-2.66699 -4 -6 -10.333 -10 -19s-7.83301 -17.667 -11.5 -27s-6.83398 -17.833 -9.50098 -25.5s-4 -12.834 -4 -15.501
c0 -9.33301 2.5 -22 7.5 -38s10.667 -32.833 17 -50.5s12 -34.5 17 -50.5s7.5 -28.333 7.5 -37c0 -6 -1.5 -12.833 -4.5 -20.5s-6.66699 -14.834 -11 -21.501s-9.33301 -12.167 -15 -16.5s-10.834 -6.5 -15.501 -6.5h-59c-6.66699 14 -10 41 -10 81
c28 16.667 42 31.667 42 45c0 6 -0.5 15 -1.5 27s-2.16699 24.667 -3.5 38s-2.5 26 -3.5 38s-1.5 21 -1.5 27l26 78c-22 18.667 -33 42.334 -33 71.001c0 40 9.66699 60 29 60l19 -22c6.66699 0 16.667 0.166992 30 0.5s27.5 0.5 42.5 0.5s29.167 0.166992 42.5 0.5
s23.333 0.5 30 0.5c42 0 74.5 -2.83301 97.5 -8.5s39.667 -17.334 50 -35.001s16.333 -43 18 -76s2.5 -76.833 2.5 -131.5z" />
    <glyph glyph-name="u" unicode="u" 
d="M-155 -232c0 -16.667 -8.66699 -25 -26 -25c-18 0 -27 8.66699 -27 26c0 16.667 9 25 27 25c17.333 0 26 -8.66699 26 -26zM-219 -176c0 -16.667 -8.66699 -25 -26 -25c-18 0 -27 8.66699 -27 26c0 16.667 9 25 27 25c17.333 0 26 -8.66699 26 -26zM-281 -120
c0 -16.667 -8.66699 -25 -26 -25c-18 0 -27 8.66699 -27 26c0 16.667 9 25 27 25c17.333 0 26 -8.66699 26 -26z" />
    <glyph glyph-name="v" unicode="v" horiz-adv-x="474" 
d="M422 376c-0.666992 -1.33301 -3.49707 -17.5 -8.49707 -48.5l-23.5 -139.5l-33 -188h-247c-48 92.667 -72 175.334 -72 248.001c0 4 0.333008 9.66699 1 17s1.5 14.666 2.5 21.999l3 22c1 7.33301 1.5 13 1.5 17s-1.5 11.5 -4.5 22.5l-10 35.5
c-3.66699 12.667 -7 24.834 -10 36.501s-4.5 20.5 -4.5 26.5c0 12.667 5.33301 20.334 16 23.001c2.66699 -1.33301 4.83398 -3.16602 6.50098 -5.49902s4 -5 7 -8s7.16699 -6.16699 12.5 -9.5s13 -6.33301 23 -9c18 -3.33301 29.833 -10.5 35.5 -21.5
s8.5 -27.833 8.5 -50.5l-4 -22l-52 -21c-8.66699 -21.333 -13 -47.666 -13 -78.999c0 -64.667 22 -110 66 -136c8 13.333 16.667 30.5 26 51.5s18 42.667 26 65s14.667 43.5 20 63.5s8 36 8 48c0 2 -2 6.16699 -6 12.5l-13 21
c-4.66699 7.66699 -8.83398 15.334 -12.501 23.001s-5.5 13.5 -5.5 17.5l2 46l14 16c10.667 -10.667 21.834 -18.834 33.501 -24.501s22.5 -11.834 32.5 -18.501s18.167 -15.167 24.5 -25.5s9.5 -25.5 9.5 -45.5c0 -10.667 -6.33301 -17.334 -19 -20.001l-31 -3l-32 -115
c-12.667 -44 -26.667 -81.333 -42 -112h178c3.33301 8 8 22.167 14 42.5s11.833 41.666 17.5 63.999s10.5 42.666 14.5 60.999s6 29.5 6 33.5c0 6 -3.33301 11.333 -10 16s-13.834 9.16699 -21.501 13.5s-14.834 8.83301 -21.501 13.5s-10.334 10 -11.001 16l-8 66v5
c0 16.667 8.66699 28.667 26 36c5.33301 -6 15.666 -14.667 30.999 -26c20 -9.33301 33.167 -18.5 39.5 -27.5s9.5 -24.167 9.5 -45.5zM417.003 532c0 -8.66699 -3 -16 -9 -22s-13.333 -9 -22 -9s-16 3 -22 9s-9 13.333 -9 22s3 15.834 9 21.501s13.333 8.5 22 8.5
s16 -2.83301 22 -8.5s9 -12.834 9 -21.501z" />
    <glyph glyph-name="w" unicode="w" horiz-adv-x="249" 
d="M181 80c0 -49.333 -9.66602 -77.001 -28.999 -83.001c-9.33301 8 -14 22.667 -14 44c0 11.333 0.833008 28.833 2.5 52.5l5 74.5l5 74.5c1.66699 23.667 2.5 41.167 2.5 52.5c0 18 -12.333 28 -37 30c-23.333 2 -42 4.16699 -56 6.5s-24.5 6.33301 -31.5 12
s-11.5 13 -13.5 22s-3 20.833 -3 35.5c0 36 7.66699 58.667 23 68c12 -18 25.333 -28.333 40 -31l66 -4c7.33301 -2 13.666 -5.66699 18.999 -11s9.5 -13.666 12.5 -24.999s5.16699 -26.5 6.5 -45.5s2 -42.833 2 -71.5v-201z" />
    <glyph glyph-name="x" unicode="x" horiz-adv-x="447" 
d="M386 385c0 -8.66699 -2.6709 -17.668 -8.00391 -27.001s-11.166 -17.666 -17.499 -24.999s-12.166 -13.5 -17.499 -18.5l-8 -7.5c0 -12.667 1.33301 -31.667 4 -57l8.5 -79.5l8.5 -79.5c2.66699 -25.333 4 -44.333 4 -57c0 -13.333 -8.66699 -23.666 -26 -30.999
c-6 8 -11.333 60 -16 156l-10 177h-208c-8.66699 0 -17 -1 -25 -3l7 -9l-1 -8c-15.333 -9.33301 -23 -36 -23 -80c0 -8 0.5 -20 1.5 -36s2.16699 -32.833 3.5 -50.5s2.5 -34.5 3.5 -50.5s1.5 -28 1.5 -36c0 -38.667 -15.333 -61 -46 -67l-10 13c0 4 0.666992 9.66699 2 17
s2.83301 15 4.5 23s3.16699 15.667 4.5 23s2 12.666 2 15.999v143c0 4 1.16699 10.167 3.5 18.5s4.83301 16.833 7.5 25.5l7.5 25c2.33301 8 3.5 14 3.5 18c0 0.666992 -2.16699 3.5 -6.5 8.5s-9.16602 11 -14.499 18s-10.166 14.833 -14.499 23.5s-6.5 17.667 -6.5 27
c0 36 11.667 58 35 66c17.333 -13.333 37.333 -20 60 -20h229c38 0 57 -18.667 57 -56z" />
    <glyph glyph-name="y" unicode="y" horiz-adv-x="237" 
d="M172 352v-42.0039c0 -10 -2 -24.333 -6 -43l-9 -43c-2 -10.667 -7.33301 -16 -16 -16c-6.66699 4.66699 -10 9.33398 -10 14.001c0 6 1.5 15.167 4.5 27.5s4.5 21.5 4.5 27.5c0 22.667 -12.333 38.334 -37 47.001l-65 15c-24 10.667 -36 33.334 -36 68.001
c0 32 12 50.667 36 56c4.66699 -3.33301 8.5 -6.16602 11.5 -8.49902s6.5 -4.33301 10.5 -6s9.16699 -3 15.5 -4s15.5 -1.5 27.5 -1.5c46 0 69 -30.333 69 -91z" />
    <glyph glyph-name="z" unicode="z" horiz-adv-x="243" 
d="M186 355c0 -24.667 -8.33105 -37.001 -24.998 -37.001c-4.66699 0 -11.334 1.5 -20.001 4.5s-15.334 4.5 -20.001 4.5c-10 0 -18.5 -4.66699 -25.5 -14s-10.5 -19.333 -10.5 -30c0 -6 1.5 -15 4.5 -27s6.5 -24.5 10.5 -37.5s7.5 -25.5 10.5 -37.5s4.5 -21 4.5 -27
c0 -89.333 -6.33301 -139.333 -19 -150c-10 8 -15 21 -15 39c0 4.66699 0.5 11.667 1.5 21s1.5 16.333 1.5 21c0 7.33301 -1.5 18.333 -4.5 33s-6.5 30.167 -10.5 46.5s-7.5 31.833 -10.5 46.5s-4.5 25.667 -4.5 33c0 13.333 6.33301 40 19 80l-6 8
c-14.667 6.66699 -26.334 12.5 -35.001 17.5s-15.167 10.5 -19.5 16.5s-7 13.167 -8 21.5s-1.5 18.5 -1.5 30.5c0 33.333 10.333 50 31 50c0.666992 0 3.33398 -1.33301 8.00098 -4l16 -9l17.5 -9.5c5.66699 -3 9.16699 -4.5 10.5 -4.5l1 5
c66 -9.33301 99 -39.666 99 -90.999z" />
    <glyph glyph-name="braceleft" unicode="{" 
d="M-480 546c0 -16.667 -8.66699 -25 -26 -25c-18 0 -27 8.66699 -27 26c0 16.667 9 25 27 25c17.333 0 26 -8.66699 26 -26z" />
    <glyph glyph-name="bar" unicode="|" 
d="M-31 -120c0 -16.667 -8.66699 -25 -26 -25c-18 0 -27 8.66699 -27 26c0 16.667 9 25 27 25c17.333 0 26 -8.66699 26 -26zM-31 -232c0 -16.667 -8.66699 -25 -26 -25c-18 0 -27 8.66699 -27 26c0 16.667 9 25 27 25c17.333 0 26 -8.66699 26 -26zM-128 -129h-54v-129h-36
v129h-56v36h146v-36z" />
    <glyph glyph-name="braceright" unicode="}" 
d="M-25 -112c0 -16.667 -8.66699 -25 -26 -25c-18 0 -27 8.66699 -27 26c0 16.667 9 25 27 25c17.333 0 26 -8.66699 26 -26zM-25 -224c0 -16.667 -8.66699 -25 -26 -25c-18 0 -27 8.66699 -27 26c0 16.667 9 25 27 25c17.333 0 26 -8.66699 26 -26zM-121 -131h-146v41h146
v-41z" />
    <glyph glyph-name="asciitilde" unicode="~" horiz-adv-x="441" 
d="M354 339v-336h-345v257c0 5.33301 10.333 25.333 31 60c-0.666992 2 -2.83398 6.33301 -6.50098 13s-7.66699 14.334 -12 23.001s-8.33301 17.167 -12 25.5s-5.5 15.166 -5.5 20.499c0 14.667 4 29 12 43s17 22 27 24c8 -7.33301 17 -16.333 27 -27h213
c10 0 19.167 -3 27.5 -9s15.833 -13.833 22.5 -23.5s11.834 -20.667 15.501 -33s5.5 -24.833 5.5 -37.5zM334 121v169.001c-20 28 -34.667 42 -44 42h-215l-12.5 -24.5c-5 -9.66699 -11.167 -20.834 -18.5 -33.501v-166h270c7.33301 6 14 10.333 20 13z" />
    <glyph glyph-name="nonbreakingspace" unicode="&#xa0;" horiz-adv-x="368" 
 />
    <glyph glyph-name="exclamdown" unicode="&#xa1;" horiz-adv-x="0" 
d="M-22 659c0 -18.667 -5.83008 -34.168 -17.4971 -46.501s-26.834 -18.5 -45.501 -18.5c-8.66699 0 -18.334 3 -29.001 9l-58 -56l-57 56c-12 -5.33301 -22 -8 -30 -8c-18 0 -32.667 6.16699 -44 18.5s-17 27.5 -17 45.5c0 14.667 6.16699 27 18.5 37s26.166 15 41.499 15
c16 0 29.667 -5.5 41 -16.5s17 -24.5 17 -40.5c0 -11.333 -3.66699 -22.666 -11 -33.999l42 -40l42 40c-6.66699 11.333 -10 23.333 -10 36c0 14.667 5.66699 27.5 17 38.5s24.333 16.5 39 16.5c15.333 0 29.333 -5 42 -15s19 -22.333 19 -37zM-126.997 653.999
c0 -12.667 4.5 -23.334 13.5 -32.001s19.833 -13 32.5 -13s23.5 4.33301 32.5 13s13.5 19.334 13.5 32.001s-4.5 23.334 -13.5 32.001s-19.833 13 -32.5 13s-23.5 -4.33301 -32.5 -13s-13.5 -19.334 -13.5 -32.001zM-306.997 653.999c0 -12.667 4.5 -23.334 13.5 -32.001
s19.833 -13 32.5 -13s23.5 4.33301 32.5 13s13.5 19.334 13.5 32.001s-4.5 23.334 -13.5 32.001s-19.833 13 -32.5 13s-23.5 -4.33301 -32.5 -13s-13.5 -19.334 -13.5 -32.001z" />
    <glyph glyph-name="cent" unicode="&#xa2;" horiz-adv-x="0" 
d="M-273 -105l-75 -146l-23 13l77 146zM-343 -105l-77 -146l-21 13l75 146z" />
    <glyph glyph-name="sterling" unicode="&#xa3;" horiz-adv-x="453" 
d="M402 2h-362v408h362v-408zM370 40v335h-295v-335h295zM295 194c0 -15.333 -5.66797 -28.334 -17.001 -39.001s-24.666 -16 -39.999 -16c-16.667 0 -30.5 5.66699 -41.5 17s-16.5 25.333 -16.5 42c0 37.333 18 56 54 56c17.333 0 31.833 -5.66699 43.5 -17
s17.5 -25.666 17.5 -42.999z" />
    <glyph glyph-name="currency" unicode="&#xa4;" horiz-adv-x="467" 
d="M409 2h-361v408h361v-408zM378 40v335h-295v-335h295z" />
    <glyph glyph-name="yen" unicode="&#xa5;" horiz-adv-x="39" 
d="M28 -255h-26v149h26v-149z" />
    <glyph glyph-name="brokenbar" unicode="&#xa6;" 
d="M-180 543h-138l70 51h-61l69 54h-69l118 64v-15l-55 -28l62 -18l-63 -34l63 -20l-72 -32z" />
    <glyph glyph-name="section" unicode="&#xa7;" 
d="M-172 687c0 -16.667 -8.66699 -25 -26 -25s-26 8.66699 -26 26c0 16 8.66699 24 26 24s26 -8.33301 26 -25zM-172 578c0 -16.667 -8.66699 -25 -26 -25s-26 8.66699 -26 26c0 16 8.66699 24 26 24s26 -8.33301 26 -25zM-265 554h-27v158h27v-158z" />
    <glyph glyph-name="dieresis" unicode="&#xa8;" 
d="M-47 687c0 -16.667 -8 -25 -24 -25c-17.333 0 -26 8.66699 -26 26c0 16 8.66699 24 26 24c16 0 24 -8.33301 24 -25zM-47 578c0 -16.667 -8 -25 -24 -25c-17.333 0 -26 8.66699 -26 26c0 16 8.66699 24 26 24c16 0 24 -8.33301 24 -25zM-139 554h-26v158h26v-158z" />
    <glyph glyph-name="copyright" unicode="&#xa9;" 
d="M-131 562c-6.66699 16.667 -16.5 31.167 -29.5 43.5s-26.833 21.5 -41.5 27.5c14.667 6 28.5 15.167 41.5 27.5s22.833 26.833 29.5 43.5c8 -16.667 18.333 -31.167 31 -43.5s26 -21.5 40 -27.5c-14 -6 -27.333 -15.167 -40 -27.5s-23 -26.833 -31 -43.5z" />
    <glyph glyph-name="ordfeminine" unicode="&#xaa;" horiz-adv-x="0" 
d="M-240 562c-6.66699 16.667 -16.5 31.167 -29.5 43.5s-26.833 21.5 -41.5 27.5c14.667 6 28.5 15.167 41.5 27.5s22.833 26.833 29.5 43.5c8 -16.667 18.333 -31.167 31 -43.5s26 -21.5 40 -27.5c-14 -6 -27.333 -15.167 -40 -27.5s-23 -26.833 -31 -43.5z" />
    <glyph glyph-name="guillemotleft" unicode="&#xab;" horiz-adv-x="0" 
d="M-186 663v-74.001h-27v72c0 24.667 -12.667 37 -38 37c-9.33301 0 -17.5 -2.16699 -24.5 -6.5s-12.833 -9.16602 -17.5 -14.499s-8.16699 -10 -10.5 -14s-3.5 -5.66699 -3.5 -5c-5.33301 0 -8 4 -8 12c0 16 6.66699 29.833 20 41.5s28 17.5 44 17.5
c43.333 0 65 -22 65 -66z" />
    <glyph glyph-name="logicalnot" unicode="&#xac;" horiz-adv-x="0" 
d="M-67 660l0.000976562 -74h-27v72c0 24.667 -12.667 37 -38 37c-20.667 0 -39.334 -13.333 -56.001 -40c-5.33301 0 -8 4 -8 12c0 16.667 6.5 30.667 19.5 42s27.833 17 44.5 17c43.333 0 65 -22 65 -66z" />
    <glyph glyph-name="uni00AD" unicode="&#xad;" horiz-adv-x="415" 
d="M244 95c0 -18 -8.66699 -27 -26 -27c-18 0 -27 9.33301 -27 28c0 16.667 8.66699 25 26 25c18 0 27 -8.66699 27 -26zM347 -230c0 -7.33301 -9.33105 -15.999 -27.998 -25.999l-16 21v540l5 31h-204c-6 0 -11 -0.333008 -15 -1s-8 -2.66699 -12 -6
s-8.33301 -8.33301 -13 -15s-10.667 -16 -18 -28c6.66699 -10.667 24.334 -17 53.001 -19l62 -4l11 -11l4 -29c0 -8 -1.5 -14.667 -4.5 -20s-8.33301 -9.5 -16 -12.5s-18.167 -5.16699 -31.5 -6.5s-30.333 -2 -51 -2c-10.667 0 -29 -5.33301 -55 -16c-8 8 -12 28 -12 60
c0 21.333 14.333 55.666 43 102.999c-11.333 10.667 -20 19.5 -26 26.5s-10.333 13 -13 18s-4.33398 10 -5.00098 15s-1 11.167 -1 18.5c0 31.333 8 51 24 59c42.667 -14 76 -21 100 -21c5.33301 0 13.166 0.333008 23.499 1s21.333 1.5 33 2.5s22.667 1.83301 33 2.5
s18.166 1 23.499 1c38 0 64.833 -9.5 80.5 -28.5s23.5 -53.5 23.5 -103.5z" />
    <glyph glyph-name="registered" unicode="&#xae;" 
d="M-53 -261h-181v204h181v-204z" />
    <glyph glyph-name="macron" unicode="&#xaf;" horiz-adv-x="0" 
d="M-56 -201c-32.667 -12.667 -56.666 -35.999 -71.999 -69.999c-12.667 31.333 -36 54.666 -70 69.999c33.333 16.667 56.666 40.667 69.999 72c14.667 -32 38.667 -56 72 -72z" />
    <glyph glyph-name="degree" unicode="&#xb0;" horiz-adv-x="0" 
d="M-52 -110l-70 -146l-23 13l72 146zM-137 -136c0 -17.333 -8.66699 -26 -26 -26s-26 9 -26 27c0 16 8.66699 24 26 24s26 -8.33301 26 -25z" />
    <glyph glyph-name="plusminus" unicode="&#xb1;" horiz-adv-x="0" 
d="M-219 -111l-70 -146l-23 13l72 146zM-304 -132c0 -17.333 -8.66699 -26 -26 -26s-26 9 -26 27c0 16 8.66699 24 26 24s26 -8.33301 26 -25z" />
    <glyph glyph-name="twosuperior" unicode="&#xb2;" horiz-adv-x="0" 
d="M-377 -111l-70 -146l-23 13l72 146zM-462 -137c0 -17.333 -8.66699 -26 -26 -26s-26 9 -26 27c0 16 8.66699 24 26 24s26 -8.33301 26 -25z" />
    <glyph glyph-name="threesuperior" unicode="&#xb3;" horiz-adv-x="0" 
d="M-42 608h-130v-73h-36v171h36v-63h130v-35z" />
    <glyph glyph-name="acute" unicode="&#xb4;" 
d="M-31 -268h-180v204h180v-204zM-46 -249v167h-148v-167h148z" />
    <glyph glyph-name="mu1" unicode="&#xb5;" horiz-adv-x="456" 
d="M399 1h-361v408h361v-408zM368 40v334h-295v-334h295zM342 221v-36h-102v-108h-34v108h-101v36h100v108h36v-108h101z" />
    <glyph glyph-name="paragraph" unicode="&#xb6;" horiz-adv-x="267" 
d="M219 365l-24 -0.000976562v-487h-25v487h-47v-487h-25v259c-15.333 2 -29 6.83301 -41 14.5s-22.167 17.5 -30.5 29.5s-14.833 25.5 -19.5 40.5s-7 30.833 -7 47.5s3.16699 32.334 9.5 47.001s15 27.5 26 38.5s23.833 19.667 38.5 26s30 9.5 46 9.5h99v-25z" />
    <glyph glyph-name="periodcentered" unicode="&#xb7;" horiz-adv-x="184" 
d="M127 126h-66v66h66v-66z" />
    <glyph glyph-name="cedilla" unicode="&#xb8;" horiz-adv-x="184" 
d="M121 118h-55v355h55v-355zM127 0h-67v66h67v-66z" />
    <glyph glyph-name="onesuperior" unicode="&#xb9;" horiz-adv-x="234" 
d="M204 395c0 -11.333 -2 -26 -6 -44l-10 -44h-35c-10 54.667 -15 84 -15 88v78h66v-78zM97 395l-14 -88h-37l-10 44c-4 18 -6 32.667 -6 44v78h67v-78z" />
    <glyph glyph-name="ordmasculine" unicode="&#xba;" horiz-adv-x="368" 
d="M359 130h-99l-27 -138h-50l28 138h-102l-26 -138h-50l28 138h-55v48h66l23 117h-89v49h99l28 138h49l-29 -138h103l27 138h50l-30 -138h56v-49h-65l-24 -117h89v-48zM244 295h-101l-24 -117h103z" />
    <glyph glyph-name="guillemotright" unicode="&#xbb;" horiz-adv-x="368" 
d="M336 134c0 -19.333 -3.33398 -37.6689 -10.001 -55.002s-16 -32.5 -28 -45.5s-26.5 -23.333 -43.5 -31s-35.5 -11.5 -55.5 -11.5v-59h-34v59c-84 4.66699 -131 51.334 -141 140.001l59 11c6.66699 -59.333 34 -93.666 82 -102.999v185c-87.333 16 -131 60.667 -131 134
c0 76 43.667 120 131 132v27h34v-27c72.667 -8 114.667 -47 126 -117l-59 -9c-7.33301 42 -29.666 67 -66.999 75v-166c91.333 -18 137 -64.333 137 -139zM164.999 280.997v159.001c-20.667 0 -38 -7.83301 -52 -23.5s-21 -33.834 -21 -54.501
c0 -41.333 24.333 -68.333 73 -81zM277.999 130.998c0 21.333 -5.5 38.167 -16.5 50.5s-31.833 23.5 -62.5 33.5v-176c24 3.33301 43.167 13.5 57.5 30.5s21.5 37.5 21.5 61.5z" />
    <glyph glyph-name="onequarter" unicode="&#xbc;" horiz-adv-x="588" 
d="M548 108c0 -38 -9 -68.333 -27 -91s-43.333 -34 -76 -34c-32 0 -56.667 11.167 -74 33.5s-26 53.833 -26 94.5c0 38 8.66699 67.833 26 89.5s42 32.5 74 32.5c33.333 0 58.833 -11.833 76.5 -35.5s26.5 -53.5 26.5 -89.5zM447 482l-259 -499h-48l259 499h48zM241 357
c0 -38 -9.00098 -68.333 -27.001 -91s-43.333 -34 -76 -34c-32 0 -56.5 11.5 -73.5 34.5s-25.5 54.167 -25.5 93.5c0 36.667 8.83301 66.167 26.5 88.5s41.834 33.5 72.501 33.5c31.333 0 56.333 -11.5 75 -34.5s28 -53.167 28 -90.5zM496.999 113
c0 53.333 -16.667 80 -50 80c-34.667 0 -52 -31 -52 -93c0 -51.333 17.333 -77 52 -77c33.333 0 50 30 50 90zM188.999 363c0 52.667 -16.333 79 -49 79c-34 0 -51 -29.333 -51 -88c0 -55.333 17 -83 51 -83c32.667 0 49 30.667 49 92z" />
    <glyph glyph-name="onehalf" unicode="&#xbd;" horiz-adv-x="441" 
d="M426 35l-39.0029 -46c-10.667 7.33301 -22.167 16.5 -34.5 27.5s-25.166 24.167 -38.499 39.5c-36.667 -42.667 -82 -64 -136 -64c-20 0 -39 3.33301 -57 10s-34 16.167 -48 28.5s-25 27 -33 44s-12 35.833 -12 56.5c0 60 38 107 114 141c-36 38.667 -54 73.667 -54 105
c0 15.333 3.33301 29.333 10 42s15.334 23.667 26.001 33s23 16.666 37 21.999s28.667 8 44 8c14.667 0 28.667 -2.5 42 -7.5s25 -12 35 -21s18 -19.667 24 -32s9 -25.833 9 -40.5c0 -45.333 -29.667 -83.666 -89 -114.999l85 -110c3.33301 6.66699 6.83301 15.5 10.5 26.5
s7.83398 24.167 12.501 39.5l60 -12c-9.33301 -41.333 -23.333 -75.333 -42 -102c20 -28 44.667 -52.333 74 -73zM255.997 380c0 16 -5.33301 29 -16 39s-24 15 -40 15c-14.667 0 -27 -5.16699 -37 -15.5s-15 -22.833 -15 -37.5c0 -15.333 16.333 -41.333 49 -78
c39.333 23.333 59 49 59 77zM277.997 101l-107 131.999c-54 -31.333 -81 -64.333 -81 -99c0 -12 2.33301 -23.5 7 -34.5s11 -20.667 19 -29s17.333 -15.166 28 -20.499s22 -8 34 -8c18 0 36.667 5.83301 56 17.5s34 25.5 44 41.5z" />
    <glyph glyph-name="threequarters" unicode="&#xbe;" horiz-adv-x="127" 
d="M96 395c-0.666992 -4.66699 -2.33301 -14.168 -5 -28.501s-6.66699 -34.166 -12 -59.499h-36l-14 88v78h67v-78z" />
    <glyph glyph-name="questiondown" unicode="&#xbf;" horiz-adv-x="221" 
d="M197 -139h-42c-76.667 96.667 -115 200 -115 310c0 106.667 38.333 210.334 115 311.001h42c-64.667 -108.667 -97 -212.334 -97 -311.001c0 -104 32.333 -207.333 97 -310z" />
    <glyph glyph-name="Agrave" unicode="&#xc0;" horiz-adv-x="221" 
d="M181 171c0 -109.333 -38.333 -212.667 -115 -310h-42c64 100.667 96 204 96 310c0 26.667 -1.33301 51.167 -4 73.5s-7.5 45.333 -14.5 69s-16.667 48.834 -29 75.501s-28.5 57.667 -48.5 93h42c76.667 -102.667 115 -206.334 115 -311.001z" />
    <glyph glyph-name="Aacute" unicode="&#xc1;" horiz-adv-x="257" 
d="M234 387c-17.333 -6 -44.332 -12.001 -80.999 -18.001c5.33301 -4.66699 12.666 -12 21.999 -22s20.666 -23.333 33.999 -40l-38 -26c-13.333 16.667 -28 39.334 -44 68.001c-14.667 -29.333 -29 -52 -43 -68l-38 26c5.33301 7.33301 12.5 16.166 21.5 26.499
s19.833 22.166 32.5 35.499c-23.333 3.33301 -50 9.33301 -80 18l15 45c32.667 -10 57.334 -20 74.001 -30l-5 80h46c0 -13.333 -0.666992 -26.666 -2 -39.999s-3.33301 -26.666 -6 -39.999c24 11.333 49.667 21.333 77 30z" />
    <glyph glyph-name="Acircumflex" unicode="&#xc2;" horiz-adv-x="387" 
d="M349 207h-127v-131h-56v131h-129v54h129v129h56v-129h127v-54z" />
    <glyph glyph-name="Atilde" unicode="&#xc3;" horiz-adv-x="184" 
d="M125 66v-68c0 -44 -17.667 -74.667 -53 -92l-17 25c22 7.33301 34.333 30.333 37 69h-33v66h66z" />
    <glyph glyph-name="Adieresis" unicode="&#xc4;" horiz-adv-x="221" 
d="M200 142h-180v58h180v-58z" />
    <glyph glyph-name="Aring" unicode="&#xc5;" horiz-adv-x="184" 
d="M127 0h-66v66h66v-66z" />
    <glyph glyph-name="AE" unicode="&#xc6;" horiz-adv-x="184" 
d="M184 482l-137 -490h-47l138 490h46z" />
    <glyph glyph-name="Ccedilla" unicode="&#xc7;" horiz-adv-x="184" 
d="M127 278h-66v66h66v-66zM127 0h-66v66h66v-66z" />
    <glyph glyph-name="Egrave" unicode="&#xc8;" horiz-adv-x="184" 
d="M125 278h-66v66h66v-66zM125 66v-68c0 -44 -17.667 -74.667 -53 -92l-17 25c22 7.33301 34.333 30.333 37 69h-33v66h66z" />
    <glyph glyph-name="Eacute" unicode="&#xc9;" horiz-adv-x="387" 
d="M350 73l-314 135v53l314 132v-57l-249 -103l249 -102v-58z" />
    <glyph glyph-name="Ecircumflex" unicode="&#xca;" horiz-adv-x="387" 
d="M349 278h-312v55h312v-55zM349 134h-312v55h312v-55z" />
    <glyph glyph-name="Edieresis" unicode="&#xcb;" horiz-adv-x="387" 
d="M350 208l-314 -135v58l249 102l-249 103v57l314 -132v-53z" />
    <glyph glyph-name="Igrave" unicode="&#xcc;" horiz-adv-x="368" 
d="M335 353c-0.666992 -16.667 -3.33301 -32.002 -8 -46.002s-12.334 -26 -23.001 -36l-58 -55c-22 -25.333 -34.667 -58.666 -38 -99.999h-55v18c0 16 0.833008 29.167 2.5 39.5s5.5 20.5 11.5 30.5s15 21.167 27 33.5l48 48.5c21.333 20 32 40.667 32 62
c0 24.667 -9 45.167 -27 61.5s-39.333 24.5 -64 24.5c-52 0 -83.333 -32 -94 -96l-60 7c11.333 91.333 62.333 137 153 137c21.333 0 41.333 -3.16699 60 -9.5s34.834 -15.166 48.501 -26.499s24.5 -25 32.5 -41s12 -33.333 12 -52zM215.001 -0.00195312h-66v66h66v-66z" />
    <glyph glyph-name="Iacute" unicode="&#xcd;" horiz-adv-x="671" 
d="M648 6c-10 -22 -24.166 -41.9961 -42.499 -59.9961s-40 -33.167 -65 -45.5s-52.667 -22 -83 -29s-62.166 -10.5 -95.499 -10.5c-50 0 -95.167 6.5 -135.5 19.5s-74.5 32 -102.5 57s-49.667 55.5 -65 91.5s-23 77 -23 123c0 48 7.83301 92.167 23.5 132.5
s37.5 75.333 65.5 105s61.667 52.667 101 69s82.666 24.5 129.999 24.5c39.333 0 75.833 -6.33301 109.5 -19s62.667 -30.334 87 -53.001s43.5 -49.334 57.5 -80.001s21 -64.334 21 -101.001c0 -28.667 -5.33301 -56.834 -16 -84.501s-24.834 -52.5 -42.501 -74.5
s-38.167 -39.667 -61.5 -53s-47.666 -20 -72.999 -20c-22 0 -38 4.5 -48 13.5s-15 22.833 -15 41.5c-30 -36.667 -63 -55 -99 -55c-16.667 0 -32.167 4 -46.5 12s-26.666 18.667 -36.999 32s-18.5 28.833 -24.5 46.5s-9 36.167 -9 55.5c0 24.667 4.5 49.5 13.5 74.5
s21.167 47.167 36.5 66.5s33.166 35.166 53.499 47.499s41.833 18.5 64.5 18.5c38 0 70.667 -20 98 -60l11 49h57l-24 -110.5l-32 -155.5l6 -15l17 -6c15.333 0 30.5 5.83301 45.5 17.5s28.333 26.5 40 44.5s21.167 37.5 28.5 58.5s11 40.5 11 58.5
c0 28.667 -6.16699 55.334 -18.5 80.001s-29 46.167 -50 64.5s-45.5 32.833 -73.5 43.5s-57.667 16 -89 16c-39.333 0 -75.666 -7.16699 -108.999 -21.5s-62 -34 -86 -59s-42.667 -54.5 -56 -88.5s-20 -71 -20 -111c0 -39.333 6.66699 -74.333 20 -105
s32.166 -56.5 56.499 -77.5s53.666 -37 87.999 -48s72.5 -16.5 114.5 -16.5c106 0 182 32.333 228 97h58zM406.001 210.004c0 26.667 -6.83008 48.668 -20.4971 66.001s-31.834 26 -54.501 26c-15.333 0 -29.833 -4.66699 -43.5 -14s-25.5 -21.5 -35.5 -36.5
s-18 -32.167 -24 -51.5s-9 -39 -9 -59c0 -12 1.66699 -23.667 5 -35s8.16602 -21.333 14.499 -30s13.666 -15.667 21.999 -21s17.5 -8 27.5 -8c16 0 31.167 4.66699 45.5 14s26.833 21.666 37.5 36.999s19.167 32.833 25.5 52.5s9.5 39.5 9.5 59.5z" />
    <glyph glyph-name="Icircumflex" unicode="&#xce;" horiz-adv-x="184" 
d="M174 -131h-129v604h129v-47h-71v-509h71v-48z" />
    <glyph glyph-name="Idieresis" unicode="&#xcf;" horiz-adv-x="184" 
d="M184 -8h-46l-138 490h47z" />
    <glyph glyph-name="Eth" unicode="&#xd0;" horiz-adv-x="184" 
d="M142 -131h-129v48h70v509h-70v47h129v-604z" />
    <glyph glyph-name="Ntilde" unicode="&#xd1;" horiz-adv-x="311" 
d="M293 222h-59l-79 194l-78 -194h-60l114 260h47z" />
    <glyph glyph-name="Ograve" unicode="&#xd2;" horiz-adv-x="368" 
d="M376 -131h-385v41h385v-41z" />
    <glyph glyph-name="Oacute" unicode="&#xd3;" horiz-adv-x="221" 
d="M150 386h-47l-75 90h79z" />
    <glyph glyph-name="Ocircumflex" unicode="&#xd4;" horiz-adv-x="222" 
d="M205 -139l-20.9971 0.00195312c-19.333 0 -35.333 2.16699 -48 6.5s-22.834 12.666 -30.501 24.999s-13 29.666 -16 51.999s-4.5 51.833 -4.5 88.5c0 42.667 -5 72 -15 88s-27.333 24 -52 24v53c25.333 0 43.166 10.333 53.499 31s14.5 51.667 12.5 93v7.5
c0 2.33301 -0.333008 5.16602 -1 8.49902v10c0 49.333 8.5 84 25.5 104s45.5 30 85.5 30h11v-50c-45.333 0 -68 -24 -68 -72c0 -4 0.166992 -8.83301 0.5 -14.5s0.666016 -11.834 0.999023 -18.501s0.666016 -12.834 0.999023 -18.501s0.5 -10.5 0.5 -14.5
c0 -58.667 -22.667 -99.667 -68 -123c12.667 -5.33301 23.334 -11.666 32.001 -18.999s15.5 -17.166 20.5 -29.499s8.5 -28.5 10.5 -48.5s3 -45.333 3 -76c0 -21.333 1 -37.833 3 -49.5s5.5 -20.167 10.5 -25.5s11.833 -8.66602 20.5 -9.99902s19.667 -2 33 -2v-50z" />
    <glyph glyph-name="Otilde" unicode="&#xd5;" horiz-adv-x="172" 
d="M112 -139h-51v621h51v-621z" />
    <glyph glyph-name="Odieresis" unicode="&#xd6;" horiz-adv-x="222" 
d="M202 145c-44 0 -65.9971 -29.333 -65.9971 -88c0 -4 0.166992 -9 0.5 -15s0.666016 -12.333 0.999023 -19s0.666016 -13 0.999023 -19s0.5 -11 0.5 -15c0 -44.667 -9.5 -77.167 -28.5 -97.5s-50.5 -30.5 -94.5 -30.5v50c46 0 69 28 69 84v-2v4
c0 1.33301 -0.166992 3.83301 -0.5 7.5s-0.5 9 -0.5 16v28.5c0 64 21.667 104.667 65 122c-44 18.667 -66 58.667 -66 120c0 7.33301 0.333008 17.833 1 31.5s1 24.167 1 31.5c0 52 -23 78 -69 78v50h17c49.333 0 80.666 -19 93.999 -57c5.33301 -18 8 -58 8 -120
c0 -40 5.33301 -67.5 16 -82.5s27.667 -23.167 51 -24.5v-53z" />
    <glyph glyph-name="multiply" unicode="&#xd7;" horiz-adv-x="387" 
d="M358 218c-24 -24.667 -53.665 -36.998 -88.998 -36.998c-7.33301 0 -18.333 2.16699 -33 6.5s-29.834 9.16602 -45.501 14.499s-30.834 10.166 -45.501 14.499s-25.667 6.5 -33 6.5c-20.667 0 -48.667 -14.333 -84 -43v66c22 26 52 39 90 39c8 0 19.167 -2.33301 33.5 -7
l45 -15l45 -15c14.333 -4.66699 25.5 -7 33.5 -7c27.333 0 55 15 83 45v-68z" />
    <glyph glyph-name="Oslash" unicode="&#xd8;" horiz-adv-x="6" 
 />
    <glyph glyph-name="Ugrave" unicode="&#xd9;" horiz-adv-x="324" 
d="M274 262c0 -14.667 -2.83105 -28.6689 -8.49805 -42.002s-13.334 -25.166 -23.001 -35.499s-21.167 -18.666 -34.5 -24.999s-27.333 -9.5 -42 -9.5c-16 0 -30.833 3 -44.5 9s-25.834 14 -36.501 24s-19 21.833 -25 35.5s-9 28.167 -9 43.5s3.16699 30 9.5 44
s14.666 26.167 24.999 36.5s22.5 18.5 36.5 24.5s28.667 9 44 9c14.667 0 28.667 -3 42 -9s24.833 -14.167 34.5 -24.5s17.334 -22.5 23.001 -36.5s8.5 -28.667 8.5 -44zM253.002 261.998c0 24 -8.50098 44.667 -25.501 62s-37.5 26 -61.5 26s-44.333 -8.66699 -61 -26
s-25 -38 -25 -62c0 -12 2.33301 -23.333 7 -34s10.834 -20 18.501 -28s16.667 -14.333 27 -19s21.5 -7 33.5 -7s23.167 2.33301 33.5 7s19.5 11 27.5 19s14.333 17.333 19 28s7 22 7 34z" />
    <glyph glyph-name="Uacute" unicode="&#xda;" horiz-adv-x="312" 
d="M259 -133h-244v49h80v510h-80v45h244v-604zM215 -84v510h-76v-510h76z" />
    <glyph glyph-name="Ucircumflex" unicode="&#xdb;" 
d="M-377 -115l-82 -64l80 -62l-12 -17l-100 80l102 84z" />
    <glyph glyph-name="Udieresis" unicode="&#xdc;" 
d="M-233 -115l-82 -64l81 -62l-13 -17l-100 80l102 84z" />
    <glyph glyph-name="Yacute" unicode="&#xdd;" 
d="M-39 -117l-86 -64l84 -62l-12 -21l-109 84l111 84z" />
    <glyph glyph-name="Thorn" unicode="&#xde;" 
d="M-349 -241l-23 -13l-62 146l23 13z" />
    <glyph glyph-name="germandbls" unicode="&#xdf;" 
d="M-200 -252l-21 -13l-63 146l22 13z" />
    <glyph glyph-name="agrave" unicode="&#xe0;" 
d="M-67 -245l-21 -13l-72 146l23 13z" />
    <glyph glyph-name="aacute" unicode="&#xe1;" 
d="M-271 -104l-83 -140l-80 138l19 13l60 -101l67 105z" />
    <glyph glyph-name="acircumflex" unicode="&#xe2;" horiz-adv-x="0" 
d="M87 -243l-21 -13l-72 146l23 13z" />
    <glyph glyph-name="atilde" unicode="&#xe3;" 
d="M-152 563h-182v41h182v-41z" />
    <glyph glyph-name="adieresis" unicode="&#xe4;" 
d="M-382 -246h-107v24h81v124h26v-148z" />
    <glyph glyph-name="aring" unicode="&#xe5;" 
d="M-233 -254h-89v24h62v124h27v-148z" />
    <glyph glyph-name="ae" unicode="&#xe6;" 
d="M-70 -246h-108v24h81v124h27v-148z" />
    <glyph glyph-name="ccedilla" unicode="&#xe7;" horiz-adv-x="0" 
d="M-382 -111l-83 -141l-80 139l19 13l60 -101l67 104z" />
    <glyph glyph-name="egrave" unicode="&#xe8;" horiz-adv-x="102" 
d="M41 687c0 -15.333 -8 -23 -24 -23c-15.333 0 -23 7.33301 -23 22c0 16 7.66699 24 23 24c16 0 24 -7.66699 24 -23zM96 578c0 -15.333 -8 -23 -24 -23c-15.333 0 -23 7.33301 -23 22c0 16 7.66699 24 23 24c16 0 24 -7.66699 24 -23zM-14 578c0 -15.333 -8 -23 -24 -23
s-24 7.33301 -24 22c0 16 8 24 24 24s24 -7.66699 24 -23z" />
    <glyph glyph-name="eacute" unicode="&#xe9;" horiz-adv-x="65" 
d="M40 653l0.000976562 -73h-27v71c0 24.667 -12.667 37 -38 37c-20.667 0 -39.334 -13.333 -56.001 -40c-5.33301 0 -8 4 -8 12c0 16.667 6.5 30.667 19.5 42s27.833 17 44.5 17c43.333 0 65 -22 65 -66z" />
    <glyph glyph-name="ecircumflex" unicode="&#xea;" 
d="M-218 687c0 -15.333 -7.66699 -23 -23 -23c-16 0 -24 8 -24 24c0 14.667 8 22 24 22c15.333 0 23 -7.66699 23 -23zM-218 578c0 -15.333 -7.66699 -23 -23 -23c-16 0 -24 8 -24 24c0 14.667 8 22 24 22c15.333 0 23 -7.66699 23 -23z" />
    <glyph glyph-name="edieresis" unicode="&#xeb;" 
d="M-85 687c0 -15.333 -7.66699 -23 -23 -23c-16 0 -24 8 -24 24c0 14.667 8 22 24 22c15.333 0 23 -7.66699 23 -23zM-85 578c0 -15.333 -7.66699 -23 -23 -23c-16 0 -24 8 -24 24c0 14.667 8 22 24 22c15.333 0 23 -7.66699 23 -23z" />
    <glyph glyph-name="igrave" unicode="&#xec;" 
d="M-188 562h-123v26h96v124h27v-150z" />
    <glyph glyph-name="iacute" unicode="&#xed;" 
d="M-58 562h-113v26h87v124h26v-150z" />
    <glyph glyph-name="icircumflex" unicode="&#xee;" 
d="M-379 -111l-61 -146l-23 13l63 146z" />
    <glyph glyph-name="idieresis" unicode="&#xef;" 
d="M-229 -111l-62 -146l-23 13l62 146z" />
    <glyph glyph-name="eth" unicode="&#xf0;" 
d="M-62 -118l-72 -146l-21 13l70 146z" />
    <glyph glyph-name="ntilde" unicode="&#xf1;" 
d="M-164 691l-82 -64l80 -62l-12 -21l-118 84l120 84z" />
    <glyph glyph-name="ograve" unicode="&#xf2;" 
d="M-48 691l-82 -64l80 -62l-13 -21l-117 84l119 84z" />
    <glyph glyph-name="oacute" unicode="&#xf3;" 
d="M-374 -213c0 -32.667 -17.668 -48.998 -53.001 -48.998h-55v21h-2c2 0 4.83301 -0.166992 8.5 -0.5s14.834 -0.5 33.501 -0.5c38 0 57 9.66699 57 29c0 9.33301 -5 15.333 -15 18s-20.833 5.16699 -32.5 7.5s-22.5 6 -32.5 11s-15 14.833 -15 29.5
c0 13.333 4.66699 24.166 14 32.499s20.666 12.5 33.999 12.5h55v-21c-4 0 -10.167 0.333008 -18.5 1s-14.5 1 -18.5 1c-36 0 -54 -8.66699 -54 -26c0 -6 3.83301 -10.667 11.5 -14s15.834 -5.83301 24.501 -7.5s16.5 -2.66699 23.5 -3s10.167 -0.5 9.5 -0.5
c16.667 -6.66699 25 -20.334 25 -41.001z" />
    <glyph glyph-name="ocircumflex" unicode="&#xf4;" 
d="M-225 -212c0 -26.667 -13.666 -40 -40.999 -40h-49v22h55c8 0 14 6 18 18c3.33301 10 -0.333984 17.667 -11.001 23l-34 13c-16 8 -24 21 -24 39c0 30 15.333 45 46 45h29v-19c1.33301 0 -0.166992 0.333008 -4.5 1s-8.5 1 -12.5 1c-28 0.666992 -42 -5.33301 -42 -18
s1 -20.5 3 -23.5s16 -9.16699 42 -18.5c16.667 -8 25 -22.333 25 -43z" />
    <glyph glyph-name="otilde" unicode="&#xf5;" 
d="M-49 -220c0 -26.667 -17.667 -40.002 -53 -40.002h-56v22h70c18 0 27 6 27 18c0 10.667 -9.33301 19 -28 25l-41 12c-16 6.66699 -24 19.334 -24 38.001c0 30 15.333 45 46 45h56v-19c-4 0.666992 -9 1.16699 -15 1.5s-13.333 0.5 -22 0.5c-36 0 -54 -9.33301 -54 -28
c0 -5.33301 3.83301 -10.166 11.5 -14.499s16 -8 25 -11s17 -5 24 -6s9.83301 -1.16699 8.5 -0.5c16.667 -8 25 -22.333 25 -43z" />
    <glyph glyph-name="odieresis" unicode="&#xf6;" horiz-adv-x="0" 
d="M-49 -114l-82 -141l-80 139l19 13l60 -101l67 105z" />
    <glyph glyph-name="divide" unicode="&#xf7;" horiz-adv-x="0" 
d="M-83 705l-68 -147l-22 12l67 146z" />
    <glyph glyph-name="oslash" unicode="&#xf8;" horiz-adv-x="0" 
d="M-206 705l-68 -147l-22 12l67 146z" />
    <glyph glyph-name="ugrave" unicode="&#xf9;" horiz-adv-x="0" 
d="M-44 701l-84 -147l-23 12l84 146zM-116 701l-84 -147l-23 12l86 146z" />
    <glyph glyph-name="uacute" unicode="&#xfa;" horiz-adv-x="0" 
d="M-135 701l-84 -147l-23 12l84 146zM-207 701l-84 -147l-23 12l86 146z" />
    <glyph glyph-name="ucircumflex" unicode="&#xfb;" horiz-adv-x="140" 
d="M19 613c-14 8.66699 -22.667 21.334 -26 38.001c-2.66699 16.667 0.5 31.667 9.5 45s21.833 21.666 38.5 24.999c18 2.66699 33.5 -0.333008 46.5 -9s21.167 -22 24.5 -40c2.66699 -16 -1.33301 -31.167 -12 -45.5s-24 -22.833 -40 -25.5
c-2 -0.666992 -8.66699 -1 -20 -1l-21 -49l-23 8zM5 655c2 -13.333 8.49902 -23.832 19.499 -31.499s23.167 -10.5 36.5 -8.5c12.667 2.66699 22.834 9.33398 30.501 20.001s10.167 23 7.5 37c-2 13.333 -8.5 23.666 -19.5 30.999s-22.833 10 -35.5 8
c-13.333 -2.66699 -23.833 -9.33398 -31.5 -20.001s-10.167 -22.667 -7.5 -36z" />
    <glyph glyph-name="udieresis" unicode="&#xfc;" horiz-adv-x="0" 
d="M-241 603c-14 8.66699 -22.667 21.334 -26 38.001c-2.66699 16.667 0.5 31.667 9.5 45s21.833 21.666 38.5 24.999c18 2.66699 33.5 -0.333008 46.5 -9s21.167 -22 24.5 -40c2.66699 -16 -1.33301 -31.167 -12 -45.5s-24 -22.833 -40 -25.5
c-2 -0.666992 -8.66699 -1 -20 -1l-21 -49l-23 8zM-255 645c2 -13.333 8.49902 -23.832 19.499 -31.499s23.167 -10.5 36.5 -8.5c12.667 2.66699 22.834 9.33398 30.501 20.001s10.167 23 7.5 37c-2 13.333 -8.5 23.666 -19.5 30.999s-22.833 10 -35.5 8
c-13.333 -2.66699 -23.833 -9.33398 -31.5 -20.001s-10.167 -22.667 -7.5 -36z" />
    <glyph glyph-name="yacute" unicode="&#xfd;" 
d="M-422 -108l-75 -146l-23 13l77 146zM-492 -108l-77 -146l-21 13l75 146z" />
    <glyph glyph-name="thorn" unicode="&#xfe;" horiz-adv-x="0" 
d="M-191 225c0 -18.667 -10.667 -28 -32 -28c-8 0 -14.833 3.33301 -20.5 10s-8.5 14 -8.5 22c0 18.667 10.333 28 31 28c20 0 30 -10.667 30 -32z" />
    <glyph glyph-name="ydieresis" unicode="&#xff;" horiz-adv-x="0" 
d="M-195 -201c-32.667 -12.667 -56.666 -35.999 -71.999 -69.999c-12.667 31.333 -36 54.666 -70 69.999c33.333 16.667 56.666 40.667 69.999 72c14.667 -32 38.667 -56 72 -72z" />
    <glyph glyph-name="OE" unicode="&#x152;" horiz-adv-x="179" 
d="M148 461c0 -2.66699 -2.66895 -8.66797 -8.00195 -18.001s-12.166 -20.5 -20.499 -33.5l-27 -41l-27.5 -39.5c-8.66699 -12 -16.334 -22 -23.001 -30s-10.667 -12 -12 -12c-5.33301 0 -8 2.66699 -8 8c0 -1.33301 1.83301 2 5.5 10s8 18.333 13 31l17 42l18 43
c5.66699 13.333 10.334 24.833 14.001 34.5s5.83398 14.834 6.50098 15.501c4.66699 10 13.667 15 27 15c16.667 0 25 -8.33301 25 -25z" />
    <glyph glyph-name="oe" unicode="&#x153;" horiz-adv-x="312" 
d="M270 -133h-244v604h244v-45h-80v-510h80v-49zM146 -84v510h-76v-510h76z" />
    <glyph glyph-name="Scaron" unicode="&#x160;" 
d="M-486 -213c0 -32.667 -17.668 -49.001 -53.001 -49.001h-55v21h-2h3.5c1 0 2.83301 -0.166992 5.5 -0.5s6.66699 -0.5 12 -0.5h22c37.333 0 56 9.66699 56 29c0 9.33301 -5 15.333 -15 18s-20.833 5.16699 -32.5 7.5s-22.5 6 -32.5 11s-15 14.833 -15 29.5
c0 12.667 4.83301 23.334 14.5 32.001s20.834 13 33.501 13h55v-21c-4 0 -10 0.333008 -18 1s-14 1 -18 1c-36.667 0 -55 -8.66699 -55 -26c0 -6 3.83301 -10.667 11.5 -14s16 -5.83301 25 -7.5s17 -2.66699 24 -3s10.167 -0.5 9.5 -0.5c16 -7.33301 24 -21 24 -41z" />
    <glyph glyph-name="scaron" unicode="&#x161;" 
d="M-216 569c0 -18 -6.16699 -33.5 -18.5 -46.5s-27.5 -19.5 -45.5 -19.5s-33.833 6.5 -47.5 19.5s-20.5 28.5 -20.5 46.5s6.83301 33.667 20.5 47s29.5 20 47.5 20s33.167 -6.66699 45.5 -20s18.5 -29 18.5 -47zM-228 569c0 14 -5.16699 26.167 -15.5 36.5
s-22.5 15.5 -36.5 15.5s-26 -5.16699 -36 -15.5s-15 -22.5 -15 -36.5s5 -26.167 15 -36.5s22 -15.5 36 -15.5s26.167 5.16699 36.5 15.5s15.5 22.5 15.5 36.5z" />
    <glyph glyph-name="Ydieresis" unicode="&#x178;" horiz-adv-x="226" 
d="M38 1h-36v482h36v-482z" />
    <glyph glyph-name="zcaron" unicode="&#x17e;" horiz-adv-x="255" 
d="M48 85c0 -19.333 0.833008 -34.833 2.5 -46.5s6 -20.667 13 -27s17.667 -10.5 32 -12.5s34.166 -3 59.499 -3c52 0 78 13.333 78 40c0 25.333 -4.5 42.833 -13.5 52.5s-25.167 15.167 -48.5 16.5c-18.667 0.666992 -33.667 2 -45 4s-20.166 8.66699 -26.499 20
s-10.5 30 -12.5 56s-0.666992 63.333 4 112c0 18.667 11.333 30.334 34 35.001c13.333 3.33301 25 6.66602 35 9.99902l28 25l1 13c0 9.33301 -0.833008 18.833 -2.5 28.5s-4 18.5 -7 26.5s-6.33301 14.667 -10 20s-7.5 8.33301 -11.5 9c-17.333 -10 -35 -17.333 -53 -22
s-43.333 -7.33398 -76 -8.00098c-12 -4 -14.667 -37.667 -8 -101c28 2.66699 40.667 -8.66602 38 -33.999c-7.33301 -52 -11 -123.333 -11 -214zM131 513c0 -10 -3.83301 -18.833 -11.5 -26.5s-16.834 -11.5 -27.501 -11.5s-19.667 3.83301 -27 11.5s-11 16.5 -11 26.5
c0 10.667 3.66699 19.834 11 27.501s16.333 11.5 27 11.5s19.834 -3.83301 27.501 -11.5s11.5 -16.834 11.5 -27.501z" />
    <glyph glyph-name="circumflex" unicode="&#x2c6;" horiz-adv-x="0" 
d="M-487 -111l-70 -146l-23 13l72 146zM-572 -137c0 -17.333 -8.66699 -26 -26 -26s-26 9 -26 27c0 16 8.66699 24 26 24s26 -8.33301 26 -25z" />
    <glyph glyph-name="tilde" unicode="&#x2dc;" 
d="M-207 570c0 -13.333 -4.33301 -24 -13 -32s-19.667 -12 -33 -12s-24.5 4.5 -33.5 13.5s-13.5 20.167 -13.5 33.5c0 30.667 14.667 46 44 46c14 0 25.667 -4.66699 35 -14s14 -21 14 -35z" />
    <glyph glyph-name="endash" unicode="&#x2013;" horiz-adv-x="0" 
d="M-41 -104l-75 -146l-23 13l77 146zM-111 -104l-77 -146l-21 13l75 146z" />
    <glyph glyph-name="emdash" unicode="&#x2014;" horiz-adv-x="0" 
d="M-483 -108l-82 -140l-80 138l19 13l60 -101l67 105z" />
    <glyph glyph-name="quoteleft" unicode="&#x2018;" horiz-adv-x="70" 
d="M38 570l-22 -12l-68 147l23 11z" />
    <glyph glyph-name="quoteright" unicode="&#x2019;" horiz-adv-x="0" 
d="M-189 570l-22 -12l-68 147l23 11z" />
    <glyph glyph-name="quotesinglbase" unicode="&#x201a;" horiz-adv-x="456" 
d="M392 53c0 -33.333 -12.3311 -51.3301 -36.998 -53.9971c-8 4.66699 -14.333 11 -19 19l-14 24c-5.33301 7.33301 -17.833 20.666 -37.5 39.999l-81.5 77c-68.667 62.667 -106.667 94 -114 94c-14.667 0 -22 -12.333 -22 -37c0 -9.33301 14.333 -32.333 43 -69
c29.333 -37.333 44 -66 44 -86c0 -42.667 -39.333 -64 -118 -64l-20 5l-5 16l12.5 15.5l17.5 22.5c0 0.666992 -2 4.33398 -6 11.001s-8.16699 14.834 -12.5 24.501s-8.33301 19.667 -12 30s-5.5 19.166 -5.5 26.499c0 41.333 23 81.666 69 120.999l-43 56
c-18.667 24.667 -28 46 -28 64c0 19.333 4.66699 36.166 14 50.499s21.666 22.166 36.999 23.499c4.66699 -4.66699 14 -15.167 28 -31.5l47 -54l53.5 -58.5c18.333 -19.333 34.166 -34.666 47.499 -45.999c25.333 21.333 38 39.333 38 54c0 9.33301 -8.66699 22 -26 38
l-3 21c0 48 15 76 45 84c1.33301 -0.666992 7 -6 17 -16l32.5 -33l32.5 -34c10 -10.667 16 -17.334 18 -20.001c0 -62 -13 -93 -39 -93c-10 0 -26 10 -48 30c-10 0 -19.5 -5.5 -28.5 -16.5s-13.5 -21.5 -13.5 -31.5c4 -6.66699 11.333 -15.667 22 -27l34 -35l34 -34
c10.667 -10.667 18 -19 22 -25c16.667 -24.667 25 -52 25 -82zM251.002 38.0029c0 -16.667 -8.66699 -25 -26 -25c-18 0 -27 8.66699 -27 26c0 16.667 9 25 27 25c17.333 0 26 -8.66699 26 -26z" />
    <glyph glyph-name="quotedblleft" unicode="&#x201c;" horiz-adv-x="0" 
d="M-62 570l-22 -12l-68 147l23 11z" />
    <glyph glyph-name="quotedblright" unicode="&#x201d;" horiz-adv-x="0" 
d="M-282 562l-23 -6l-17 51c-11.333 0.666992 -18 1.33398 -20 2.00098c-15.333 4 -27.666 13.667 -36.999 29s-12 30.666 -8 45.999c4.66699 17.333 14 29.833 28 37.5s29.667 9.16699 47 4.5c16 -4 28 -13.167 36 -27.5s9.66699 -29.5 5 -45.5
c-4.66699 -16.667 -14.334 -28.667 -29.001 -36zM-316 717c-12.667 3.33301 -24.834 1.66602 -36.501 -5.00098s-19.167 -16.334 -22.5 -29.001c-3.33301 -13.333 -1.66602 -25.833 5.00098 -37.5s16.334 -19.167 29.001 -22.5s24.834 -1.66602 36.501 5.00098
s19.167 16.667 22.5 30c3.33301 12.667 1.66602 24.834 -5.00098 36.501s-16.334 19.167 -29.001 22.5z" />
    <glyph glyph-name="quotedblbase" unicode="&#x201e;" horiz-adv-x="368" 
d="M216 204c0 -18.667 -10.667 -28 -32 -28c-8 0 -14.833 3.33301 -20.5 10s-8.5 14 -8.5 22c0 18.667 10.333 28 31 28c20 0 30 -10.667 30 -32z" />
    <glyph glyph-name="dagger" unicode="&#x2020;" horiz-adv-x="0" 
d="M-556 -254h-26v149h26v-149z" />
    <glyph glyph-name="daggerdbl" unicode="&#x2021;" horiz-adv-x="0" 
d="M-163 608h-129v-73h-36v171h36v-63h129v-35z" />
    <glyph glyph-name="bullet" unicode="&#x2022;" horiz-adv-x="0" 
d="M-73 560l-23 -6l-17 51c-11.333 0.666992 -18 1.33398 -20 2.00098c-15.333 4 -27.666 13.667 -36.999 29s-12 30.666 -8 45.999c4.66699 17.333 14 29.833 28 37.5s29.667 9.16699 47 4.5c16 -4 28 -13.167 36 -27.5s9.66699 -29.5 5 -45.5
c-4.66699 -16.667 -14.334 -28.667 -29.001 -36zM-107 715c-12.667 3.33301 -24.834 1.66602 -36.501 -5.00098s-19.167 -16.334 -22.5 -29.001c-3.33301 -13.333 -1.66602 -25.833 5.00098 -37.5s16.334 -19.167 29.001 -22.5s24.834 -1.66602 36.501 5.00098
s19.167 16.667 22.5 30c3.33301 12.667 1.66602 24.834 -5.00098 36.501s-16.334 19.167 -29.001 22.5z" />
    <glyph glyph-name="ellipsis" unicode="&#x2026;" horiz-adv-x="101" 
d="M92 -89l-86 -64l84 -62l-12 -21l-109 84l111 84z" />
    <glyph glyph-name="perthousand" unicode="&#x2030;" 
d="M-481 -239l-19 -13l-60 101l-67 -105l-16 15l82 141z" />
    <glyph glyph-name="guilsinglleft" unicode="&#x2039;" horiz-adv-x="0" 
d="M-62 646c0 -17.333 -6 -32.501 -18 -45.501s-26.667 -19.5 -44 -19.5c-18 0 -33.667 6.33301 -47 19s-20 28 -20 46s6.66699 33.5 20 46.5s29 19.5 47 19.5c17.333 0 32 -6.66699 44 -20s18 -28.666 18 -45.999zM-74 645.999c0 13.333 -5 25.168 -15 35.501
s-21.667 15.5 -35 15.5c-14 0 -25.833 -5 -35.5 -15s-14.5 -22 -14.5 -36s4.83301 -26 14.5 -36s21.5 -15 35.5 -15c13.333 0 25 5.16699 35 15.5s15 22.166 15 35.499z" />
    <glyph glyph-name="guilsinglright" unicode="&#x203a;" 
d="M-73 568c0 -18 -5.99902 -33.667 -17.999 -47s-27 -20 -45 -20c-18.667 0 -34.667 6.5 -48 19.5s-20 28.833 -20 47.5s6.66699 34.5 20 47.5s29.333 19.5 48 19.5c17.333 0 32.166 -6.83301 44.499 -20.5s18.5 -29.167 18.5 -46.5zM-84.999 568c0 14 -5 26.167 -15 36.5
s-22 15.5 -36 15.5s-26 -5.16699 -36 -15.5s-15 -22.5 -15 -36.5s5 -26.333 15 -37s22 -16 36 -16s26 5.33301 36 16s15 23 15 37z" />
    <glyph glyph-name="Euro" unicode="&#x20ac;" horiz-adv-x="0" 
d="M-57 579c-32.667 -12.667 -56.666 -35.999 -71.999 -69.999c-12.667 31.333 -36 54.666 -70 69.999c33.333 16.667 56.666 40.667 69.999 72c14.667 -32 38.667 -56 72 -72z" />
    <glyph glyph-name="trademark" unicode="&#x2122;" horiz-adv-x="0" 
d="M-103 571c0 -12.667 -4.33301 -23.167 -13 -31.5s-19.334 -12.5 -32.001 -12.5c-13.333 0 -24.666 4.5 -33.999 13.5s-14 20.167 -14 33.5c0 30 14.667 45 44 45c14 0 25.667 -4.5 35 -13.5s14 -20.5 14 -34.5z" />
  </font>
</defs>
</svg>
