<?xml version="1.0" standalone="no"?>
<!DOCTYPE svg PUBLIC "-//W3C//DTD SVG 1.1//EN" "http://www.w3.org/Graphics/SVG/1.1/DTD/svg11.dtd" >
<svg>
<metadata>
Created by FontForge 20090914 at Sun Jul  5 09:59:32 2015
 By www-data
</metadata>
<defs>
<font id="CopticNormal" horiz-adv-x="0" >
  <font-face 
    font-family="Coptic"
    font-weight="400"
    font-stretch="normal"
    units-per-em="4096"
    panose-1="2 11 114 0 0 0 0 0 0 0"
    ascent="3276"
    descent="-820"
    x-height="1774"
    cap-height="2515"
    bbox="-1089 -954 2691 2752"
    underline-thickness="50"
    underline-position="-75"
    unicode-range="U+0020-U+2021"
  />
<missing-glyph horiz-adv-x="3072" 
d="M512 0v2560h2048v-2560h-2048zM2496 64v2432h-1920v-2432h1920z" />
    <glyph glyph-name=".notdef" horiz-adv-x="3072" 
d="M512 0v2560h2048v-2560h-2048zM2496 64v2432h-1920v-2432h1920z" />
    <glyph glyph-name="space" unicode=" " horiz-adv-x="1638" 
 />
    <glyph glyph-name="exclam" unicode="!" 
 />
    <glyph glyph-name="quotedbl" unicode="&#x22;" 
d="M-216 2322h192c31.333 0 54.833 -15.667 70.5 -47s23.5 -68.666 23.5 -112c0 -45.333 -8 -84 -24 -116s-39.333 -48 -70 -48h-192c-31.333 0 -55.666 16.167 -72.999 48.5s-26 70.833 -26 115.5c0 43.333 8.66699 80.666 26 112c17.333 31.333 41.666 47 72.999 47z
M-990 2322h192c31.333 0 54.833 -15.667 70.5 -47s23.5 -68.666 23.5 -112c0 -45.333 -8 -84 -24 -116s-39.333 -48 -70 -48h-192c-31.333 0 -55.666 16.167 -72.999 48.5s-26 70.833 -26 115.5c0 43.333 8.66699 80.666 26 112c17.333 31.333 41.666 47 72.999 47z" />
    <glyph glyph-name="numbersign" unicode="#" horiz-adv-x="2458" 
d="M1008 193c64 -14 143.326 -21.001 237.993 -21.001c70 0 175.5 6.16699 316.5 18.5s249.833 18.5 326.5 18.5c264.667 0 466.667 -69.667 606 -209c24.667 -57.333 37 -88.666 37 -93.999c0 -18 -12.333 -40 -37 -66l-549 33c-63.333 122.667 -243.666 184 -540.999 184
c-116 0 -268.667 -9.5 -458 -28.5s-308.333 -28.5 -357 -28.5c-54.667 -68 -179 -102 -373 -102c-22.667 0 -54 0.666992 -94 2s-67.333 2 -82 2c0 56.667 37.167 119.167 111.5 187.5s180 139 317 212s304.833 147.5 503.5 223.5s415 148 649 216c6 6 9 10.333 9 13
c0 13.333 -39.667 20 -119 20h-148c-167.333 0 -311.166 14.5 -431.499 43.5s-201.833 89.5 -244.5 181.5c26 35.333 109.5 83.833 250.5 145.5l387.5 174c117.333 54.333 194.333 109.166 231 164.499c-68.667 16 -176.667 24 -324 24
c-42.667 0 -111.334 -0.666992 -206.001 -2s-166.667 -2 -216 -2c-210 0 -369.667 15 -479 45c-87.333 22 -131 150.333 -131 385h516c59.333 -152.667 246.333 -229 561 -229c60.667 0 145.334 4.5 254.001 13.5s207.334 17.833 296.001 26.5
s169.834 15.834 243.501 21.501s149.167 8.5 226.5 8.5c0 -76 -54.167 -162.167 -162.5 -258.5s-246.666 -190 -414.999 -281s-340.166 -169.5 -515.499 -235.5c266.667 0 497.834 -17.667 693.501 -53s293.5 -80.333 293.5 -135c0 -10.667 -7 -23 -21 -37
c-44.667 -44 -163.5 -107.333 -356.5 -190l-533.5 -229c-162.667 -70 -253.667 -124 -273 -162zM331.993 2322c-36.667 0 -65.666 10.001 -86.999 30.001s-32 43 -32 69c0 24.667 10.5 46.5 31.5 65.5s50.167 28.5 87.5 28.5h1836c39.333 0 68.666 -9.33301 87.999 -28
c20 -19.333 30 -41.333 30 -66c0 -26.667 -10.167 -49.834 -30.5 -69.501s-49.5 -29.5 -87.5 -29.5h-1836z" />
    <glyph glyph-name="dollar" unicode="$" 
 />
    <glyph glyph-name="percent" unicode="%" horiz-adv-x="1966" 
d="M324 2322c-36.667 0 -65.666 10 -86.999 30s-32 43 -32 69c0 24.667 10.5 46.5 31.5 65.5s50.167 28.5 87.5 28.5h1312c39.333 0 68.666 -9.33301 87.999 -28c20 -19.333 30 -41.333 30 -66c0 -26.667 -10.167 -49.834 -30.5 -69.5
c-20.333 -19.667 -49.5 -29.5 -87.5 -29.5h-1312zM930.001 549c206 170.667 323.672 342.671 353.005 516.004c-17.333 308.667 -129.333 463 -336 463c-49.333 0 -120.333 -15 -213 -45c-14 -14.667 -21 -49 -21 -103c0 -22.667 2.16699 -61.834 6.5 -117.501
s6.5 -101.167 6.5 -136.5c0 -61.333 -8.33301 -103.666 -25 -126.999c-31.333 -33.333 -100.166 -68.166 -206.499 -104.499s-198.5 -54.5 -276.5 -54.5c-22 54 -33 115.333 -33 184c0 139.333 52.667 271.166 158 395.499s238.333 223.333 399 297s317.667 110.5 471 110.5
c139.333 0 258.666 -33.667 357.999 -101s164.333 -170.333 195 -309c0 -172.667 -44 -323.334 -132 -452.001s-216 -267.334 -384 -416.001h387c40 0 70.333 -9.33301 91 -28c21.333 -19.333 32 -41.333 32 -66c0 -26.667 -10.833 -49.834 -32.5 -69.501
s-51.834 -29.5 -90.501 -29.5h-645c-181.333 -140 -288 -226 -320 -258c105.333 -450.667 337.666 -676 696.999 -676c77.333 0 144.666 5.83301 201.999 17.5s137.5 30.167 240.5 55.5s171.167 38 204.5 38c46 0 70.667 -16.333 74 -49
c-19.333 -120 -111 -215.5 -275 -286.5s-356.333 -106.5 -577 -106.5c-196.667 0 -385.334 29.5 -566.001 88.5s-328.167 149.833 -442.5 272.5s-171.5 272.667 -171.5 450c0 29.333 26.667 64.666 80 105.999s141.166 99.833 263.499 175.5s212.5 133.167 270.5 172.5h-390
c-36.667 0 -65.667 10 -87 30s-32 43 -32 69c0 24.667 10.5 46.5 31.5 65.5s50.167 28.5 87.5 28.5h648z" />
    <glyph glyph-name="ampersand" unicode="&#x26;" horiz-adv-x="2458" 
d="M396 2322c-36.667 0 -65.667 10 -87 30s-32 43 -32 69c0 24.667 10.5 46.5 31.5 65.5s50.167 28.5 87.5 28.5h1896c39.333 0 68.666 -9.33301 88 -28c20 -19.333 30 -41.333 30 -66c0 -26.667 -10.167 -49.834 -30.5 -69.5c-20.333 -19.667 -49.5 -29.5 -87.5 -29.5
h-1896zM831 1774c371.333 38 655.333 57 852 57c197.333 0 351 -18.5 461 -55.5s187.667 -96.667 233 -179s68 -195.5 68 -339.5c0 -163.333 -41.333 -287.5 -124 -372.5s-201 -148.833 -355 -191.5s-284.333 -77 -391 -103s-182.667 -61.667 -228 -107v-1323
c-30.667 -30 -116.667 -45 -258 -45s-227.333 15 -258 45v2614zM1347 709c50.667 0 121 10.5 211 31.5s174.333 64.833 253 131.5s118 162.334 118 287.001c5.33301 77.333 8 130.666 8 159.999c0 93.333 -15.167 165 -45.5 215s-87.5 86 -171.5 108s-208.333 33 -373 33
v-966zM831 274c-142 0 -245.667 -11.001 -311 -33.001c-19.333 -95.333 -45.833 -160.166 -79.5 -194.499s-82.167 -51.5 -145.5 -51.5c-49.333 0 -124.666 7 -225.999 21c-13.333 72 -20 140.333 -20 205c0 106.667 17.667 177.667 53 213c58.667 0 168.667 5.33301 330 16
c28 1.33301 48.667 2 62 2c49.333 0 110.666 -4.33301 183.999 -13c76 -9.33301 127 -14 153 -14v-151zM1348 273.999l-0.000976562 192c134 0 292.667 -5.33301 476 -16c188.667 -10.667 324.334 -16 407.001 -16c16.667 -49.333 25 -117.666 25 -204.999
c0 -88.667 -8.33301 -148.667 -25 -180c-44.667 0 -90 -1.5 -136 -4.5s-75.667 -4.5 -89 -4.5c-60 0 -105 12.667 -135 38s-60 79.666 -90 162.999c-66 22 -210.333 33 -433 33z" />
    <glyph glyph-name="quotesingle" unicode="'" 
d="M-840 2322h1872c38 0 67.333 9.83301 88 29.5s31 42.834 31 69.5c0 25.333 -10.167 47.333 -30.5 66s-49.833 28 -88.5 28h-1872c-38 0 -67.167 -9.5 -87.5 -28.5s-30.5 -40.833 -30.5 -65.5c0 -66 39.333 -99 118 -99z" />
    <glyph glyph-name="parenleft" unicode="(" horiz-adv-x="1236" 
d="M1082 2696l110.001 -99.998c-78.667 -85.333 -162 -203.333 -250 -354c-89.333 -152 -162 -300 -218 -444c-102.667 -262.667 -154 -560 -154 -892c0 -133.333 6.66699 -253.333 20 -360c13.333 -108 34.666 -216 63.999 -324s67.333 -213.333 114 -316
c45.333 -102.667 103.333 -216 174 -340c53.333 -90.667 94 -155.334 122 -194.001s70.667 -91.334 128 -158.001l-110 -98c-86.667 90.667 -180.667 213.334 -282 368.001c-101.333 153.333 -185.333 302 -252 446c-38.667 94.667 -68 173.334 -88 236.001
c-20 61.333 -40 139.333 -60 234c-20 93.333 -33.333 178.666 -40 255.999c-8 77.333 -12 160.666 -12 249.999c0 261.333 34.667 500 104 716c68 216 184.667 450.667 350 704c53.333 85.333 98 152 134 200s84.667 104.667 146 170z" />
    <glyph glyph-name="parenright" unicode=")" horiz-adv-x="1236" 
d="M156 -884l-109.999 98c78.667 85.333 162.667 204.666 252 357.999c89.333 152 162 298.667 218 440c101.333 269.333 152 567.333 152 894c0 256 -28 485.333 -84 688s-152.667 419.334 -290 650.001c-81.333 141.333 -164 258.666 -248 352l110 100
c84 -88 178.667 -212 284 -372s188 -308 248 -444c133.333 -293.333 200 -618 200 -974c0 -174.667 -14.667 -338.667 -44 -492c-30.667 -154.667 -76.667 -303.334 -138 -446.001c-62.667 -142.667 -152 -304 -268 -484
c-58.667 -93.333 -105.334 -162.666 -140.001 -207.999c-36 -46.667 -83.333 -100 -142 -160z" />
    <glyph glyph-name="asterisk" unicode="*" 
 />
    <glyph glyph-name="plus" unicode="+" horiz-adv-x="2294" 
d="M1444 1614l-0.00390625 -2032c-50 -16 -141.667 -24 -275 -24c-134 0 -225.333 8 -274 24v2032c-171.333 0 -289.666 -11 -354.999 -33c-19.333 -95.333 -45.833 -160.166 -79.5 -194.499s-82.167 -51.5 -145.5 -51.5c-49.333 0 -124.666 7 -225.999 21
c-13.333 72 -20 140.333 -20 205c0 106.667 17.667 177.667 53 213c58.667 0 168.667 5.33301 330 16c156 10.667 303.667 16 443 16v709c16.667 16.667 104 25 262 25c156.667 0 252.334 -8.33301 287.001 -25v-709c62 0 184.667 -5.33301 368 -16
c188.667 -10.667 324.334 -16 407.001 -16c16.667 -49.333 25 -117.666 25 -204.999c0 -88.667 -8.33301 -148.667 -25 -180c-44.667 0 -90 -1.5 -136 -4.5s-75.667 -4.5 -89 -4.5c-60 0 -105 12.667 -135 38s-60 79.666 -90 162.999c-66 22 -174.333 33 -325 33z" />
    <glyph glyph-name="comma" unicode="," horiz-adv-x="967" 
d="M145 -360l178 891h451l-174 -891h-455z" />
    <glyph glyph-name="hyphen" unicode="-" 
 />
    <glyph glyph-name="period" unicode="." horiz-adv-x="967" 
d="M225 720l98 451h451l-94 -451h-455z" />
    <glyph glyph-name="zero" unicode="0" 
 />
    <glyph glyph-name="one" unicode="1" horiz-adv-x="1966" 
d="M868 788l-620.001 0.000976562c-39.333 0 -68.666 14 -87.999 42c-20 28.667 -30 61.667 -30 99c0 40 10 74.333 30 103c20.667 30 50 45 88 45h620v579c0 39.333 14 68.666 42 87.999c28.667 20 61.667 30 99 30c40 0 74.333 -10 103 -30c30 -20.667 45 -50 45 -88v-579
h591c36.667 0 65.667 -15 87 -45s32 -64.333 32 -103c0 -37.333 -10.667 -70.333 -32 -99c-20 -28 -49 -42 -87 -42h-591v-632c0 -36.667 -15 -65.667 -45 -87s-64.333 -32 -103 -32c-37.333 0 -70.333 10.667 -99 32c-28 20 -42 49 -42 87v632z" />
    <glyph glyph-name="two" unicode="2" horiz-adv-x="2744" 
d="M1176 0c-52 0 -136.995 -16.3379 -254.995 -49.0049s-216 -49 -294 -49c-130.667 54.667 -236.334 126.334 -317.001 215.001s-139.5 202.167 -176.5 340.5s-55.5 308.166 -55.5 509.499c0 112.667 45.333 232.834 136 360.501s195.667 236 315 325
s213.333 133.5 282 133.5c49.333 0 74 -26 74 -78c-50.667 -57.333 -97.834 -131.666 -141.501 -222.999s-79.5 -192.333 -107.5 -303s-42 -219.334 -42 -326.001c0 -118 19.167 -224.833 57.5 -320.5s100.833 -174 187.5 -235s199 -96.833 337 -107.5v1773
c-57.333 0 -86 43.667 -86 131c0 40.667 6.66699 72 20 94c97.333 16.667 206.666 25 327.999 25s206 -8.33301 254 -25v-1998c113.333 0 210.333 28.833 291 86.5s141 138 181 241s60 220.167 60 351.5c0 182.667 -38 375.334 -114 578.001
c-62.667 39.333 -103 66.666 -121 81.999s-31.333 35.833 -40 61.5s-19.334 74.834 -32.001 147.501c81.333 32.667 182.333 49 302.999 49c120.667 0 213.667 -16.333 279 -49c66 -148.667 114.5 -282 145.5 -400s46.5 -232 46.5 -342
c-10.667 -185.333 -63.5 -350.166 -158.5 -494.499s-216 -263.666 -363 -357.999s-306.167 -165.166 -477.5 -212.499v-774c0 -30 -86 -45 -258 -45s-258 15 -258 45v840z" />
    <glyph glyph-name="three" unicode="3" horiz-adv-x="2458" 
d="M1008 193c64 -14 143.326 -21.001 237.993 -21.001c70 0 175.5 6.16699 316.5 18.5s249.833 18.5 326.5 18.5c264.667 0 466.667 -69.667 606 -209c24.667 -57.333 37 -88.666 37 -93.999c0 -18 -12.333 -40 -37 -66l-549 33c-63.333 122.667 -243.666 184 -540.999 184
c-116 0 -268.667 -9.5 -458 -28.5s-308.333 -28.5 -357 -28.5c-54.667 -68 -179 -102 -373 -102c-22.667 0 -54 0.666992 -94 2s-67.333 2 -82 2c0 56.667 37.167 119.167 111.5 187.5s180 139 317 212s304.833 147.5 503.5 223.5s415 148 649 216c6 6 9 10.333 9 13
c0 13.333 -39.667 20 -119 20h-148c-167.333 0 -311.166 14.5 -431.499 43.5s-201.833 89.5 -244.5 181.5c26 35.333 109.5 83.833 250.5 145.5l387.5 174c117.333 54.333 194.333 109.166 231 164.499c-68.667 16 -176.667 24 -324 24
c-42.667 0 -111.334 -0.666992 -206.001 -2s-166.667 -2 -216 -2c-210 0 -369.667 15 -479 45c-87.333 22 -131 150.333 -131 385h516c59.333 -152.667 246.333 -229 561 -229c60.667 0 145.334 4.5 254.001 13.5s207.334 17.833 296.001 26.5
s169.834 15.834 243.501 21.501s149.167 8.5 226.5 8.5c0 -76 -54.167 -162.167 -162.5 -258.5s-246.666 -190 -414.999 -281s-340.166 -169.5 -515.499 -235.5c266.667 0 497.834 -17.667 693.501 -53s293.5 -80.333 293.5 -135c0 -10.667 -7 -23 -21 -37
c-44.667 -44 -163.5 -107.333 -356.5 -190l-533.5 -229c-162.667 -70 -253.667 -124 -273 -162z" />
    <glyph glyph-name="four" unicode="4" horiz-adv-x="2089" 
d="M1072 -807c0 -74 -123.003 -111.001 -369.003 -111.001c-102 0 -189.5 7.16699 -262.5 21.5s-109.5 33.166 -109.5 56.499c30 162 98.833 301.167 206.5 417.5s238.167 219.666 391.5 309.999l408.5 241c119 70.333 191.5 135.5 217.5 195.5
c36 131.333 54 251.333 54 360c0 134 -23.5 240.5 -70.5 319.5s-106.833 118.5 -179.5 118.5c-110 0 -222 -91.833 -336 -275.5s-204.333 -454.834 -271 -813.501c-16 -49.333 -102 -74 -258 -74c-154.667 0 -240.667 24.667 -258 74
c-57.333 74.667 -86 141.334 -86 200.001c0 59.333 28.667 110 86 152v1262c-42.667 0 -69.667 21.333 -81 64s-17 107.334 -17 194.001c0 16 84.667 24 254 24c240 0 360 -30 360 -90v-1032c60.667 237.333 149.167 414.833 265.5 532.5s242.5 176.5 378.5 176.5
c106.667 0 208.834 -35.5 306.501 -106.5s177.334 -170.5 239.001 -298.5s95.5 -273 101.5 -435c0 -138.667 -42.833 -262.667 -128.5 -372s-221.167 -234.166 -406.5 -374.499s-317 -245 -395 -314s-134 -155.167 -168 -258.5c0 -20 5.5 -36.667 16.5 -50
s27.333 -27.666 49 -42.999s37.334 -27.5 47.001 -36.5s14.5 -20.5 14.5 -34.5z" />
    <glyph glyph-name="five" unicode="5" horiz-adv-x="1966" 
d="M930 549c206 170.667 323.672 342.671 353.005 516.004c-17.333 308.667 -129.333 463 -336 463c-49.333 0 -120.333 -15 -213 -45c-14 -14.667 -21 -49 -21 -103c0 -22.667 2.16699 -61.834 6.5 -117.501s6.5 -101.167 6.5 -136.5
c0 -61.333 -8.33301 -103.666 -25 -126.999c-31.333 -33.333 -100.166 -68.166 -206.499 -104.499s-198.5 -54.5 -276.5 -54.5c-22 54 -33 115.333 -33 184c0 139.333 52.667 271.166 158 395.499s238.333 223.333 399 297s317.667 110.5 471 110.5
c139.333 0 258.666 -33.667 357.999 -101s164.333 -170.333 195 -309c0 -172.667 -44 -323.334 -132 -452.001s-216 -267.334 -384 -416.001h387c40 0 70.333 -9.33301 91 -28c21.333 -19.333 32 -41.333 32 -66c0 -26.667 -10.833 -49.834 -32.5 -69.501
s-51.834 -29.5 -90.501 -29.5h-645c-181.333 -140 -288 -226 -320 -258c105.333 -450.667 337.666 -676 696.999 -676c77.333 0 144.666 5.83301 201.999 17.5s137.5 30.167 240.5 55.5s171.167 38 204.5 38c46 0 70.667 -16.333 74 -49
c-19.333 -120 -111 -215.5 -275 -286.5s-356.333 -106.5 -577 -106.5c-196.667 0 -385.334 29.5 -566.001 88.5s-328.167 149.833 -442.5 272.5s-171.5 272.667 -171.5 450c0 29.333 26.667 64.666 80 105.999s141.166 99.833 263.499 175.5s212.5 133.167 270.5 172.5h-390
c-36.667 0 -65.667 10 -87 30s-32 43 -32 69c0 24.667 10.5 46.5 31.5 65.5s50.167 28.5 87.5 28.5h648z" />
    <glyph glyph-name="six" unicode="6" horiz-adv-x="2662" 
d="M2635 2105c0 -95.333 -10.667 -185.667 -32 -271s-51.666 -145.666 -91 -180.999c-62.667 -57.333 -152.667 -86 -270 -86h-864h-71c-147.333 0 -251.666 -7.33301 -312.999 -22s-137 -54.667 -227 -120c-205.333 -150 -308 -352 -308 -606c0 -160.667 33 -278 99 -352
l55 -77.5c12.667 -18.333 33.334 -31.833 62.001 -40.5s80 -13 154 -13h115c38 0 76 1.33301 114 4c177.333 0 304.333 -24.667 381 -74c162.667 -106 244 -243.667 244 -413c0 -183.333 -47.667 -343.333 -143 -480c-58 -80.667 -141.167 -143.167 -249.5 -187.5
s-219.833 -66.5 -334.5 -66.5c-84.667 0 -158.334 22 -221.001 66c-66 43.333 -99 103.333 -99 180c0 65.333 12.333 110.333 37 135c22 22 57.667 33 107 33c27.333 0 82 -8.33301 164 -25c81.333 -16 145.333 -24 192 -24c82 0 147.667 20.333 197 61
c60 49.333 90 120.333 90 213c0 79.333 -33 134 -99 164c-68 27.333 -159.333 41 -274 41c-46.667 0 -106.834 -2.66699 -180.501 -8s-118.5 -8 -134.5 -8c-208 0 -370.667 83.333 -488 250c-117.333 163.333 -176 376.333 -176 639c0 289.333 95.667 544.666 287 765.999
c188 218 396.667 327 626 327h1086c40.667 -2.66699 77.667 -4 111 -4c92.667 0 169 9.66699 229 29c92.667 30 152.667 80.333 180 151h45z" />
    <glyph glyph-name="seven" unicode="7" horiz-adv-x="2458" 
d="M831 1774c371.333 38 655.333 57 852 57c197.333 0 351 -18.5 461 -55.5s187.667 -96.667 233 -179s68 -195.5 68 -339.5c0 -163.333 -41.333 -287.5 -124 -372.5s-201 -148.833 -355 -191.5s-284.333 -77 -391 -103s-182.667 -61.667 -228 -107v-1323
c-30.667 -30 -116.667 -45 -258 -45s-227.333 15 -258 45v2614zM1347 709c50.667 0 121 10.5 211 31.5s174.333 64.833 253 131.5s118 162.334 118 287.001c5.33301 77.333 8 130.666 8 159.999c0 93.333 -15.167 165 -45.5 215s-87.5 86 -171.5 108s-208.333 33 -373 33
v-966zM831 274c-142 0 -245.667 -11.001 -311 -33.001c-19.333 -95.333 -45.833 -160.166 -79.5 -194.499s-82.167 -51.5 -145.5 -51.5c-49.333 0 -124.666 7 -225.999 21c-13.333 72 -20 140.333 -20 205c0 106.667 17.667 177.667 53 213c58.667 0 168.667 5.33301 330 16
c28 1.33301 48.667 2 62 2c49.333 0 110.666 -4.33301 183.999 -13c76 -9.33301 127 -14 153 -14v-151zM1348 273.999l-0.000976562 192c134 0 292.667 -5.33301 476 -16c188.667 -10.667 324.334 -16 407.001 -16c16.667 -49.333 25 -117.666 25 -204.999
c0 -88.667 -8.33301 -148.667 -25 -180c-44.667 0 -90 -1.5 -136 -4.5s-75.667 -4.5 -89 -4.5c-60 0 -105 12.667 -135 38s-60 79.666 -90 162.999c-66 22 -210.333 33 -433 33z" />
    <glyph glyph-name="eight" unicode="8" horiz-adv-x="2499" 
d="M1775 2160l-293 -1l-996 452l635 -2zM743 225c22 -21.333 43.6699 -32 65.0029 -32c14 -27.333 21 -63 21 -107s-7 -72.667 -21 -86c-80 -32.667 -193.333 -49 -340 -49c-144.667 0 -225 16.333 -241 49v1581c-42.667 0 -69.667 15.833 -81 47.5s-17 80.167 -17 145.5
c0 21.333 161 32 483 32c36 -40 93.667 -112.5 173 -217.5l209 -271.5c60 -76 115 -137 165 -183s94.333 -69 133 -69c81.333 10.667 165 58.667 251 144s157.167 185 213.5 299s84.5 213.333 84.5 298c16 16.667 100.667 25 254 25c152.667 0 229 -8.33301 229 -25v-1806
c0 -32.667 -76.333 -49 -229 -49c-153.333 0 -238 16.333 -254 49v1225c-40.667 -24 -102.334 -67.333 -185.001 -130s-152.334 -110.667 -209.001 -144s-108.334 -50 -155.001 -50c-40 0 -81.5 9.5 -124.5 28.5s-89.333 45.167 -139 78.5s-106.5 75.333 -170.5 126l-115 91
v-1000z" />
    <glyph glyph-name="nine" unicode="9" horiz-adv-x="2499" 
d="M1775 2160l-293 -1l-996 452l635 -2zM743 225c22 -21.333 43.6689 -32.001 65.002 -32.001c14 -27.333 21 -63 21 -107s-7 -72.667 -21 -86c-80 -32.667 -193.333 -49 -340 -49c-144.667 0 -225 16.333 -241 49v1581c-42.667 0 -69.667 15.833 -81 47.5
s-17 80.167 -17 145.5c0 21.333 161 32 483 32c35.333 -20.667 122.166 -105.167 260.499 -253.5l410 -438c135 -143.667 252.667 -263 353 -358s168.833 -142.5 205.5 -142.5v1192c16 16.667 100.667 25 254 25c152.667 0 229 -8.33301 229 -25v-1806
c0 -32.667 -76.333 -49 -229 -49c-153.333 0 -238 16.333 -254 49v324c-79.333 64 -212.333 186.333 -399 367s-333.334 314.834 -440.001 402.501s-193 131.5 -259 131.5v-1000z" />
    <glyph glyph-name="less" unicode="&#x3c;" horiz-adv-x="2732" 
d="M2446 312l-2160 912v194l2160 908v-232l-1868 -776l1868 -774v-232z" />
    <glyph glyph-name="greater" unicode="&#x3e;" horiz-adv-x="2732" 
d="M286 2326l2160 -912v-194l-2160 -908v232l1872 770l-1872 774v238z" />
    <glyph glyph-name="at" unicode="@" horiz-adv-x="2744" 
d="M1176 0c-52 0 -136.995 -16.3379 -254.995 -49.0049s-216 -49 -294 -49c-130.667 54.667 -236.334 126.334 -317.001 215.001s-139.5 202.167 -176.5 340.5s-55.5 308.166 -55.5 509.499c0 112.667 45.333 232.834 136 360.501s195.667 236 315 325
s213.333 133.5 282 133.5c49.333 0 74 -26 74 -78c-50.667 -57.333 -97.834 -131.666 -141.501 -222.999s-79.5 -192.333 -107.5 -303s-42 -219.334 -42 -326.001c0 -118 19.167 -224.833 57.5 -320.5s100.833 -174 187.5 -235s199 -96.833 337 -107.5v1653
c0 18 -14.333 36.667 -43 56s-43 44.333 -43 75c0 40.667 6.66699 72 20 94c97.333 16.667 206.666 25 327.999 25s206 -8.33301 254 -25v-1878c113.333 0 210.333 28.833 291 86.5s141 138 181 241s60 220.167 60 351.5c0 182.667 -38 375.334 -114 578.001
c-62.667 39.333 -103 66.666 -121 81.999s-31.333 35.833 -40 61.5s-19.334 74.834 -32.001 147.501c81.333 32.667 182.333 49 302.999 49c120.667 0 213.667 -16.333 279 -49c66 -148.667 114.5 -282 145.5 -400s46.5 -232 46.5 -342
c-10.667 -185.333 -63.5 -350.166 -158.5 -494.499s-216 -263.666 -363 -357.999s-306.167 -165.166 -477.5 -212.499v-774c0 -30 -86 -45 -258 -45s-258 15 -258 45v840zM336.005 2322c-36.667 0 -65.666 10.001 -86.999 30.001s-32 43 -32 69
c0 24.667 10.5 46.5 31.5 65.5s50.167 28.5 87.5 28.5h2016c39.333 0 68.666 -9.33301 87.999 -28c20 -19.333 30 -41.333 30 -66c0 -26.667 -10.167 -49.834 -30.5 -69.501s-49.5 -29.5 -87.5 -29.5h-2016z" />
    <glyph glyph-name="A" unicode="A" horiz-adv-x="2130" 
d="M2087 193c0 -84 -46.6631 -137.167 -139.996 -159.5s-207.666 -33.5 -342.999 -33.5c-54 0 -120.333 32.5 -199 97.5s-184.334 160.833 -317.001 287.5c-36.667 -24 -100.334 -71 -191.001 -141s-164 -123.333 -220 -160s-111.667 -64.667 -167 -84
c-134.667 0 -238.5 32.5 -311.5 97.5s-109.5 160.833 -109.5 287.5c18 53.333 89.167 117.333 213.5 192l343.5 212.5c104.667 67 166 136.833 184 209.5c0 62.667 -10.5 122 -31.5 178s-49.333 112.333 -85 169s-103.5 157 -203.5 301c0 33.333 29.833 62.833 89.5 88.5
s136.5 38.5 230.5 38.5c92.667 -14 176.667 -82.833 252 -206.5s177.166 -317 305.499 -580s244.666 -461.167 348.999 -594.5s221.166 -200 350.499 -200zM1026 516c-18 56 -61.667 153 -131 291l-199 -133c-62.667 -41.333 -115.5 -78.333 -158.5 -111
s-84.833 -70 -125.5 -112c-10.667 -11.333 -16 -25 -16 -41c0 -39.333 19.167 -82 57.5 -128s76.5 -69 114.5 -69c12 0 24.333 4 37 12c62 30.667 138.833 78 230.5 142s155.167 113.667 190.5 149zM212.004 2322c-36.667 0 -65.666 10 -86.999 30s-32 43 -32 69
c0 24.667 10.5 46.5 31.5 65.5s50.167 28.5 87.5 28.5h1616c39.333 0 68.666 -9.33301 87.999 -28c20 -19.333 30 -41.333 30 -66c0 -26.667 -10.167 -49.834 -30.5 -69.5c-20.333 -19.667 -49.5 -29.5 -87.5 -29.5h-1616z" />
    <glyph glyph-name="B" unicode="B" horiz-adv-x="2048" 
d="M747 840l-0.000976562 -713c0 -8 34.667 -16.167 104 -24.5s144 -12.5 224 -12.5c136 0 230 12.333 282 37c16.667 36 25 77 25 123c0 95.333 -34 199.333 -102 312s-148.667 216 -242 310c-75.333 19.333 -139.666 29 -192.999 29c-65.333 0 -98 -20.333 -98 -61z
M746.999 1130c140 0 255.501 39.001 346.501 117.001s136.5 167.667 136.5 269c0 50.667 -16.833 87.167 -50.5 109.5s-81.334 36.166 -143.001 41.499s-158.167 8 -289.5 8v-545zM264 1581c0 19.333 -13.5 36.332 -40.5 50.999s-48.833 32.334 -65.5 53.001s-25 61 -25 121
c24 24.667 213.667 37 569 37c209.333 0 407.666 -3.33301 594.999 -10c186.667 -7.33301 292.667 -16.333 318 -27c32.667 0 61.334 -27 86.001 -81s37 -104.667 37 -152c0 -38 -8 -57 -24 -57c-56 -75.333 -113.333 -142.5 -172 -201.5s-121.834 -117.5 -189.501 -175.5
s-119.5 -104.667 -155.5 -140c32.667 -39.333 75.167 -68.833 127.5 -88.5s115.333 -45.667 189 -78s137.834 -84.5 192.501 -156.5s101 -178.667 139 -320c0 -237.333 -22 -367 -66 -389c-26.667 -18 -129 -32.667 -307 -44s-372 -17 -582 -17
c-417.333 0 -626 20.333 -626 61v1614zM216 2322c-36.667 0 -65.666 10 -86.999 30s-32 43 -32 69c0 24.667 10.5 46.5 31.5 65.5s50.167 28.5 87.5 28.5h1476c39.333 0 68.666 -9.33301 87.999 -28c20 -19.333 30 -41.333 30 -66c0 -26.667 -10.167 -49.834 -30.5 -69.5
c-20.333 -19.667 -49.5 -29.5 -87.5 -29.5h-1476z" />
    <glyph glyph-name="C" unicode="C" horiz-adv-x="2458" 
d="M276 2322c-36.667 0 -65.667 10 -87 30s-32 43 -32 69c0 24.667 10.5 46.5 31.5 65.5s50.167 28.5 87.5 28.5h1896c39.333 0 68.666 -9.33301 88 -28c20 -19.333 30 -41.333 30 -66c0 -26.667 -10.167 -49.834 -30.5 -69.5c-20.333 -19.667 -49.5 -29.5 -87.5 -29.5
h-1896zM1244 -64c-212.667 0 -407.834 38.667 -585.501 116s-318.334 183 -422.001 317s-155.5 280.333 -155.5 439c0 66 7.66699 139.167 23 219.5s37.333 147.5 66 201.5c59.333 110 142.333 206 249 288s231 145.333 373 190s292.667 67 452 67s309.5 -22.5 450.5 -67.5
s264.5 -108 370.5 -189s188.833 -177 248.5 -288s89.5 -251.5 89.5 -421.5c0 -158.667 -51.667 -305 -155 -439s-243.666 -239.667 -420.999 -317s-371.666 -116 -582.999 -116zM1854 935c-13.333 141.333 -46.333 259.667 -99 355c-56 100 -126.167 179 -210.5 237
s-173.5 87 -267.5 87c-105.333 0 -202.833 -28.667 -292.5 -86s-163.167 -136 -220.5 -236c-54.667 -96.667 -88.667 -215.667 -102 -357h1192zM1854 808.001l-1192 -0.000976562c13.333 -143.333 47.333 -262.333 102 -357c56.667 -99.333 130 -177.833 220 -235.5
s187.667 -86.5 293 -86.5c94 0 183.333 29 268 87s154.667 136.667 210 236c52.667 94.667 85.667 213.334 99 356.001z" />
    <glyph glyph-name="D" unicode="D" horiz-adv-x="2212" 
d="M284 2322c-36.667 0 -65.666 10 -86.999 30s-32 43 -32 69c0 24.667 10.5 46.5 31.5 65.5s50.167 28.5 87.5 28.5h1632c39.333 0 68.666 -9.33301 87.999 -28c20 -19.333 30 -41.333 30 -66c0 -26.667 -10.167 -49.834 -30.5 -69.5
c-20.333 -19.667 -49.5 -29.5 -87.5 -29.5h-1632zM2160 0c0 -18 -107.167 -32.667 -321.5 -44s-455.5 -17 -723.5 -17c-664 0 -1009 20.333 -1035 61l872 1852l-131 159c0 47.333 35.667 84.5 107 111.5s145 41.833 221 44.5c52 0 82 -8.33301 90 -25zM1112 1343l-516 -1183
c0 -10.667 47.333 -19.334 142 -26.001c99.333 -7.33301 282.333 -11 549 -11c193.333 0 290 12.333 290 37z" />
    <glyph glyph-name="E" unicode="E" horiz-adv-x="2376" 
d="M276 2322c-36.667 0 -65.667 10 -87 30s-32 43 -32 69c0 24.667 10.5 46.5 31.5 65.5s50.167 28.5 87.5 28.5h1756c39.333 0 68.666 -9.33301 88 -28c20 -19.333 30 -41.333 30 -66c0 -26.667 -10.167 -49.834 -30.5 -69.5c-20.333 -19.667 -49.5 -29.5 -87.5 -29.5
h-1756zM687 934c9.33301 -184.667 46 -331.667 110 -441c66.667 -115.333 150.834 -207 252.501 -275s204.834 -102 309.501 -102c198.667 0 350 112 454 336h488c-72.667 -114.667 -164.167 -211 -274.5 -289s-231.166 -136 -362.499 -174s-266 -57 -404 -57
c-196.667 0 -383.834 36.667 -561.501 110s-320.834 179 -429.501 317c-51.333 66 -91.5 149.167 -120.5 249.5s-43.5 197.833 -43.5 292.5c0 128.667 33.667 246.667 101 354s158.5 199.166 273.5 275.499s243.833 134.5 386.5 174.5s289 60 439 60
c132.667 0 262 -17 388 -51s241.167 -86.333 345.5 -157s191.833 -159.667 262.5 -267h-516c-136.667 234.667 -295 352 -475 352c-129.333 0 -250 -57 -362 -171s-188 -249.333 -228 -406h901c76.667 0 132 -23.167 166 -69.5s51 -102.5 51 -168.5
c0 -41.333 -5.66699 -76.833 -17 -106.5s-23.333 -44.5 -36 -44.5c-79.333 0 -145.5 5.5 -198.5 16.5s-103.833 35.333 -152.5 73s-94.334 93.834 -137.001 168.501h-610z" />
    <glyph glyph-name="F" unicode="F" horiz-adv-x="2376" 
d="M667 840c0 -107.333 34.334 -211.33 103.001 -311.997s156.667 -181.667 264 -243s215.666 -92 324.999 -92c90 0 170.667 21.667 242 65v1389c57.333 69.333 128.333 113.166 213 131.499s185.667 27.5 303 27.5v-2646c0 -30 -86 -45 -258 -45s-258 15 -258 45v840
c-56 0 -141.333 -1.33301 -256 -4s-200 -4 -256 -4c-310.667 0 -552.667 53.5 -726 160.5s-266 325.167 -278 654.5c0 169.333 68 328.166 204 476.499s295.5 267.166 478.5 356.499s329.833 134 440.5 134c53.333 0 87.333 -11 102 -33
c0 -38.667 -27.667 -74.167 -83 -106.5l-232.5 -142c-99.667 -62.333 -179.167 -144.333 -238.5 -246s-89 -237.167 -89 -406.5zM276.001 2322c-36.667 0 -65.666 10.001 -86.999 30.001s-32 43 -32 69c0 24.667 10.5 46.5 31.5 65.5s50.167 28.5 87.5 28.5h1656
c39.333 0 68.666 -9.33301 87.999 -28c20 -19.333 30 -41.333 30 -66c0 -26.667 -10.167 -49.834 -30.5 -69.501s-49.5 -29.5 -87.5 -29.5h-1656z" />
    <glyph glyph-name="G" unicode="G" horiz-adv-x="1966" 
d="M660 0c0 -32.667 -86.001 -49 -258.001 -49s-258 16.333 -258 49v1581c-66 0 -99 64.333 -99 193c0 16 312.667 24 938 24c253.333 0 472.333 -2 657 -6c184.667 -4.66699 277 -10.667 277 -18c0 -128.667 -11 -214.667 -33 -258c0 -49.333 -53 -74 -159 -74
c-109.333 0 -164 24.667 -164 74v65c-115.333 16.667 -273.666 25 -474.999 25c-198.667 0 -340.667 -8.33301 -426 -25v-1581zM195.999 2322c-36.667 0 -65.667 10 -87 30s-32 43 -32 69c0 24.667 10.5 46.5 31.5 65.5s50.167 28.5 87.5 28.5h1516
c38.667 0 68 -9.5 88 -28.5s30 -40.833 30 -65.5c0 -26.667 -10.167 -49.834 -30.5 -69.5c-20.333 -19.667 -49.5 -29.5 -87.5 -29.5h-1516z" />
    <glyph glyph-name="H" unicode="H" horiz-adv-x="2048" 
d="M744 0c0 -24.667 -62.668 -37 -188.001 -37c-76 0 -147.5 3.83301 -214.5 11.5s-104.833 16.167 -113.5 25.5c-48.667 32.667 -73 84.667 -73 156c0 68 24.333 102 73 102v1323c-45.333 16 -73 33.5 -83 52.5s-15 54.833 -15 107.5c0 24.667 79.333 37 238 37
c92 0 177.667 -3.83301 257 -11.5s119 -16.167 119 -25.5v-516h676v483c0 18 28.833 32.667 86.5 44s121.834 17 192.501 17c136.667 0 205 -20.333 205 -61v-1708c0 -32.667 -80.667 -49 -242 -49s-242 16.333 -242 49v1032h-676v-1032zM227.999 2322
c-36.667 0 -65.667 10 -87 30s-32 43 -32 69c0 24.667 10.5 46.5 31.5 65.5s50.167 28.5 87.5 28.5h1516c38.667 0 68 -9.5 88 -28.5s30 -40.833 30 -65.5c0 -26.667 -10.167 -49.834 -30.5 -69.5c-20.333 -19.667 -49.5 -29.5 -87.5 -29.5h-1516z" />
    <glyph glyph-name="I" unicode="I" horiz-adv-x="983" 
d="M772 0c-16 -32.667 -102 -49 -258 -49c-155.333 0 -241.333 16.333 -258 49c-57.333 57.333 -86 131 -86 221c0 82 28.667 136.667 86 164v1196c-42.667 0 -69.667 15.833 -81 47.5s-17 80.167 -17 145.5c0 8 32.333 15.333 97 22s134.667 10 210 10
c204.667 0 307 -21.667 307 -65v-1741zM176 2322c-36.667 0 -65.666 10 -86.999 30s-32 43 -32 69c0 24.667 10.5 46.5 31.5 65.5s50.167 28.5 87.5 28.5h616c39.333 0 68.666 -9.33301 87.999 -28c20 -19.333 30 -41.333 30 -66c0 -26.667 -10.167 -49.834 -30.5 -69.5
c-20.333 -19.667 -49.5 -29.5 -87.5 -29.5h-616z" />
    <glyph glyph-name="J" unicode="J" horiz-adv-x="2458" 
d="M532 2322c-36.667 0 -65.667 10 -87 30s-32 43 -32 69c0 24.667 10.5 46.5 31.5 65.5s50.167 28.5 87.5 28.5h1716c39.333 0 68.666 -9.33301 88 -28c20 -19.333 30 -41.333 30 -66c0 -26.667 -10.167 -49.834 -30.5 -69.5c-20.333 -19.667 -49.5 -29.5 -87.5 -29.5
h-1716zM1131 659c-26.667 -32.667 -77.667 -90.667 -153 -174l-159.5 -177.5c-49 -55 -90.833 -104.167 -125.5 -147.5c96 -16.667 221.667 -25 377 -25c156.667 0 289 8.33301 397 25c-44 57.333 -103 139 -177 245c-24.667 34.667 -54 81.667 -88 141s-57.667 97 -71 113z
M71 356c55.333 0 106.005 -8.33301 152.005 -25c47.333 -16.667 97.666 -52 150.999 -106c255.333 219.333 469.666 444.666 642.999 675.999c-35.333 63.333 -69 127.333 -101 192l-128 264l-124 257c-72.667 0 -120.5 2.33301 -143.5 7s-37.5 16.5 -43.5 35.5
s-9 58.167 -9 117.5c117.333 30 271.666 45 462.999 45c81.333 0 153.666 -4.33301 216.999 -13l21.5 -30c8.33301 -11.333 18.666 -27.833 30.999 -49.5s23.5 -45.167 33.5 -70.5c48 -120.667 78 -190.667 90 -210c6 -10 22.333 -39.333 49 -88s47 -82.334 61 -101.001
c145.333 178 297 328.333 455 451c65.333 32.667 136.333 49 213 49c81.333 0 160.666 -16.333 237.999 -49c16 -29.333 24 -60.666 24 -93.999s-8 -66 -24 -98c-48.667 -30 -96.667 -52.5 -144 -67.5s-111 -28 -191 -39l-149 -20.5
c-184.667 -186 -300.667 -296.667 -348 -332c14 -47.333 50 -117.666 108 -210.999c66.667 -106.667 114 -179.667 142 -219c2 -2.66699 20.333 -32 55 -88s65.667 -100.333 93 -133c68.667 -81.333 116.334 -141.666 143.001 -180.999c44.667 0 94.834 2.83301 150.501 8.5
s94.167 8.5 115.5 8.5c49.333 0 85.333 -14.167 108 -42.5s38.667 -83.833 48 -166.5c-104.667 -24.667 -448.667 -37 -1032 -37c-404.667 0 -715 3 -931 9c-216.667 5.33301 -392.334 14.666 -527.001 27.999c-19.333 18 -29 57.667 -29 119
c0 79.333 39.667 147.333 119 204z" />
    <glyph glyph-name="K" unicode="K" horiz-adv-x="1884" 
d="M125 1774c0 8 32.334 15.332 97.001 21.999s134.667 10 210 10c205.333 0 308 -21.667 308 -65v-643c98.667 18.667 174.667 54.167 228 106.5s90 108.833 110 169.5s46.333 161 79 301c-46.667 0 -74.667 3.5 -84 10.5s-14 25.5 -14 55.5
c16.667 32.667 117.667 49 303 49c186 0 279 -16.333 279 -49c-20 -126 -59.167 -229 -117.5 -309s-129.833 -148 -214.5 -204l-250 -163c118 -101.333 219.5 -196 304.5 -284s155.167 -168.833 210.5 -242.5s107.333 -152 156 -235s105 -184.167 169 -303.5h-418
c-82 48.667 -152.333 114.667 -211 198s-122.834 190.5 -192.501 321.5s-128.334 227.333 -176.001 289s-101.5 92.5 -161.5 92.5v-901c-16.667 -32.667 -102.667 -49 -258 -49c-156 0 -242 16.333 -258 49c-57.333 56 -86 129.667 -86 221
c0 82.667 28.667 137.334 86 164.001v1196c-43.333 0 -70.666 15.833 -81.999 47.5s-17 80.167 -17 145.5zM216.001 2322c-36.667 0 -65.666 10.001 -86.999 30.001s-32 43 -32 69c0 24.667 10.5 46.5 31.5 65.5s50.167 28.5 87.5 28.5h1356
c39.333 0 68.666 -9.33301 87.999 -28c20 -19.333 30 -41.333 30 -66c0 -26.667 -10.167 -49.834 -30.5 -69.501s-49.5 -29.5 -87.5 -29.5h-1356z" />
    <glyph glyph-name="L" unicode="L" horiz-adv-x="2048" 
d="M264 2322c-36.667 0 -65.667 10 -87 30s-32 43 -32 69c0 24.667 10.5 46.5 31.5 65.5s50.167 28.5 87.5 28.5h1516c38.667 0 68 -9.5 88 -28.5s30 -40.833 30 -65.5c0 -26.667 -10.167 -49.834 -30.5 -69.5c-20.333 -19.667 -49.5 -29.5 -87.5 -29.5h-1516zM14 0
c0 36 35.4961 88.665 106.496 157.998s147.167 135.833 228.5 199.5l312 239.5l144.5 106c77.667 56.667 119.834 88.667 126.501 96c-74 122 -119.333 204.333 -136 247c-27.333 68.667 -54.5 126.834 -81.5 174.501s-70.333 115 -130 202l-152.5 224.5
c0 33.333 30.167 62.833 90.5 88.5s138.166 38.5 233.499 38.5c91.333 -14 174.333 -82.5 249 -205.5s176.334 -316.5 305.001 -580.5s245.334 -462.5 350.001 -595.5s222.334 -199.5 353.001 -199.5c0 -84 -47 -137.167 -141 -159.5s-208 -33.5 -342 -33.5
c-38 0 -84.333 35.667 -139 107c-3.33301 4.66699 -28.666 36.334 -75.999 95.001s-86.333 110 -117 154c-100 144 -152 218 -156 222c-2 -1.33301 -30.5 -27.333 -85.5 -78s-115.167 -100 -180.5 -148l-372 -274c-92 -68.667 -192 -103 -300 -103c-30 0 -60 8.33301 -90 25
z" />
    <glyph glyph-name="M" unicode="M" horiz-adv-x="2499" 
d="M380 2322c-36.667 0 -65.667 10 -87 30s-32 43 -32 69c0 24.667 10.5 46.5 31.5 65.5s50.167 28.5 87.5 28.5h1636c39.333 0 68.666 -9.33301 88 -28c20 -19.333 30 -41.333 30 -66c0 -26.667 -10.167 -49.834 -30.5 -69.5c-20.333 -19.667 -49.5 -29.5 -87.5 -29.5
h-1636zM743 225c22 -21.333 43.6699 -32 65.0029 -32c14 -27.333 21 -63 21 -107s-7 -72.667 -21 -86c-80 -32.667 -193.333 -49 -340 -49c-144.667 0 -225 16.333 -241 49v1581c-42.667 0 -69.667 15.833 -81 47.5s-17 80.167 -17 145.5c0 21.333 161 32 483 32
c36 -40 93.667 -112.5 173 -217.5l209 -271.5c60 -76 115 -137 165 -183s94.333 -69 133 -69c81.333 10.667 165 58.667 251 144s157.167 185 213.5 299s84.5 213.333 84.5 298c16 16.667 100.667 25 254 25c152.667 0 229 -8.33301 229 -25v-1806
c0 -32.667 -76.333 -49 -229 -49c-153.333 0 -238 16.333 -254 49v1225c-40.667 -24 -102.334 -67.333 -185.001 -130s-152.334 -110.667 -209.001 -144s-108.334 -50 -155.001 -50c-40 0 -81.5 9.5 -124.5 28.5s-89.333 45.167 -139 78.5s-106.5 75.333 -170.5 126l-115 91
v-1000z" />
    <glyph glyph-name="N" unicode="N" horiz-adv-x="2499" 
d="M400 2322c-36.667 0 -65.667 10 -87 30s-32 43 -32 69c0 24.667 10.5 46.5 31.5 65.5s50.167 28.5 87.5 28.5h1616c39.333 0 68.666 -9.33301 88 -28c20 -19.333 30 -41.333 30 -66c0 -26.667 -10.167 -49.834 -30.5 -69.5c-20.333 -19.667 -49.5 -29.5 -87.5 -29.5
h-1616zM743 225c22 -21.333 43.6689 -32.001 65.002 -32.001c14 -27.333 21 -63 21 -107s-7 -72.667 -21 -86c-80 -32.667 -193.333 -49 -340 -49c-144.667 0 -225 16.333 -241 49v1581c-42.667 0 -69.667 15.833 -81 47.5s-17 80.167 -17 145.5c0 21.333 161 32 483 32
c35.333 -20.667 122.166 -105.167 260.499 -253.5l410 -438c135 -143.667 252.667 -263 353 -358s168.833 -142.5 205.5 -142.5v1192c16 16.667 100.667 25 254 25c152.667 0 229 -8.33301 229 -25v-1806c0 -32.667 -76.333 -49 -229 -49c-153.333 0 -238 16.333 -254 49
v324c-79.333 64 -212.333 186.333 -399 367s-333.334 314.834 -440.001 402.501s-193 131.5 -259 131.5v-1000z" />
    <glyph glyph-name="O" unicode="O" horiz-adv-x="2458" 
d="M1256 -64c-212.667 0 -407.836 38.667 -585.503 116s-318.167 183 -421.5 317c-49.333 64 -87.666 142.5 -114.999 235.5s-41 182.167 -41 267.5c0 128 29.667 247 89 357s142.333 206 249 288s231 145.333 373 190s292.667 67 452 67s309.5 -22.5 450.5 -67.5
s264.5 -108 370.5 -189s188.833 -176.833 248.5 -287.5s89.5 -230 89.5 -358c0 -84.667 -13.667 -174 -41 -268s-65.333 -172.333 -114 -235c-103.333 -134 -243.666 -239.667 -420.999 -317s-371.666 -116 -582.999 -116zM1289 129c79.333 0 153.667 18.334 223 55.001
s130.833 88.167 184.5 154.5s95.5 142.5 125.5 228.5c29.333 86.667 44 198 44 334c0 128 -25.833 246.667 -77.5 356s-121.834 196.166 -210.501 260.499s-185 96.5 -289 96.5c-106.667 0 -207.167 -32.333 -301.5 -97s-170.166 -151.834 -227.499 -261.501
s-86 -227.834 -86 -354.501c0 -167.333 28.667 -305.666 86 -414.999s133.333 -196.166 228 -260.499s195 -96.5 301 -96.5zM335.999 2322c-36.667 0 -65.666 10.001 -86.999 30.001s-32 43 -32 69c0 24.667 10.5 46.5 31.5 65.5s50.167 28.5 87.5 28.5h1756
c39.333 0 68.666 -9.33301 87.999 -28c20 -19.333 30 -41.333 30 -66c0 -26.667 -10.167 -49.834 -30.5 -69.501s-49.5 -29.5 -87.5 -29.5h-1756z" />
    <glyph glyph-name="P" unicode="P" horiz-adv-x="2458" 
d="M1708 1581c-85.333 16.667 -228.667 25 -430 25c-198 0 -356.333 -8.33301 -475 -25v-1581c0 -32.667 -86 -49 -258 -49s-258 16.333 -258 49v1581c-85.333 0 -149.666 5.33301 -192.999 16s-65 36.667 -65 78s11.5 68.166 34.5 80.499s65.833 18.5 128.5 18.5
c211.333 10.667 447.666 16 708.999 16c104 0 248.333 -1.33301 433 -4l552 -8c184 -2.66699 328 -4 432 -4c63.333 0 106.5 -6.16699 129.5 -18.5s34.5 -39.166 34.5 -80.499c0 -42.667 -18.833 -69 -56.5 -79s-104.834 -15 -201.5 -15v-1581c0 -32.667 -86 -49 -258 -49
s-258 16.333 -258 49v1581zM411.999 2322c-36.667 0 -65.666 10 -86.999 30s-32 43 -32 69c0 24.667 10.5 46.5 31.5 65.5s50.167 28.5 87.5 28.5h1636c39.333 0 68.666 -9.33301 87.999 -28c20 -19.333 30 -41.333 30 -66c0 -26.667 -10.167 -49.834 -30.5 -69.5
c-20.333 -19.667 -49.5 -29.5 -87.5 -29.5h-1636z" />
    <glyph glyph-name="Q" unicode="Q" horiz-adv-x="2007" 
d="M316 2322c-36.667 0 -65.666 10 -86.999 30s-32 43 -32 69c0 24.667 10.5 46.5 31.5 65.5s50.167 28.5 87.5 28.5h1536c39.333 0 68.666 -9.33301 87.999 -28c20 -19.333 30 -41.333 30 -66c0 -26.667 -10.167 -49.834 -30.5 -69.5
c-20.333 -19.667 -49.5 -29.5 -87.5 -29.5h-1536zM1077 1545c60 6 108 9.00098 144 9.00098c176.667 0 319.334 -34.167 428.001 -102.5s186 -158.833 232 -271.5s69 -259.334 69 -440.001c0 -60.667 -11.667 -140 -35 -238s-54 -165 -92 -201
c-10.667 -9.33301 -39.834 -41 -87.501 -95s-91.167 -97.667 -130.5 -131s-80.333 -56.666 -123 -69.999c-144.667 -46 -301.334 -69 -470.001 -69c-169.333 0 -325.666 23 -468.999 69c-116 36 -228.667 140 -338 312c-30 48 -58.667 118.167 -86 210.5
s-41 163.166 -41 212.499c0 83.333 12.5 172.666 37.5 267.999s60.167 177 105.5 245c94.667 142 227.167 271.5 397.5 388.5s367 216.833 590 299.5s459.167 144.667 708.5 186.001c46.667 -24.667 70 -65.667 70 -123c0 -43.333 -14.667 -80 -44 -110
s-73.333 -45 -132 -45c-42 0 -81.667 6.66699 -119 20c-125.333 -40.667 -226 -79.167 -302 -115.5s-180.333 -105.833 -313 -208.5zM1012 273.001c143.333 0 265.332 29.3311 365.999 87.998c49.333 30 97.666 90.833 144.999 182.5s71 167.834 71 228.501
c0 73.333 -16.333 151 -49 233s-71 148.333 -115 199c-41.333 48 -93.666 84.833 -156.999 110.5s-128.666 38.5 -195.999 38.5c-84.667 0 -167.334 -23 -248.001 -69s-145.5 -108.5 -194.5 -187.5s-73.5 -186.833 -73.5 -323.5c0 -81.333 17.167 -160.666 51.5 -237.999
s85.833 -140.333 154.5 -189s150.334 -73 245.001 -73z" />
    <glyph glyph-name="R" unicode="R" horiz-adv-x="1966" 
d="M291 1774c371.333 38 655.333 57 852 57c197.333 0 351 -18.5 461 -55.5s187.667 -96.667 233 -179s68 -195.5 68 -339.5c0 -163.333 -41.333 -287.5 -124 -372.5s-201 -148.833 -355 -191.5s-284.333 -77 -391 -103s-182.667 -61.667 -228 -107v-1323
c-30.667 -30 -116.667 -45 -258 -45s-227.333 15 -258 45v2614zM807 709c50.667 0 121 10.5 211 31.5s174.333 64.833 253 131.5s118 162.334 118 287.001c5.33301 77.333 8 130.666 8 159.999c0 93.333 -15.167 165 -45.5 215s-87.5 86 -171.5 108s-208.333 33 -373 33
v-966zM396 2322c-36.667 0 -65.666 10 -86.999 30s-32 43 -32 69c0 24.667 10.5 46.5 31.5 65.5s50.167 28.5 87.5 28.5h1336c39.333 0 68.666 -9.33301 87.999 -28c20 -19.333 30 -41.333 30 -66c0 -26.667 -10.167 -49.834 -30.5 -69.5
c-20.333 -19.667 -49.5 -29.5 -87.5 -29.5h-1336z" />
    <glyph glyph-name="S" unicode="S" horiz-adv-x="2335" 
d="M85 901c0 128.667 33.667 246.668 101 354.001s158.5 199.166 273.5 275.499s243.833 134.5 386.5 174.5s289 60 439 60c132.667 0 262 -17 388 -51s241.167 -86.333 345.5 -157s191.833 -159.667 262.5 -267h-516c-140 238 -301.333 357 -484 357
c-105.333 0 -205.333 -38.5 -300 -115.5s-170.667 -176.333 -228 -298s-86 -242.167 -86 -361.5c0 -163.333 32.333 -298.333 97 -405c64 -108 147.167 -194.167 249.5 -258.5s206.5 -96.5 312.5 -96.5c204.667 0 360.334 113.333 467.001 340h488
c-72.667 -114.667 -164.167 -211 -274.5 -289s-231.166 -136 -362.499 -174s-266 -57 -404 -57c-196.667 0 -383.834 36.667 -561.501 110s-320.834 179 -429.501 317c-51.333 66 -91.5 149.167 -120.5 249.5s-43.5 197.833 -43.5 292.5zM296 2322
c-36.667 0 -65.667 10.001 -87 30.001s-32 43 -32 69c0 24.667 10.5 46.5 31.5 65.5s50.167 28.5 87.5 28.5h1756c39.333 0 68.666 -9.33301 88 -28c20 -19.333 30 -41.333 30 -66c0 -26.667 -10.167 -49.834 -30.5 -69.501s-49.5 -29.5 -87.5 -29.5h-1756z" />
    <glyph glyph-name="T" unicode="T" horiz-adv-x="2294" 
d="M236 2322c-36.667 0 -65.667 10 -87 30s-32 43 -32 69c0 24.667 10.5 46.5 31.5 65.5s50.167 28.5 87.5 28.5h1836c39.333 0 68.666 -9.33301 88 -28c20 -19.333 30 -41.333 30 -66c0 -26.667 -10.167 -49.834 -30.5 -69.5c-20.333 -19.667 -49.5 -29.5 -87.5 -29.5
h-1836zM1440 1614l-0.00292969 -1614c-52 -16.667 -143.667 -25 -275 -25s-222.666 8.33301 -273.999 25v1614c-160.667 0 -273.667 -11 -339 -33c-19.333 -95.333 -45.833 -160.166 -79.5 -194.499s-82.167 -51.5 -145.5 -51.5c-49.333 0 -124.666 7 -225.999 21
c-13.333 72 -20 140.333 -20 205c0 106.667 17.667 177.667 53 213c274 16 611.333 24 1012 24s762.334 -8 1085 -24c16.667 -49.333 25 -117.666 25 -204.999c0 -88.667 -8.33301 -148.667 -25 -180c-44.667 0 -90 -1.5 -136 -4.5s-75.667 -4.5 -89 -4.5
c-60 0 -105 12.667 -135 38s-60 79.666 -90 162.999c-66 22 -179.667 33 -341 33z" />
    <glyph glyph-name="U" unicode="U" horiz-adv-x="2212" 
d="M887 291l-153.502 353.999l-227.5 503c-77.333 166 -144 299.333 -200 400c-136.667 0 -205 49.333 -205 148c0 23.333 4 49.333 12 78c34 32.667 105 49 213 49c112.667 0 192 -16.333 238 -49c37.333 -36 79 -107.167 125 -213.5s106.5 -257.666 181.5 -453.999
s132.667 -340 173 -431s74.166 -144.167 101.499 -159.5c36.667 30 86 110.833 148 242.5l220 461.5c84.667 176 168.167 316.333 250.5 421s165.833 157 250.5 157c32.667 0 65.334 -8 98.001 -24c30 -30 45 -65.667 45 -107c0 -66 -35.333 -116.333 -106 -151
c-69.333 -10 -149.166 -82 -239.499 -216s-173 -281 -248 -441s-128.167 -285.333 -159.5 -376v-1323c-73.333 -30 -159.666 -45 -258.999 -45c-95.333 0 -181.333 15 -258 45v1131zM223.998 2322c-36.667 0 -65.666 10.001 -86.999 30.001s-32 43 -32 69
c0 24.667 10.5 46.5 31.5 65.5s50.167 28.5 87.5 28.5h1756c39.333 0 68.666 -9.33301 87.999 -28c20 -19.333 30 -41.333 30 -66c0 -26.667 -10.167 -49.834 -30.5 -69.501s-49.5 -29.5 -87.5 -29.5h-1756z" />
    <glyph glyph-name="V" unicode="V" horiz-adv-x="2458" 
d="M998 -31c-170.667 22 -325.002 72.8271 -463.002 152.494s-246 179.834 -324 300.501c-37.333 58 -66.333 129.333 -87 214s-31 163.334 -31 236.001c0 145.333 38.833 278.333 116.5 399s185.334 221.334 323.001 302.001s292.834 136.667 465.501 168v225
c-57.333 0 -86 43.667 -86 131c0 40.667 6.66699 72 20 94c96 16.667 205.333 25 328 25c121.333 0 206 -8.33301 254 -25v-450c172 -31.333 326.5 -87.166 463.5 -167.499s244.167 -180.666 321.5 -300.999s116 -253.833 116 -400.5c0 -146 -22.167 -266.167 -66.5 -360.5
s-107.666 -179.666 -190 -255.999c-82.333 -76.333 -178.333 -139 -288 -188s-228.5 -81.833 -356.5 -98.5v-809c0 -30 -86 -45 -258 -45s-258 15 -258 45v809zM1514 193.994c111.333 48 197.833 130.666 259.5 247.999s92.5 270.333 92.5 459
c0 141.333 -33.833 271.833 -101.5 391.5s-151.167 204.834 -250.5 255.501v-1354zM997.998 226.993l-0.000976562 1289c-98 -63.333 -176.5 -150 -235.5 -260s-88.5 -228.333 -88.5 -355c0 -172.667 29.833 -316.667 89.5 -432s137.834 -196 234.501 -242zM255.997 2321.99
c-36.667 0 -65.666 10.001 -86.999 30.001s-32 43 -32 69c0 24.667 10.5 46.5 31.5 65.5s50.167 28.5 87.5 28.5h1936c39.333 0 68.666 -9.33301 87.999 -28c20 -19.333 30 -41.333 30 -66c0 -26.667 -10.167 -49.834 -30.5 -69.501s-49.5 -29.5 -87.5 -29.5h-1936z" />
    <glyph glyph-name="W" unicode="W" horiz-adv-x="2744" 
d="M885 1708c-50.667 -57.333 -97.8311 -131.668 -141.498 -223.001s-79.5 -192.333 -107.5 -303s-42 -219.334 -42 -326.001c0 -118 19.167 -224.833 57.5 -320.5s100.833 -174 187.5 -235s199 -96.833 337 -107.5v1323c-57.333 0 -86 42 -86 126c0 38 6.66699 71 20 99
c99.333 16 208.666 24 327.999 24c120.667 0 205.334 -8 254.001 -24v-1548c113.333 0 210.333 28.833 291 86.5s141 138 181 241s60 220.167 60 351.5c0 182.667 -38 375.334 -114 578.001c-62.667 39.333 -103 66.666 -121 81.999s-31.333 35.833 -40 61.5
s-19.334 74.834 -32.001 147.501c81.333 32.667 182.333 49 303 49s213.667 -16.333 279 -49c66 -148.667 114.5 -282 145.5 -400s46.5 -232 46.5 -342c-10.667 -202.667 -75 -383.5 -193 -542.5s-266.833 -285.333 -446.5 -379s-365.167 -152.167 -556.5 -175.5
c-106.667 65.333 -207.667 98 -303 98c-58 0 -146.667 -16.333 -266 -49s-219 -49 -299 -49c-130.667 54.667 -236.334 126.334 -317.001 215.001s-139.5 202.167 -176.5 340.5s-55.5 308.166 -55.5 509.499c0 112.667 45.333 232.834 136 360.501s195.667 236 315 325
s213.333 133.5 282 133.5c49.333 0 74 -26 74 -78zM336.003 2322c-36.667 0 -65.666 10 -86.999 30s-32 43 -32 69c0 24.667 10.5 46.5 31.5 65.5s50.167 28.5 87.5 28.5h2016c39.333 0 68.666 -9.33301 87.999 -28c20 -19.333 30 -41.333 30 -66
c0 -26.667 -10.167 -49.834 -30.5 -69.5c-20.333 -19.667 -49.5 -29.5 -87.5 -29.5h-2016z" />
    <glyph glyph-name="X" unicode="X" horiz-adv-x="1966" 
d="M324 2322c-36.667 0 -65.666 10 -86.999 30s-32 43 -32 69c0 24.667 10.5 46.5 31.5 65.5s50.167 28.5 87.5 28.5h1280c39.333 0 68.666 -9.33301 87.999 -28c20 -19.333 30 -41.333 30 -66c0 -26.667 -10.167 -49.834 -30.5 -69.5
c-20.333 -19.667 -49.5 -29.5 -87.5 -29.5h-1280zM2090 -516c-19.333 -120 -110.995 -215.5 -274.995 -286.5s-356.333 -106.5 -577 -106.5c-196.667 0 -385.334 29.5 -566.001 88.5s-328.167 149.833 -442.5 272.5s-171.5 272.667 -171.5 450
c7.33301 48 76.333 115.5 207 202.5l429 282.5c155.333 101.333 288.666 208.833 399.999 322.5s174.333 232.167 189 355.5c-17.333 308.667 -129.333 463 -336 463c-49.333 0 -120.333 -15 -213 -45c-14 -14.667 -21 -49 -21 -103c0 -22.667 2.16699 -61.834 6.5 -117.501
s6.5 -101.167 6.5 -136.5c0 -61.333 -8.33301 -103.666 -25 -126.999c-31.333 -33.333 -100.166 -68.166 -206.499 -104.499s-198.5 -54.5 -276.5 -54.5c-22 54 -33 115.333 -33 184c0 139.333 52.667 271.166 158 395.499s238.333 223.333 399 297s317.667 110.5 471 110.5
c139.333 0 258.666 -33.667 357.999 -101s164.333 -170.333 195 -309c0 -143.333 -39.833 -280 -119.5 -410s-172.834 -243.333 -279.501 -340s-237.667 -204.167 -393 -322.5s-256 -200.5 -302 -246.5c105.333 -450.667 337.666 -676 696.999 -676
c77.333 0 144.666 5.83301 201.999 17.5s137.5 30.167 240.5 55.5s171.167 38 204.5 38c46 0 70.667 -16.333 74 -49z" />
    <glyph glyph-name="Y" unicode="Y" horiz-adv-x="2253" 
d="M288 2322c-36.667 0 -65.667 10 -87 30s-32 43 -32 69c0 24.667 10.5 46.5 31.5 65.5s50.167 28.5 87.5 28.5h1756c39.333 0 68.666 -9.33301 88 -28c20 -19.333 30 -41.333 30 -66c0 -26.667 -10.167 -49.834 -30.5 -69.5c-20.333 -19.667 -49.5 -29.5 -87.5 -29.5
h-1756zM1255 160c-36.667 46.667 -64.668 92.999 -84.001 138.999l-58 141c-19.333 48 -47 95.333 -83 142c-12 -14.667 -50.167 -64 -114.5 -148s-119.5 -151.5 -165.5 -202.5s-93.333 -95.5 -142 -133.5c-137.333 -62.667 -259 -94 -365 -94
c-62.667 0 -133.667 9.66699 -213 29c6.66699 10 24.834 42 54.501 96s58.667 83.5 87 88.5s98.833 7.5 211.5 7.5c101.333 86.667 185.5 168.834 252.5 246.501s154.833 189.5 263.5 335.5l-138.5 240.5l-181.5 318c-48.667 87 -92.334 169.833 -131.001 248.5
c-70.667 0 -117.5 2.33301 -140.5 7s-37.333 16.5 -43 35.5s-8.5 58.167 -8.5 117.5c36 8 82.333 12 139 12c114 0 271 -15 471 -45c38 -37.333 75.167 -89.166 111.5 -155.499l122.5 -229.5c45.333 -86.667 86 -152.334 122 -197.001l121 164.5
c70 95.667 130.333 174 181 235s100.334 110.833 149.001 149.5c64.667 32.667 135.667 49 213 49c82 0 161 -16.333 237 -49c16.667 -28.667 25 -60 25 -94s-8.33301 -66.667 -25 -98c-39.333 -24 -76.333 -42.833 -111 -56.5s-71.5 -24.5 -110.5 -32.5
s-80.5 -14.833 -124.5 -20.5l-137 -17.5c-28.667 -30 -75.667 -104.833 -141 -224.5s-115.333 -196.5 -150 -230.5c64.667 -172 132.167 -307.833 202.5 -407.5s165.5 -200.167 285.5 -301.5c42 0 90.5 2.83301 145.5 8.5s93.833 8.5 116.5 8.5c49.333 0 85 -14 107 -42
s38 -83.667 48 -167c-62.667 -16.667 -176 -25 -340 -25c-356 0 -575.667 50.667 -659 152z" />
    <glyph glyph-name="Z" unicode="Z" horiz-adv-x="2458" 
d="M1024 193c64 -14 143.331 -21.002 237.998 -21.002c70 0 175.5 6.16699 316.5 18.5s249.833 18.5 326.5 18.5c264.667 0 466.667 -69.667 606 -209c24.667 -57.333 37 -88.666 37 -93.999c0 -18 -12.333 -40 -37 -66l-549 33c-63.333 122.667 -243.666 184 -540.999 184
c-116 0 -268.667 -9.5 -458 -28.5s-308.333 -28.5 -357 -28.5c-54.667 -68 -179 -102 -373 -102c-22.667 0 -54 0.666992 -94 2s-67.333 2 -82 2c-5.33301 16 -8 28.333 -8 37c0 50 53.833 112.833 161.5 188.5l409 283.5c165 113.333 338.667 257 521 431
s359.166 387.667 530.499 641c-68.667 16 -183.334 24 -344.001 24c-46 0 -121.667 -0.666992 -227 -2s-185.333 -2 -240 -2c-232 0 -402.667 15 -512 45c-87.333 22 -131 150.333 -131 385h516c59.333 -152.667 246.333 -229 561 -229c60.667 0 145.334 4.5 254.001 13.5
s207.334 17.833 296.001 26.5s169.834 15.834 243.501 21.501s149.167 8.5 226.5 8.5c0 -118.667 -48 -244 -144 -376s-218.833 -268.167 -368.5 -408.5l-456.5 -430c-154.667 -146.333 -261.667 -268.5 -321 -366.5zM287.998 2322c-36.667 0 -65.667 10 -87 30
s-32 43 -32 69c0 24.667 10.5 46.5 31.5 65.5s50.167 28.5 87.5 28.5h1936c39.333 0 68.666 -9.33301 88 -28c20 -19.333 30 -41.333 30 -66c0 -26.667 -10.167 -49.834 -30.5 -69.5c-20.333 -19.667 -49.5 -29.5 -87.5 -29.5h-1936z" />
    <glyph glyph-name="bracketleft" unicode="[" horiz-adv-x="1236" 
d="M418 2670h790v-74l-282 -8c-58.667 -1.33301 -106.667 -6.66602 -144 -16c-37.333 -9.33301 -61.333 -24.666 -72 -46c-12 -21.333 -18 -54 -18 -98v-98v-2866v-98c0 -64 14.667 -105.333 44 -124c28 -20 91.333 -32 190 -36l282 -8v-74h-790v3546z" />
    <glyph glyph-name="bracketright" unicode="]" horiz-adv-x="1236" 
d="M820 -876h-792v74l284 8c100 4 164 16 192 36c26.667 18.667 40 60 40 124v98v2866v98c0 44 -5.33301 76.667 -16 98c-12 21.333 -35.333 36.666 -70 46c-36 9.33301 -84.667 14.666 -146 16l-284 8v74h792v-3546z" />
    <glyph glyph-name="asciicircum" unicode="^" horiz-adv-x="2662" 
d="M2635 2105c0 -95.333 -10.667 -185.667 -32 -271s-51.666 -145.666 -91 -180.999c-62.667 -57.333 -152.667 -86 -270 -86h-864h-71c-147.333 0 -251.666 -7.33301 -312.999 -22s-137 -54.667 -227 -120c-205.333 -150 -308 -352 -308 -606c0 -160.667 33 -278 99 -352
l55 -77.5c12.667 -18.333 33.334 -31.833 62.001 -40.5s80 -13 154 -13h115c38 0 76 1.33301 114 4c177.333 0 304.333 -24.667 381 -74c162.667 -106 244 -243.667 244 -413c0 -183.333 -47.667 -343.333 -143 -480c-58 -80.667 -141.167 -143.167 -249.5 -187.5
s-219.833 -66.5 -334.5 -66.5c-84.667 0 -158.334 22 -221.001 66c-66 43.333 -99 103.333 -99 180c0 65.333 12.333 110.333 37 135c22 22 57.667 33 107 33c27.333 0 82 -8.33301 164 -25c81.333 -16 145.333 -24 192 -24c82 0 147.667 20.333 197 61
c60 49.333 90 120.333 90 213c0 79.333 -33 134 -99 164c-68 27.333 -159.333 41 -274 41c-46.667 0 -106.834 -2.66699 -180.501 -8s-118.5 -8 -134.5 -8c-208 0 -370.667 83.333 -488 250c-117.333 163.333 -176 376.333 -176 639c0 289.333 95.667 544.666 287 765.999
c188 218 396.667 327 626 327h1086c40.667 -2.66699 77.667 -4 111 -4c92.667 0 169 9.66699 229 29c92.667 30 152.667 80.333 180 151h45zM336 2322c-36.667 0 -65.667 10.001 -87 30.001s-32 43 -32 69c0 24.667 10.5 46.5 31.5 65.5s50.167 28.5 87.5 28.5h2096
c39.333 0 68.666 -9.33301 88 -28c20 -19.333 30 -41.333 30 -66c0 -26.667 -10.167 -49.834 -30.5 -69.501s-49.5 -29.5 -87.5 -29.5h-2096z" />
    <glyph glyph-name="underscore" unicode="_" 
d="M-840 2322h1872c38 0 67.333 9.83301 88 29.5s31 42.834 31 69.5c0 25.333 -10.167 47.333 -30.5 66s-49.833 28 -88.5 28h-1872c-38 0 -67.167 -9.5 -87.5 -28.5s-30.5 -40.833 -30.5 -65.5c0 -66 39.333 -99 118 -99z" />
    <glyph glyph-name="grave" unicode="`" 
 />
    <glyph glyph-name="a" unicode="a" horiz-adv-x="2130" 
d="M2087 193c0 -84 -46.6631 -137.167 -139.996 -159.5s-207.666 -33.5 -342.999 -33.5c-54 0 -120.333 32.5 -199 97.5s-184.334 160.833 -317.001 287.5c-36.667 -24 -100.334 -71 -191.001 -141s-164 -123.333 -220 -160s-111.667 -64.667 -167 -84
c-134.667 0 -238.5 32.5 -311.5 97.5s-109.5 160.833 -109.5 287.5c18 53.333 89.167 117.333 213.5 192l343.5 212.5c104.667 67 166 136.833 184 209.5c0 62.667 -10.5 122 -31.5 178s-49.333 112.333 -85 169s-103.5 157 -203.5 301c0 33.333 29.833 62.833 89.5 88.5
s136.5 38.5 230.5 38.5c92.667 -14 176.667 -82.833 252 -206.5s177.166 -317 305.499 -580s244.666 -461.167 348.999 -594.5s221.166 -200 350.499 -200zM1026 516c-18 56 -61.667 153 -131 291l-199 -133c-62.667 -41.333 -115.5 -78.333 -158.5 -111
s-84.833 -70 -125.5 -112c-10.667 -11.333 -16 -25 -16 -41c0 -39.333 19.167 -82 57.5 -128s76.5 -69 114.5 -69c12 0 24.333 4 37 12c62 30.667 138.833 78 230.5 142s155.167 113.667 190.5 149z" />
    <glyph glyph-name="b" unicode="b" horiz-adv-x="2048" 
d="M747 840l-0.000976562 -713c0 -8 34.667 -16.167 104 -24.5s144 -12.5 224 -12.5c136 0 230 12.333 282 37c16.667 36 25 77 25 123c0 95.333 -34 199.333 -102 312s-148.667 216 -242 310c-75.333 19.333 -139.666 29 -192.999 29c-65.333 0 -98 -20.333 -98 -61z
M746.999 1130c140 0 255.501 39.001 346.501 117.001s136.5 167.667 136.5 269c0 50.667 -16.833 87.167 -50.5 109.5s-81.334 36.166 -143.001 41.499s-158.167 8 -289.5 8v-545zM264 1581c0 19.333 -13.5 36.332 -40.5 50.999s-48.833 32.334 -65.5 53.001s-25 61 -25 121
c24 24.667 213.667 37 569 37c209.333 0 407.666 -3.33301 594.999 -10c186.667 -7.33301 292.667 -16.333 318 -27c32.667 0 61.334 -27 86.001 -81s37 -104.667 37 -152c0 -38 -8 -57 -24 -57c-56 -75.333 -113.333 -142.5 -172 -201.5s-121.834 -117.5 -189.501 -175.5
s-119.5 -104.667 -155.5 -140c32.667 -39.333 75.167 -68.833 127.5 -88.5s115.333 -45.667 189 -78s137.834 -84.5 192.501 -156.5s101 -178.667 139 -320c0 -237.333 -22 -367 -66 -389c-26.667 -18 -129 -32.667 -307 -44s-372 -17 -582 -17
c-417.333 0 -626 20.333 -626 61v1614z" />
    <glyph glyph-name="c" unicode="c" horiz-adv-x="2458" 
d="M1244 -64c-212.667 0 -407.834 38.667 -585.501 116s-318.334 183 -422.001 317s-155.5 280.333 -155.5 439c0 66 7.66699 139.167 23 219.5s37.333 147.5 66 201.5c59.333 110 142.333 206 249 288s231 145.333 373 190s292.667 67 452 67s309.5 -22.5 450.5 -67.5
s264.5 -108 370.5 -189s188.833 -177 248.5 -288s89.5 -251.5 89.5 -421.5c0 -158.667 -51.667 -305 -155 -439s-243.666 -239.667 -420.999 -317s-371.666 -116 -582.999 -116zM1854 935c-13.333 141.333 -46.333 259.667 -99 355c-56 100 -126.167 179 -210.5 237
s-173.5 87 -267.5 87c-105.333 0 -202.833 -28.667 -292.5 -86s-163.167 -136 -220.5 -236c-54.667 -96.667 -88.667 -215.667 -102 -357h1192zM1854 808.001l-1192 -0.000976562c13.333 -143.333 47.333 -262.333 102 -357c56.667 -99.333 130 -177.833 220 -235.5
s187.667 -86.5 293 -86.5c94 0 183.333 29 268 87s154.667 136.667 210 236c52.667 94.667 85.667 213.334 99 356.001z" />
    <glyph glyph-name="d" unicode="d" horiz-adv-x="2212" 
d="M2160 0c0 -18 -107.167 -32.667 -321.5 -44s-455.5 -17 -723.5 -17c-664 0 -1009 20.333 -1035 61l872 1852l-131 159c0 47.333 35.667 84.5 107 111.5s145 41.833 221 44.5c52 0 82 -8.33301 90 -25zM1112 1343l-516 -1183c0 -10.667 47.333 -19.334 142 -26.001
c99.333 -7.33301 282.333 -11 549 -11c193.333 0 290 12.333 290 37z" />
    <glyph glyph-name="e" unicode="e" horiz-adv-x="2335" 
d="M667 934c9.33301 -184.667 46 -331.667 110 -441c66.667 -115.333 150.834 -207 252.501 -275s204.834 -102 309.501 -102c198.667 0 350 112 454 336h488c-72.667 -114.667 -164.167 -211 -274.5 -289s-231.166 -136 -362.499 -174s-266 -57 -404 -57
c-196.667 0 -383.834 36.667 -561.501 110s-320.834 179 -429.501 317c-51.333 66 -91.5 149.167 -120.5 249.5s-43.5 197.833 -43.5 292.5c0 128.667 33.667 246.667 101 354s158.5 199.166 273.5 275.499s243.833 134.5 386.5 174.5s289 60 439 60
c132.667 0 262 -17 388 -51s241.167 -86.333 345.5 -157s191.833 -159.667 262.5 -267h-516c-136.667 234.667 -295 352 -475 352c-129.333 0 -250 -57 -362 -171s-188 -249.333 -228 -406h901c76.667 0 132 -23.167 166 -69.5s51 -102.5 51 -168.5
c0 -41.333 -5.66699 -76.833 -17 -106.5s-23.333 -44.5 -36 -44.5c-79.333 0 -145.5 5.5 -198.5 16.5s-103.833 35.333 -152.5 73s-94.334 93.834 -137.001 168.501h-610z" />
    <glyph glyph-name="f" unicode="f" horiz-adv-x="2376" 
d="M667 840c0 -107.333 34.334 -211.33 103.001 -311.997s156.667 -181.667 264 -243s215.666 -92 324.999 -92c90 0 170.667 21.667 242 65v1389c57.333 69.333 128.333 113.166 213 131.499s185.667 27.5 303 27.5v-2646c0 -30 -86 -45 -258 -45s-258 15 -258 45v840
c-56 0 -141.333 -1.33301 -256 -4s-200 -4 -256 -4c-310.667 0 -552.667 53.5 -726 160.5s-266 325.167 -278 654.5c0 169.333 68 328.166 204 476.499s295.5 267.166 478.5 356.499s329.833 134 440.5 134c53.333 0 87.333 -11 102 -33
c0 -38.667 -27.667 -74.167 -83 -106.5l-232.5 -142c-99.667 -62.333 -179.167 -144.333 -238.5 -246s-89 -237.167 -89 -406.5z" />
    <glyph glyph-name="g" unicode="g" horiz-adv-x="1966" 
d="M680 0c0 -32.667 -86.001 -49 -258.001 -49s-258 16.333 -258 49v1581c-66 0 -99 64.333 -99 193c0 16 312.667 24 938 24c253.333 0 472.333 -2 657 -6c184.667 -4.66699 277 -10.667 277 -18c0 -128.667 -11 -214.667 -33 -258c0 -49.333 -53 -74 -159 -74
c-109.333 0 -164 24.667 -164 74v65c-115.333 16.667 -273.666 25 -474.999 25c-198.667 0 -340.667 -8.33301 -426 -25v-1581z" />
    <glyph glyph-name="h" unicode="h" horiz-adv-x="2048" 
d="M744 0c0 -24.667 -62.668 -37 -188.001 -37c-76 0 -147.5 3.83301 -214.5 11.5s-104.833 16.167 -113.5 25.5c-48.667 32.667 -73 84.667 -73 156c0 68 24.333 102 73 102v1323c-45.333 16 -73 33.5 -83 52.5s-15 54.833 -15 107.5c0 24.667 79.333 37 238 37
c92 0 177.667 -3.83301 257 -11.5s119 -16.167 119 -25.5v-516h676v483c0 18 28.833 32.667 86.5 44s121.834 17 192.501 17c136.667 0 205 -20.333 205 -61v-1708c0 -32.667 -80.667 -49 -242 -49s-242 16.333 -242 49v1032h-676v-1032z" />
    <glyph glyph-name="i" unicode="i" horiz-adv-x="983" 
d="M772 0c-16 -32.667 -102 -49 -258 -49c-155.333 0 -241.333 16.333 -258 49c-57.333 57.333 -86 131 -86 221c0 82 28.667 136.667 86 164v1196c-42.667 0 -69.667 15.833 -81 47.5s-17 80.167 -17 145.5c0 8 32.333 15.333 97 22s134.667 10 210 10
c204.667 0 307 -21.667 307 -65v-1741z" />
    <glyph glyph-name="j" unicode="j" horiz-adv-x="2458" 
d="M1131 659c-26.667 -32.667 -77.667 -90.667 -153 -174l-159.5 -177.5c-49 -55 -90.833 -104.167 -125.5 -147.5c96 -16.667 221.667 -25 377 -25c156.667 0 289 8.33301 397 25c-44 57.333 -103 139 -177 245c-24.667 34.667 -54 81.667 -88 141s-57.667 97 -71 113z
M71 356c55.333 0 106.005 -8.33301 152.005 -25c47.333 -16.667 97.666 -52 150.999 -106c255.333 219.333 469.666 444.666 642.999 675.999c-35.333 63.333 -69 127.333 -101 192l-128 264l-124 257c-72.667 0 -120.5 2.33301 -143.5 7s-37.5 16.5 -43.5 35.5
s-9 58.167 -9 117.5c117.333 30 271.666 45 462.999 45c81.333 0 153.666 -4.33301 216.999 -13l21.5 -30c8.33301 -11.333 18.666 -27.833 30.999 -49.5s23.5 -45.167 33.5 -70.5c48 -120.667 78 -190.667 90 -210c6 -10 22.333 -39.333 49 -88s47 -82.334 61 -101.001
c145.333 178 297 328.333 455 451c65.333 32.667 136.333 49 213 49c81.333 0 160.666 -16.333 237.999 -49c16 -29.333 24 -60.666 24 -93.999s-8 -66 -24 -98c-48.667 -30 -96.667 -52.5 -144 -67.5s-111 -28 -191 -39l-149 -20.5
c-184.667 -186 -300.667 -296.667 -348 -332c14 -47.333 50 -117.666 108 -210.999c66.667 -106.667 114 -179.667 142 -219c2 -2.66699 20.333 -32 55 -88s65.667 -100.333 93 -133c68.667 -81.333 116.334 -141.666 143.001 -180.999c44.667 0 94.834 2.83301 150.501 8.5
s94.167 8.5 115.5 8.5c49.333 0 85.333 -14.167 108 -42.5s38.667 -83.833 48 -166.5c-104.667 -24.667 -448.667 -37 -1032 -37c-404.667 0 -715 3 -931 9c-216.667 5.33301 -392.334 14.666 -527.001 27.999c-19.333 18 -29 57.667 -29 119
c0 79.333 39.667 147.333 119 204z" />
    <glyph glyph-name="k" unicode="k" horiz-adv-x="1884" 
d="M125 1774c0 8 32.334 15.332 97.001 21.999s134.667 10 210 10c205.333 0 308 -21.667 308 -65v-643c98.667 18.667 174.667 54.167 228 106.5s90 108.833 110 169.5s46.333 161 79 301c-46.667 0 -74.667 3.5 -84 10.5s-14 25.5 -14 55.5
c16.667 32.667 117.667 49 303 49c186 0 279 -16.333 279 -49c-20 -126 -59.167 -229 -117.5 -309s-129.833 -148 -214.5 -204l-250 -163c118 -101.333 219.5 -196 304.5 -284s155.167 -168.833 210.5 -242.5s107.333 -152 156 -235s105 -184.167 169 -303.5h-418
c-82 48.667 -152.333 114.667 -211 198s-122.834 190.5 -192.501 321.5s-128.334 227.333 -176.001 289s-101.5 92.5 -161.5 92.5v-901c-16.667 -32.667 -102.667 -49 -258 -49c-156 0 -242 16.333 -258 49c-57.333 56 -86 129.667 -86 221
c0 82.667 28.667 137.334 86 164.001v1196c-43.333 0 -70.666 15.833 -81.999 47.5s-17 80.167 -17 145.5z" />
    <glyph glyph-name="l" unicode="l" horiz-adv-x="2048" 
d="M16 0c0 36 35.4961 88.665 106.496 157.998s147.167 135.833 228.5 199.5l312 239.5l144.5 106c77.667 56.667 119.834 88.667 126.501 96c-74 122 -119.333 204.333 -136 247c-27.333 68.667 -54.5 126.834 -81.5 174.501s-70.333 115 -130 202l-152.5 224.5
c0 33.333 30.167 62.833 90.5 88.5s138.166 38.5 233.499 38.5c91.333 -14 174.333 -82.5 249 -205.5s176.334 -316.5 305.001 -580.5s245.334 -462.5 350.001 -595.5s222.334 -199.5 353.001 -199.5c0 -84 -47 -137.167 -141 -159.5s-208 -33.5 -342 -33.5
c-38 0 -84.333 35.667 -139 107c-3.33301 4.66699 -28.666 36.334 -75.999 95.001s-86.333 110 -117 154c-100 144 -152 218 -156 222c-2 -1.33301 -30.5 -27.333 -85.5 -78s-115.167 -100 -180.5 -148l-372 -274c-92 -68.667 -192 -103 -300 -103c-30 0 -60 8.33301 -90 25
z" />
    <glyph glyph-name="m" unicode="m" horiz-adv-x="2499" 
d="M743 225c22 -21.333 43.6699 -32 65.0029 -32c14 -27.333 21 -63 21 -107s-7 -72.667 -21 -86c-80 -32.667 -193.333 -49 -340 -49c-144.667 0 -225 16.333 -241 49v1581c-42.667 0 -69.667 15.833 -81 47.5s-17 80.167 -17 145.5c0 21.333 161 32 483 32
c36 -40 93.667 -112.5 173 -217.5l209 -271.5c60 -76 115 -137 165 -183s94.333 -69 133 -69c81.333 10.667 165 58.667 251 144s157.167 185 213.5 299s84.5 213.333 84.5 298c16 16.667 100.667 25 254 25c152.667 0 229 -8.33301 229 -25v-1806
c0 -32.667 -76.333 -49 -229 -49c-153.333 0 -238 16.333 -254 49v1225c-40.667 -24 -102.334 -67.333 -185.001 -130s-152.334 -110.667 -209.001 -144s-108.334 -50 -155.001 -50c-40 0 -81.5 9.5 -124.5 28.5s-89.333 45.167 -139 78.5s-106.5 75.333 -170.5 126l-115 91
v-1000z" />
    <glyph glyph-name="n" unicode="n" horiz-adv-x="2499" 
d="M743 225c22 -21.333 43.6689 -32.001 65.002 -32.001c14 -27.333 21 -63 21 -107s-7 -72.667 -21 -86c-80 -32.667 -193.333 -49 -340 -49c-144.667 0 -225 16.333 -241 49v1581c-42.667 0 -69.667 15.833 -81 47.5s-17 80.167 -17 145.5c0 21.333 161 32 483 32
c35.333 -20.667 122.166 -105.167 260.499 -253.5l410 -438c135 -143.667 252.667 -263 353 -358s168.833 -142.5 205.5 -142.5v1192c16 16.667 100.667 25 254 25c152.667 0 229 -8.33301 229 -25v-1806c0 -32.667 -76.333 -49 -229 -49c-153.333 0 -238 16.333 -254 49
v324c-79.333 64 -212.333 186.333 -399 367s-333.334 314.834 -440.001 402.501s-193 131.5 -259 131.5v-1000z" />
    <glyph glyph-name="o" unicode="o" horiz-adv-x="2458" 
d="M1256 -64c-212.667 0 -407.836 38.667 -585.503 116s-318.167 183 -421.5 317c-49.333 64 -87.666 142.5 -114.999 235.5s-41 182.167 -41 267.5c0 128 29.667 247 89 357s142.333 206 249 288s231 145.333 373 190s292.667 67 452 67s309.5 -22.5 450.5 -67.5
s264.5 -108 370.5 -189s188.833 -176.833 248.5 -287.5s89.5 -230 89.5 -358c0 -84.667 -13.667 -174 -41 -268s-65.333 -172.333 -114 -235c-103.333 -134 -243.666 -239.667 -420.999 -317s-371.666 -116 -582.999 -116zM1289 129c79.333 0 153.667 18.334 223 55.001
s130.833 88.167 184.5 154.5s95.5 142.5 125.5 228.5c29.333 86.667 44 198 44 334c0 128 -25.833 246.667 -77.5 356s-121.834 196.166 -210.501 260.499s-185 96.5 -289 96.5c-106.667 0 -207.167 -32.333 -301.5 -97s-170.166 -151.834 -227.499 -261.501
s-86 -227.834 -86 -354.501c0 -167.333 28.667 -305.666 86 -414.999s133.333 -196.166 228 -260.499s195 -96.5 301 -96.5z" />
    <glyph glyph-name="p" unicode="p" horiz-adv-x="2458" 
d="M1708 1581c-85.333 16.667 -228.667 25 -430 25c-198 0 -356.333 -8.33301 -475 -25v-1581c0 -32.667 -86 -49 -258 -49s-258 16.333 -258 49v1581c-85.333 0 -149.666 5.33301 -192.999 16s-65 36.667 -65 78s11.5 68.166 34.5 80.499s65.833 18.5 128.5 18.5
c211.333 10.667 447.666 16 708.999 16c104 0 248.333 -1.33301 433 -4l552 -8c184 -2.66699 328 -4 432 -4c63.333 0 106.5 -6.16699 129.5 -18.5s34.5 -39.166 34.5 -80.499c0 -42.667 -18.833 -69 -56.5 -79s-104.834 -15 -201.5 -15v-1581c0 -32.667 -86 -49 -258 -49
s-258 16.333 -258 49v1581z" />
    <glyph glyph-name="q" unicode="q" horiz-adv-x="2007" 
d="M1077 1545c60 6 108 9.00098 144 9.00098c176.667 0 319.334 -34.167 428.001 -102.5s186 -158.833 232 -271.5s69 -259.334 69 -440.001c0 -60.667 -11.667 -140 -35 -238s-54 -165 -92 -201c-10.667 -9.33301 -39.834 -41 -87.501 -95s-91.167 -97.667 -130.5 -131
s-80.333 -56.666 -123 -69.999c-144.667 -46 -301.334 -69 -470.001 -69c-169.333 0 -325.666 23 -468.999 69c-116 36 -228.667 140 -338 312c-30 48 -58.667 118.167 -86 210.5s-41 163.166 -41 212.499c0 83.333 12.5 172.666 37.5 267.999s60.167 177 105.5 245
c94.667 142 227.167 271.5 397.5 388.5s367 216.833 590 299.5s459.167 144.667 708.5 186.001c46.667 -24.667 70 -65.667 70 -123c0 -43.333 -14.667 -80 -44 -110s-73.333 -45 -132 -45c-42 0 -81.667 6.66699 -119 20c-125.333 -40.667 -226 -79.167 -302 -115.5
s-180.333 -105.833 -313 -208.5zM1012 273.001c143.333 0 265.332 29.3311 365.999 87.998c49.333 30 97.666 90.833 144.999 182.5s71 167.834 71 228.501c0 73.333 -16.333 151 -49 233s-71 148.333 -115 199c-41.333 48 -93.666 84.833 -156.999 110.5
s-128.666 38.5 -195.999 38.5c-84.667 0 -167.334 -23 -248.001 -69s-145.5 -108.5 -194.5 -187.5s-73.5 -186.833 -73.5 -323.5c0 -81.333 17.167 -160.666 51.5 -237.999s85.833 -140.333 154.5 -189s150.334 -73 245.001 -73z" />
    <glyph glyph-name="r" unicode="r" horiz-adv-x="1966" 
d="M291 1774v-2614c30.667 -30 116.667 -45 258 -45s227.333 15 258 45v1323c45.333 45.333 121.333 81 228 107s237 60.333 391 103s272.333 106.5 355 191.5s124 209.167 124 372.5c0 144 -22.667 257.167 -68 339.5s-123 142 -233 179s-263.667 55.5 -461 55.5
c-196.667 0 -480.667 -19 -852 -57zM807 709v966c164.667 0 289 -11 373 -33s141.167 -58 171.5 -108s45.5 -121.667 45.5 -215c0 -29.333 -2.66699 -82.666 -8 -159.999c0 -124.667 -39.333 -220.334 -118 -287.001s-163 -110.5 -253 -131.5s-160.333 -31.5 -211 -31.5z
" />
    <glyph glyph-name="s" unicode="s" horiz-adv-x="2335" 
d="M85 901c0 128.667 33.667 246.668 101 354.001s158.5 199.166 273.5 275.499s243.833 134.5 386.5 174.5s289 60 439 60c132.667 0 262 -17 388 -51s241.167 -86.333 345.5 -157s191.833 -159.667 262.5 -267h-516c-140 238 -301.333 357 -484 357
c-105.333 0 -205.333 -38.5 -300 -115.5s-170.667 -176.333 -228 -298s-86 -242.167 -86 -361.5c0 -163.333 32.333 -298.333 97 -405c64 -108 147.167 -194.167 249.5 -258.5s206.5 -96.5 312.5 -96.5c204.667 0 360.334 113.333 467.001 340h488
c-72.667 -114.667 -164.167 -211 -274.5 -289s-231.166 -136 -362.499 -174s-266 -57 -404 -57c-196.667 0 -383.834 36.667 -561.501 110s-320.834 179 -429.501 317c-51.333 66 -91.5 149.167 -120.5 249.5s-43.5 197.833 -43.5 292.5z" />
    <glyph glyph-name="t" unicode="t" horiz-adv-x="2294" 
d="M1440 1614l-0.00292969 -1614c-52 -16.667 -143.667 -25 -275 -25s-222.666 8.33301 -273.999 25v1614c-160.667 0 -273.667 -11 -339 -33c-19.333 -95.333 -45.833 -160.166 -79.5 -194.499s-82.167 -51.5 -145.5 -51.5c-49.333 0 -124.666 7 -225.999 21
c-13.333 72 -20 140.333 -20 205c0 106.667 17.667 177.667 53 213c274 16 611.333 24 1012 24s762.334 -8 1085 -24c16.667 -49.333 25 -117.666 25 -204.999c0 -88.667 -8.33301 -148.667 -25 -180c-44.667 0 -90 -1.5 -136 -4.5s-75.667 -4.5 -89 -4.5
c-60 0 -105 12.667 -135 38s-60 79.666 -90 162.999c-66 22 -179.667 33 -341 33z" />
    <glyph glyph-name="u" unicode="u" horiz-adv-x="2212" 
d="M887 291l-153.502 353.999l-227.5 503c-77.333 166 -144 299.333 -200 400c-136.667 0 -205 49.333 -205 148c0 23.333 4 49.333 12 78c34 32.667 105 49 213 49c112.667 0 192 -16.333 238 -49c37.333 -36 79 -107.167 125 -213.5s106.5 -257.666 181.5 -453.999
s132.667 -340 173 -431s74.166 -144.167 101.499 -159.5c36.667 30 86 110.833 148 242.5l220 461.5c84.667 176 168.167 316.333 250.5 421s165.833 157 250.5 157c32.667 0 65.334 -8 98.001 -24c30 -30 45 -65.667 45 -107c0 -66 -35.333 -116.333 -106 -151
c-69.333 -10 -149.166 -82 -239.499 -216s-173 -281 -248 -441s-128.167 -285.333 -159.5 -376v-1323c-73.333 -30 -159.666 -45 -258.999 -45c-95.333 0 -181.333 15 -258 45v1131z" />
    <glyph glyph-name="v" unicode="v" horiz-adv-x="2458" 
d="M998 -31c-170.667 22 -325.002 72.8271 -463.002 152.494s-246 179.834 -324 300.501c-37.333 58 -66.333 129.333 -87 214s-31 163.334 -31 236.001c0 145.333 38.833 278.333 116.5 399s185.334 221.334 323.001 302.001s292.834 136.667 465.501 168v225
c-57.333 0 -86 43.667 -86 131c0 40.667 6.66699 72 20 94c96 16.667 205.333 25 328 25c121.333 0 206 -8.33301 254 -25v-450c172 -31.333 326.5 -87.166 463.5 -167.499s244.167 -180.666 321.5 -300.999s116 -253.833 116 -400.5c0 -146 -22.167 -266.167 -66.5 -360.5
s-107.666 -179.666 -190 -255.999c-82.333 -76.333 -178.333 -139 -288 -188s-228.5 -81.833 -356.5 -98.5v-809c0 -30 -86 -45 -258 -45s-258 15 -258 45v809zM1514 193.994c111.333 48 197.833 130.666 259.5 247.999s92.5 270.333 92.5 459
c0 141.333 -33.833 271.833 -101.5 391.5s-151.167 204.834 -250.5 255.501v-1354zM997.998 226.993l-0.000976562 1289c-98 -63.333 -176.5 -150 -235.5 -260s-88.5 -228.333 -88.5 -355c0 -172.667 29.833 -316.667 89.5 -432s137.834 -196 234.501 -242z" />
    <glyph glyph-name="w" unicode="w" horiz-adv-x="2744" 
d="M885 1708c-50.667 -57.333 -97.8311 -131.668 -141.498 -223.001s-79.5 -192.333 -107.5 -303s-42 -219.334 -42 -326.001c0 -118 19.167 -224.833 57.5 -320.5s100.833 -174 187.5 -235s199 -96.833 337 -107.5v1323c-57.333 0 -86 42 -86 126c0 38 6.66699 71 20 99
c99.333 16 208.666 24 327.999 24c120.667 0 205.334 -8 254.001 -24v-1548c113.333 0 210.333 28.833 291 86.5s141 138 181 241s60 220.167 60 351.5c0 182.667 -38 375.334 -114 578.001c-62.667 39.333 -103 66.666 -121 81.999s-31.333 35.833 -40 61.5
s-19.334 74.834 -32.001 147.501c81.333 32.667 182.333 49 303 49s213.667 -16.333 279 -49c66 -148.667 114.5 -282 145.5 -400s46.5 -232 46.5 -342c-10.667 -202.667 -75 -383.5 -193 -542.5s-266.833 -285.333 -446.5 -379s-365.167 -152.167 -556.5 -175.5
c-106.667 65.333 -207.667 98 -303 98c-58 0 -146.667 -16.333 -266 -49s-219 -49 -299 -49c-130.667 54.667 -236.334 126.334 -317.001 215.001s-139.5 202.167 -176.5 340.5s-55.5 308.166 -55.5 509.499c0 112.667 45.333 232.834 136 360.501s195.667 236 315 325
s213.333 133.5 282 133.5c49.333 0 74 -26 74 -78z" />
    <glyph glyph-name="x" unicode="x" horiz-adv-x="1966" 
d="M2090 -516c-19.333 -120 -110.995 -215.5 -274.995 -286.5s-356.333 -106.5 -577 -106.5c-196.667 0 -385.334 29.5 -566.001 88.5s-328.167 149.833 -442.5 272.5s-171.5 272.667 -171.5 450c7.33301 48 76.333 115.5 207 202.5l429 282.5
c155.333 101.333 288.666 208.833 399.999 322.5s174.333 232.167 189 355.5c-17.333 308.667 -129.333 463 -336 463c-49.333 0 -120.333 -15 -213 -45c-14 -14.667 -21 -49 -21 -103c0 -22.667 2.16699 -61.834 6.5 -117.501s6.5 -101.167 6.5 -136.5
c0 -61.333 -8.33301 -103.666 -25 -126.999c-31.333 -33.333 -100.166 -68.166 -206.499 -104.499s-198.5 -54.5 -276.5 -54.5c-22 54 -33 115.333 -33 184c0 139.333 52.667 271.166 158 395.499s238.333 223.333 399 297s317.667 110.5 471 110.5
c139.333 0 258.666 -33.667 357.999 -101s164.333 -170.333 195 -309c0 -143.333 -39.833 -280 -119.5 -410s-172.834 -243.333 -279.501 -340s-237.667 -204.167 -393 -322.5s-256 -200.5 -302 -246.5c105.333 -450.667 337.666 -676 696.999 -676
c77.333 0 144.666 5.83301 201.999 17.5s137.5 30.167 240.5 55.5s171.167 38 204.5 38c46 0 70.667 -16.333 74 -49z" />
    <glyph glyph-name="y" unicode="y" horiz-adv-x="2253" 
d="M1255 160c-36.667 46.667 -64.668 92.999 -84.001 138.999l-58 141c-19.333 48 -47 95.333 -83 142c-12 -14.667 -50.167 -64 -114.5 -148s-119.5 -151.5 -165.5 -202.5s-93.333 -95.5 -142 -133.5c-137.333 -62.667 -259 -94 -365 -94
c-62.667 0 -133.667 9.66699 -213 29c6.66699 10 24.834 42 54.501 96s58.667 83.5 87 88.5s98.833 7.5 211.5 7.5c101.333 86.667 185.5 168.834 252.5 246.501s154.833 189.5 263.5 335.5l-138.5 240.5l-181.5 318c-48.667 87 -92.334 169.833 -131.001 248.5
c-70.667 0 -117.5 2.33301 -140.5 7s-37.333 16.5 -43 35.5s-8.5 58.167 -8.5 117.5c36 8 82.333 12 139 12c114 0 271 -15 471 -45c38 -37.333 75.167 -89.166 111.5 -155.499l122.5 -229.5c45.333 -86.667 86 -152.334 122 -197.001l121 164.5
c70 95.667 130.333 174 181 235s100.334 110.833 149.001 149.5c64.667 32.667 135.667 49 213 49c82 0 161 -16.333 237 -49c16.667 -28.667 25 -60 25 -94s-8.33301 -66.667 -25 -98c-39.333 -24 -76.333 -42.833 -111 -56.5s-71.5 -24.5 -110.5 -32.5
s-80.5 -14.833 -124.5 -20.5l-137 -17.5c-28.667 -30 -75.667 -104.833 -141 -224.5s-115.333 -196.5 -150 -230.5c64.667 -172 132.167 -307.833 202.5 -407.5s165.5 -200.167 285.5 -301.5c42 0 90.5 2.83301 145.5 8.5s93.833 8.5 116.5 8.5c49.333 0 85 -14 107 -42
s38 -83.667 48 -167c-62.667 -16.667 -176 -25 -340 -25c-356 0 -575.667 50.667 -659 152z" />
    <glyph glyph-name="z" unicode="z" horiz-adv-x="2458" 
d="M1004 193c64 -14 143.331 -21.002 237.998 -21.002c70 0 175.5 6.16699 316.5 18.5s249.833 18.5 326.5 18.5c264.667 0 466.667 -69.667 606 -209c24.667 -57.333 37 -88.666 37 -93.999c0 -18 -12.333 -40 -37 -66l-549 33c-63.333 122.667 -243.666 184 -540.999 184
c-116 0 -268.667 -9.5 -458 -28.5s-308.333 -28.5 -357 -28.5c-54.667 -68 -179 -102 -373 -102c-22.667 0 -54 0.666992 -94 2s-67.333 2 -82 2c-5.33301 16 -8 28.333 -8 37c0 50 53.833 112.833 161.5 188.5l409 283.5c165 113.333 338.667 257 521 431
s359.166 387.667 530.499 641c-68.667 16 -183.334 24 -344.001 24c-46 0 -121.667 -0.666992 -227 -2s-185.333 -2 -240 -2c-232 0 -402.667 15 -512 45c-87.333 22 -131 150.333 -131 385h516c59.333 -152.667 246.333 -229 561 -229c60.667 0 145.334 4.5 254.001 13.5
s207.334 17.833 296.001 26.5s169.834 15.834 243.501 21.501s149.167 8.5 226.5 8.5c0 -118.667 -48 -244 -144 -376s-218.833 -268.167 -368.5 -408.5l-456.5 -430c-154.667 -146.333 -261.667 -268.5 -321 -366.5z" />
    <glyph glyph-name="braceleft" unicode="{" horiz-adv-x="1962" 
d="M422 860l0.00195312 74.0029c136 25.333 245.333 76 328 152c81.333 76 122 166 122 270c0 68 -16 167.333 -48 298c-28 116 -42 222.667 -42 320s18.667 190 56 278s90.666 168 159.999 240c68 70.667 148.667 128.667 242 174s192 74 296 86v-74
c-148 -26.667 -262.667 -82 -344 -166s-122 -188 -122 -312c0 -77.333 12 -176 36 -296c29.333 -144 44 -256 44 -336c0 -172 -70.667 -324.667 -212 -458c-53.333 -52 -103.333 -91.333 -150 -118c-48 -28 -116.667 -58 -206 -90c184 -72 324.667 -165.333 422 -280
s146 -245.334 146 -392.001c0 -85.333 -13.333 -196 -40 -332c-24 -116 -36 -214.667 -36 -296c0 -121.333 39.333 -223.333 118 -306c77.333 -84 192 -144 344 -180v-70c-142.667 17.333 -271.334 62.666 -386.001 135.999c-114.667 72 -204 164 -268 276
s-96 232.667 -96 362c0 93.333 14 195.333 42 306c32 141.333 48 242.666 48 303.999c0 110.667 -40.667 204 -122 280c-81.333 74.667 -192 124.667 -332 150z" />
    <glyph glyph-name="braceright" unicode="}" horiz-adv-x="1962" 
d="M1544 938l0.00390625 -78c-137.333 -22.667 -247.333 -72.667 -330 -150s-124 -166.666 -124 -267.999c0 -68 16 -167.333 48 -298c30.667 -126.667 46 -233.334 46 -320.001c0 -97.333 -18.667 -190 -56 -278c-38.667 -89.333 -93.334 -170 -164.001 -242
s-151.334 -129.333 -242.001 -172c-90.667 -44 -189.334 -72.667 -296.001 -86v74c145.333 25.333 259.333 80 342 164s124 187.333 124 310c0 80 -12 180 -36 300c-29.333 144 -44 256 -44 336c0 168 70.667 320.667 212 458c56 53.333 106.667 94 152 122
c45.333 26.667 113.333 56 204 88c-185.333 72 -326 166 -422 282c-97.333 114.667 -146 244 -146 388c0 72 14.667 182.667 44 332c21.333 124 32 221.333 32 292c0 253.333 -154 416.666 -462 490v70c109.333 -13.333 210.666 -42.666 303.999 -88
c93.333 -45.333 173.333 -102 240 -170c65.333 -68 116.666 -146.667 153.999 -236s56 -182.666 56 -280c0 -84 -15.333 -186 -46 -306c-32 -141.333 -48 -242.666 -48 -303.999c0 -106.667 40 -197.334 120 -272.001c78.667 -76 191.334 -128.667 338.001 -158z" />
    <glyph glyph-name="u008D" horiz-adv-x="1236" 
d="M500 1220h-274v1450h790v-74l-282 -8c-58.667 -1.33301 -106.667 -6.66602 -144 -16c-37.333 -9.33301 -61.333 -24.666 -72 -46c-12 -21.333 -18 -54 -18 -98v-98v-1110z" />
    <glyph glyph-name="u008E" horiz-adv-x="1236" 
d="M732 1220v1110v98c0 44 -6 76.667 -18 98c-10.667 21.333 -34.667 36.666 -72 46c-37.333 9.33301 -85.333 14.666 -144 16l-282 8v74h790v-1450h-274z" />
    <glyph glyph-name="nonbreakingspace" unicode="&#xa0;" horiz-adv-x="2191" 
 />
    <glyph glyph-name="yen" unicode="&#xa5;" horiz-adv-x="2744" 
d="M2499 1741c112 -200 168.006 -402.002 168.006 -606.002c0 -30.667 -2.66699 -76 -8 -136c-10.667 -284 -97.334 -559.5 -260 -826.5c-162.667 -267 -373.5 -488.833 -632.5 -665.5s-531.167 -281.334 -816.5 -314.001c-8 21.333 -12 40.333 -12 57
c0 52 26 93.333 78 124s156.167 81.834 312.5 153.501s285.666 145.334 387.999 221.001s180.166 170.5 233.499 284.5c-136 -54.667 -287.667 -98.334 -455 -131.001c-106.667 65.333 -207.667 98 -303 98c-58 0 -146.667 -16.333 -266 -49s-219 -49 -299 -49
c-130.667 54.667 -236.334 126.334 -317.001 215.001s-139.5 202.167 -176.5 340.5s-55.5 308.166 -55.5 509.499c0 112.667 45.333 232.834 136 360.501s195.667 236 315 325s213.333 133.5 282 133.5c49.333 0 74 -26 74 -78
c-50.667 -57.333 -97.834 -131.666 -141.501 -222.999s-79.5 -192.333 -107.5 -303s-42 -219.334 -42 -326.001c0 -118 19.167 -224.833 57.5 -320.5s100.833 -174 187.5 -235s199 -96.833 337 -107.5v1323c-57.333 0 -86 42 -86 126c0 38 6.66699 71 20 99
c99.333 16 208.666 24 327.999 24c120.667 0 205.334 -8 254.001 -24v-1548c113.333 0 210.333 28.833 291 86.5s141 138 181 241s60 220.167 60 351.5c0 182.667 -38 375.334 -114 578.001c-62.667 39.333 -103 66.666 -121 81.999s-31.333 35.833 -40 61.5
s-19.334 74.834 -32.001 147.501c81.333 32.667 182.333 49 302.999 49c120.667 0 213.667 -16.333 279 -49z" />
    <glyph glyph-name="Agrave" unicode="&#xc0;" 
 />
    <glyph glyph-name="Aacute" unicode="&#xc1;" 
 />
    <glyph glyph-name="Acircumflex" unicode="&#xc2;" 
 />
    <glyph glyph-name="Atilde" unicode="&#xc3;" 
 />
    <glyph glyph-name="Adieresis" unicode="&#xc4;" 
 />
    <glyph glyph-name="Aring" unicode="&#xc5;" 
 />
    <glyph glyph-name="AE" unicode="&#xc6;" 
 />
    <glyph glyph-name="Ccedilla" unicode="&#xc7;" 
 />
    <glyph glyph-name="Egrave" unicode="&#xc8;" 
 />
    <glyph glyph-name="Eacute" unicode="&#xc9;" 
 />
    <glyph glyph-name="Ecircumflex" unicode="&#xca;" 
 />
    <glyph glyph-name="Edieresis" unicode="&#xcb;" 
 />
    <glyph glyph-name="Igrave" unicode="&#xcc;" 
 />
    <glyph glyph-name="Iacute" unicode="&#xcd;" 
 />
    <glyph glyph-name="Icircumflex" unicode="&#xce;" 
 />
    <glyph glyph-name="Idieresis" unicode="&#xcf;" 
 />
    <glyph glyph-name="Eth" unicode="&#xd0;" 
 />
    <glyph glyph-name="Ntilde" unicode="&#xd1;" 
 />
    <glyph glyph-name="Ograve" unicode="&#xd2;" 
 />
    <glyph glyph-name="Oacute" unicode="&#xd3;" 
 />
    <glyph glyph-name="Ocircumflex" unicode="&#xd4;" 
 />
    <glyph glyph-name="Otilde" unicode="&#xd5;" 
 />
    <glyph glyph-name="Odieresis" unicode="&#xd6;" 
 />
    <glyph glyph-name="Oslash" unicode="&#xd8;" 
 />
    <glyph glyph-name="Ugrave" unicode="&#xd9;" 
 />
    <glyph glyph-name="Uacute" unicode="&#xda;" 
 />
    <glyph glyph-name="Ucircumflex" unicode="&#xdb;" 
 />
    <glyph glyph-name="Udieresis" unicode="&#xdc;" 
 />
    <glyph glyph-name="Yacute" unicode="&#xdd;" horiz-adv-x="2744" 
d="M2499 1741c112 -200 168.006 -402.002 168.006 -606.002c0 -30.667 -2.66699 -76 -8 -136c-10.667 -284 -97.334 -559.5 -260 -826.5c-162.667 -267 -373.5 -488.833 -632.5 -665.5s-531.167 -281.334 -816.5 -314.001c-8 21.333 -12 40.333 -12 57
c0 52 26 93.333 78 124s156.167 81.834 312.5 153.501s285.666 145.334 387.999 221.001s180.166 170.5 233.499 284.5c-136 -54.667 -287.667 -98.334 -455 -131.001c-106.667 65.333 -207.667 98 -303 98c-58 0 -146.667 -16.333 -266 -49s-219 -49 -299 -49
c-130.667 54.667 -236.334 126.334 -317.001 215.001s-139.5 202.167 -176.5 340.5s-55.5 308.166 -55.5 509.499c0 112.667 45.333 232.834 136 360.501s195.667 236 315 325s213.333 133.5 282 133.5c49.333 0 74 -26 74 -78
c-50.667 -57.333 -97.834 -131.666 -141.501 -222.999s-79.5 -192.333 -107.5 -303s-42 -219.334 -42 -326.001c0 -118 19.167 -224.833 57.5 -320.5s100.833 -174 187.5 -235s199 -96.833 337 -107.5v1323c-57.333 0 -86 42 -86 126c0 38 6.66699 71 20 99
c99.333 16 208.666 24 327.999 24c120.667 0 205.334 -8 254.001 -24v-1548c113.333 0 210.333 28.833 291 86.5s141 138 181 241s60 220.167 60 351.5c0 182.667 -38 375.334 -114 578.001c-62.667 39.333 -103 66.666 -121 81.999s-31.333 35.833 -40 61.5
s-19.334 74.834 -32.001 147.501c81.333 32.667 182.333 49 302.999 49c120.667 0 213.667 -16.333 279 -49zM336.006 2322c-36.667 0 -65.667 10 -87 30s-32 43 -32 69c0 24.667 10.5 46.5 31.5 65.5s50.167 28.5 87.5 28.5h2016c39.333 0 68.666 -9.33301 88 -28
c20 -19.333 30 -41.333 30 -66c0 -26.667 -10.167 -49.834 -30.5 -69.5c-20.333 -19.667 -49.5 -29.5 -87.5 -29.5h-2016z" />
    <glyph glyph-name="Thorn" unicode="&#xde;" 
 />
    <glyph glyph-name="germandbls" unicode="&#xdf;" 
 />
    <glyph glyph-name="agrave" unicode="&#xe0;" 
 />
    <glyph glyph-name="aacute" unicode="&#xe1;" 
 />
    <glyph glyph-name="acircumflex" unicode="&#xe2;" 
 />
    <glyph glyph-name="ocircumflex" unicode="&#xf4;" horiz-adv-x="967" 
d="M385 0h455l94 451h-451z" />
    <glyph glyph-name="OE" unicode="&#x152;" 
 />
    <glyph glyph-name="scaron" unicode="&#x161;" horiz-adv-x="2744" 
d="M2499 1741c112 -200 168.006 -402.002 168.006 -606.002c0 -30.667 -2.66699 -76 -8 -136c-10.667 -284 -97.334 -559.5 -260 -826.5c-162.667 -267 -373.5 -488.833 -632.5 -665.5s-531.167 -281.334 -816.5 -314.001c-8 21.333 -12 40.333 -12 57
c0 52 26 93.333 78 124s156.167 81.834 312.5 153.501s285.666 145.334 387.999 221.001s180.166 170.5 233.499 284.5c-136 -54.667 -287.667 -98.334 -455 -131.001c-106.667 65.333 -207.667 98 -303 98c-58 0 -146.667 -16.333 -266 -49s-219 -49 -299 -49
c-130.667 54.667 -236.334 126.334 -317.001 215.001s-139.5 202.167 -176.5 340.5s-55.5 308.166 -55.5 509.499c0 112.667 45.333 232.834 136 360.501s195.667 236 315 325s213.333 133.5 282 133.5c49.333 0 74 -26 74 -78
c-50.667 -57.333 -97.834 -131.666 -141.501 -222.999s-79.5 -192.333 -107.5 -303s-42 -219.334 -42 -326.001c0 -118 19.167 -224.833 57.5 -320.5s100.833 -174 187.5 -235s199 -96.833 337 -107.5v1323c-57.333 0 -86 42 -86 126c0 38 6.66699 71 20 99
c99.333 16 208.666 24 327.999 24c120.667 0 205.334 -8 254.001 -24v-1548c113.333 0 210.333 28.833 291 86.5s141 138 181 241s60 220.167 60 351.5c0 182.667 -38 375.334 -114 578.001c-62.667 39.333 -103 66.666 -121 81.999s-31.333 35.833 -40 61.5
s-19.334 74.834 -32.001 147.501c81.333 32.667 182.333 49 302.999 49c120.667 0 213.667 -16.333 279 -49z" />
    <glyph glyph-name="quoteright" unicode="&#x2019;" 
 />
    <glyph glyph-name="dagger" unicode="&#x2020;" 
 />
    <glyph glyph-name="daggerdbl" unicode="&#x2021;" 
 />
    <glyph glyph-name=".null" 
 />
    <glyph glyph-name="nonmarkingreturn" 
 />
    </font>
</defs>
</svg>
