<?xml version="1.0" standalone="no"?>
<!DOCTYPE svg PUBLIC "-//W3C//DTD SVG 1.1//EN" "http://www.w3.org/Graphics/SVG/1.1/DTD/svg11.dtd" >
<svg>
<metadata>
Created by FontForge 20090914 at Thu Jul  2 21:34:16 2015
 By www-data
&#194;&#169;1998 Scholars Press
</metadata>
<defs>
<font id="SPIonic" horiz-adv-x="0" >
  <font-face 
    font-family="SPIonic"
    font-weight="400"
    font-stretch="normal"
    units-per-em="2048"
    panose-1="0 0 4 0 0 0 0 0 0 0"
    ascent="1638"
    descent="-410"
    x-height="961.001"
    cap-height="1561"
    bbox="-1120 -510.998 1733 1776"
    underline-thickness="15"
    underline-position="-118"
    unicode-range="U+0020-U+00A0"
  />
<missing-glyph horiz-adv-x="1024" 
d="M128 0v1548h768v-1548h-768zM256 128h512v1292h-512v-1292z" />
    <glyph glyph-name=".notdef" horiz-adv-x="1024" 
d="M128 0v1548h768v-1548h-768zM256 128h512v1292h-512v-1292z" />
    <glyph glyph-name="space" unicode=" " horiz-adv-x="563" 
 />
    <glyph glyph-name="exclam" unicode="!" horiz-adv-x="2" 
d="M-927 1266c1.33301 -0.666992 12.666 7.33203 33.999 23.999c28.667 20.667 52 45.334 70 74.001c26 40.667 39.667 86.667 41 138c0.666992 38 -26.166 57.5 -80.499 58.5s-80.166 23.5 -77.499 67.5c4 80.667 34.333 121 91 121c110 0 165 -69 165 -207
c0 -12.667 -0.333008 -26 -1 -40c-4.66699 -64.667 -27.334 -117.667 -68.001 -159c-30 -29.333 -67.333 -51 -112 -65c-33.333 -10.667 -54 -14.667 -62 -12zM-590 1247c-10 6 -11.333 22.668 -4 50.001l95 376c5.33301 20.667 23.333 31 54 31c16 0 30.667 -3 44 -9
c16.667 -8 25 -22 25 -42c0 -12.667 -3.66699 -26.334 -11 -41.001l-168 -339c-12 -24 -23.667 -32.667 -35 -26z" />
    <glyph glyph-name="quotedbl" unicode="&#x22;" 
d="M-451 1287c44 0 66 21.667 66 65s-22.667 65 -68 65c-45.333 -0.666992 -68 -23 -68 -67c0 -42 23.333 -63 70 -63zM-907 1287c45.333 0 68 21.667 68 65c0 47.333 -22.667 70.333 -68 69c-48 -1.33301 -72 -23.333 -72 -66c0 -45.333 24 -68 72 -68z" />
    <glyph glyph-name="numbersign" unicode="#" 
d="M-802 1296c0 -0.666992 -11.3311 9.33594 -33.998 30.0029c-27.333 25.333 -49.333 53 -66 83c-24.667 43.333 -37.667 90.666 -39 141.999c-0.666992 38 26.166 57.667 80.499 59s80.166 23.666 77.499 66.999c-2 38 -10.167 64 -24.5 78s-39.833 21 -76.5 21
c-118 0 -177 -64 -177 -192c0 -10.667 0.333008 -21.667 1 -33c4.66699 -64.667 29 -119.334 73 -164.001c32.667 -32.667 72.667 -58 120 -76c41.333 -15.333 63 -20.333 65 -15zM-645.998 1292c-6.66699 3.33301 -8.33301 11.333 -5 24c3.33301 10 6.33301 20 9 30l86 376
c6 26 27.667 39 65 39c12.667 0 23.667 -2 33 -6c32 -15.333 37 -46.333 15 -93l-160 -340c-14 -28.667 -28.333 -38.667 -43 -30z" />
    <glyph glyph-name="dollar" unicode="$" 
d="M-814 1296c0.666992 0.666992 -10.333 11.0029 -33 31.0029c-27.333 25.333 -49.333 52.666 -66 81.999c-24.667 43.333 -37.667 90.666 -39 141.999c-0.666992 38 26 57.667 80 59s80 23.666 78 66.999c-2 38 -10.333 64 -25 78s-40.334 21 -77.001 21
c-117.333 0 -176 -64 -176 -192c0 -10.667 0.333008 -21.667 1 -33c4.66699 -64.667 28.667 -119.667 72 -165c32.667 -32.667 72.667 -58 120 -76c40.667 -15.333 62.334 -20 65.001 -14zM-463 1292c6 3.33301 7.66699 11.333 5 24l-10 30l-75 376
c-5.33301 26 -27 39 -65 39c-12 0 -23 -2 -33 -6c-30.667 -14.667 -35.667 -45.667 -15 -93l150 -340c12.667 -29.333 27 -39.333 43 -30z" />
    <glyph glyph-name="percent" unicode="%" 
d="M-754 1292c-10.667 5.33301 -9.33398 23.333 3.99902 54l162 376c11.333 26 34 39 68 39c10.667 0 20.334 -2.33301 29.001 -7c19.333 -8.66699 29 -26.334 29 -53.001c0 -15.333 -3.66699 -28.666 -11 -39.999l-238 -339c-15.333 -22 -27 -33 -35 -33
c-3.33301 0.666992 -6 1.66699 -8 3zM-473 1294c44 0 66 21.333 66 64c0 44 -22.667 66 -68 66c-45.333 -0.666992 -68 -23 -68 -67c0 -42 23.333 -63 70 -63zM-908 1294c45.333 0 68 21.667 68 65c0 46.667 -22.667 69.667 -68 69c-47.333 -1.33301 -71 -23.333 -71 -66
c0 -45.333 23.667 -68 71 -68z" />
    <glyph glyph-name="ampersand" unicode="&#x26;" horiz-adv-x="2" 
d="M-755 1275c-9.33301 5.33301 -6.99805 23.999 7.00195 55.999l167 392c11.333 27.333 34.666 41 69.999 41c11.333 0 21.666 -2.33301 30.999 -7c20 -9.33301 30 -27.666 30 -54.999c0 -16 -4 -30 -12 -42l-245 -353c-16 -22.667 -29 -34 -39 -34
c-3.33301 0 -6.33301 0.666992 -9 2z" />
    <glyph glyph-name="quotesingle" unicode="'" horiz-adv-x="404" 
d="M89 1286c28 20.667 51.668 42.667 71.001 66c47.333 57.333 71.666 124 72.999 200c0.666992 34 -13.666 53.667 -42.999 59l-81 6c-28.667 6.66699 -42 28.667 -40 66c2 38.667 11.333 63 28 73c10 5.33301 36 8 78 8c61.333 0 104.333 -14 129 -42
c21.333 -24.667 32 -65 32 -121c0 -14 -0.333008 -30.333 -1 -49c-4.66699 -67.333 -28.334 -124.333 -71.001 -171c-30.667 -34 -69 -60.333 -115 -79c-40 -16.667 -60 -22 -60 -16z" />
    <glyph glyph-name="parenleft" unicode="(" 
d="M-613 1286c0 -0.666992 -11.667 9.66699 -35 31c-28.667 26 -51.667 54.667 -69 86c-25.333 45.333 -38.666 95 -39.999 149c-0.666992 34 13.666 53.667 42.999 59l81 6c28.667 6.66699 42.334 28.667 41.001 66c-2.66699 38.667 -12.334 63 -29.001 73
c-10 5.33301 -35.667 8 -77 8c-62 0 -105.333 -14 -130 -42c-21.333 -24.667 -32 -65 -32 -121c0 -14 0.666992 -30.333 2 -49c6 -90 44 -160.667 114 -212c48.667 -36.667 91 -55 127 -55c2.66699 0 4 0.333008 4 1z" />
    <glyph glyph-name="parenright" unicode=")" 
d="M-834 1288c28.667 20 52.668 41.333 72.001 64c48 57.333 73 124 75 200c0.666992 34 -13.666 53.667 -42.999 59l-81 6c-28.667 6.66699 -42.334 28.667 -41.001 66c2 38.667 11.667 63 29 73c10 5.33301 35.667 8 77 8c62 0 105.333 -14 130 -42
c21.333 -24.667 32 -65 32 -121c0 -14 -0.666992 -30.333 -2 -49c-4.66699 -67.333 -28.334 -124.333 -71.001 -171c-31.333 -34 -70 -60 -116 -78c-40.667 -16.667 -61 -21.667 -61 -15z" />
    <glyph glyph-name="asterisk" unicode="*" horiz-adv-x="705" 
d="M103 651h491v-84h-491v84z" />
    <glyph glyph-name="plus" unicode="+" 
d="M-226 1287c44 0 66 21.667 66 65s-22.667 65 -68 65c-45.333 -0.666992 -68 -23 -68 -67c0 -42 23.333 -63 70 -63zM-682 1287c45.333 0 68 21.667 68 65c0 47.333 -22.667 70.333 -68 69c-48 -1.33301 -72 -23.333 -72 -66c0 -45.333 24 -68 72 -68z" />
    <glyph glyph-name="comma" unicode="," horiz-adv-x="626" 
d="M207 203c25.333 54 58.667 80.999 100 80.999c35.333 0 75 -19.333 119 -58c14 -12.667 21 -38.667 21 -78c0 -41.333 -7 -90.666 -21 -147.999c0 -82.667 -14.667 -149.667 -44 -201c-20 -34.667 -74 -71 -162 -109c-12 12 7.66699 64.333 59 157
c20 35.333 31 86.333 33 153l-79 85c-24 28 -36 53.333 -36 76c0 13.333 3.33301 27.333 10 42z" />
    <glyph glyph-name="hyphen" unicode="-" horiz-adv-x="1493" 
d="M150 565h1167v87h-1167v-87z" />
    <glyph glyph-name="hyphen" unicode="&#x2010;" horiz-adv-x="1493" 
d="M150 565h1167v87h-1167v-87z" />
    <glyph glyph-name="period" unicode="." horiz-adv-x="626" 
d="M175 106c0 28.667 10.167 53 30.5 73s44.833 30 73.5 30s53.167 -10 73.5 -30s30.5 -44.333 30.5 -73s-10.167 -53.167 -30.5 -73.5s-44.833 -30.5 -73.5 -30.5s-53.167 10.167 -73.5 30.5s-30.5 44.833 -30.5 73.5z" />
    <glyph glyph-name="slash" unicode="/" horiz-adv-x="2" 
d="M-484 1275c-9.33301 5.33301 -7.33203 23.999 6.00098 55.999l167 392c11.333 27.333 35 41 71 41c11.333 0 21.333 -2.33301 30 -7c20.667 -9.33301 31 -27.666 31 -54.999c0 -16 -4 -30 -12 -42l-246 -353c-16 -22.667 -29 -34 -39 -34
c-2.66699 0 -5.33398 0.666992 -8.00098 2z" />
    <glyph glyph-name="zero" unicode="0" 
d="M-561 1286c28 20.667 51.668 42.667 71.001 66c47.333 57.333 71.666 124 72.999 200c0.666992 34 -13.666 53.667 -42.999 59l-81 6c-28.667 6.66699 -42 28.667 -40 66c2 38.667 11.333 63 28 73c10 5.33301 36 8 78 8c61.333 0 104.333 -14 129 -42
c21.333 -24.667 32 -65 32 -121c0 -14 -0.333008 -30.333 -1 -49c-4.66699 -67.333 -28.334 -124.333 -71.001 -171c-30.667 -34 -69 -60.333 -115 -79c-40 -16.667 -60 -22 -60 -16z" />
    <glyph glyph-name="one" unicode="1" 
d="M-657 1266c1.33301 -0.666992 13 7.33203 35 23.999c28.667 20.667 52 45.334 70 74.001c25.333 40.667 38.666 86.667 39.999 138c0.666992 38 -26 57.5 -80 58.5s-80 23.5 -78 67.5c4 80.667 34.333 121 91 121c110.667 0 166 -69 166 -207
c0 -12.667 -0.666992 -26 -2 -40c-4 -64.667 -26.667 -117.667 -68 -159c-29.333 -29.333 -66.666 -51 -111.999 -65c-33.333 -10.667 -54 -14.667 -62 -12zM-319 1247c-10 6 -11.667 22.668 -5 50.001l95 376c5.33301 20.667 23.333 31 54 31c16 0 30.667 -3 44 -9
c16.667 -8 25 -22 25 -42c0 -12.667 -3.33301 -26.334 -10 -41.001l-169 -339c-12 -24 -23.333 -32.667 -34 -26z" />
    <glyph glyph-name="two" unicode="2" 
d="M-763 1260c6.66699 -2 27.334 16.666 62.001 55.999c44.667 52 68 114 70 186c0.666992 38 -26 57.5 -80 58.5s-80 23.5 -78 67.5c4 80.667 38 121 102 121c103.333 0 155 -66 155 -198c0 -14.667 -0.666992 -31 -2 -49c-4.66699 -64.667 -26.334 -118 -65.001 -160
c-28 -30.667 -63 -53.667 -105 -69c-32 -11.333 -51.667 -15.666 -59 -12.999zM-218 1253c6.66699 4 8.66699 10.333 6 19l-8 25l-76 376c-4 20.667 -17.333 31 -40 31c-12 0 -24.333 -3 -37 -9c-26.667 -12 -40 -32 -40 -60c0 -8 1.66699 -15.667 5 -23l149 -339
c10 -23.333 23.667 -30 41 -20z" />
    <glyph glyph-name="three" unicode="3" 
d="M-532 1296c0 -0.666992 -11.3311 9.33594 -33.998 30.0029c-27.333 25.333 -49.333 53 -66 83c-24.667 43.333 -37.334 90.666 -38.001 141.999c-1.33301 38 25.167 57.667 79.5 59s80.5 23.666 78.5 66.999c-2 38 -10.333 64 -25 78s-40.334 21 -77.001 21
c-117.333 0 -176 -64 -176 -192c0 -10.667 0.333008 -21.667 1 -33c4 -64.667 28.333 -119.334 73 -164.001c32 -32.667 72 -58 120 -76c40.667 -15.333 62 -20.333 64 -15zM-375.998 1292c-6 3.33301 -7.33398 11.333 -4.00098 24l8 30l87 376c6 26 27.667 39 65 39
c12 0 22.667 -2 32 -6c32 -15.333 37 -46.333 15 -93l-160 -340c-13.333 -28.667 -27.666 -38.667 -42.999 -30z" />
    <glyph glyph-name="four" unicode="4" 
d="M-588 1296c0 0.666992 -10.999 11.0029 -32.999 31.0029c-28 25.333 -50.333 52.666 -67 81.999c-24.667 43.333 -37.667 90.666 -39 141.999c-0.666992 38 26 57.667 80 59s80 23.666 78 66.999c-2 38 -10.333 64 -25 78s-40.334 21 -77.001 21
c-117.333 0 -176 -64 -176 -192c0 -10.667 0.333008 -21.667 1 -33c4.66699 -64.667 29 -119.667 73 -165c32 -32.667 71.667 -58 119 -76c40.667 -15.333 62.667 -20 66 -14zM-237.999 1292c6 3.33301 7.66699 11.333 5 24c-3.33301 10 -6.33301 20 -9 30l-76 376
c-5.33301 26 -27 39 -65 39c-12 0 -22.667 -2 -32 -6c-31.333 -14.667 -36.333 -45.667 -15 -93l149 -340c12.667 -29.333 27 -39.333 43 -30z" />
    <glyph glyph-name="five" unicode="5" 
d="M-529 1292c-10 5.33301 -8.66699 23.333 4 54l162 376c11.333 26 34 39 68 39c11.333 0 21.333 -2.33301 30 -7c19.333 -8.66699 29 -26.334 29 -53.001c0 -15.333 -4 -28.666 -12 -39.999l-238 -339c-15.333 -22 -27 -33 -35 -33c-3.33301 0.666992 -6 1.66699 -8 3z
M-248 1294c44 0 66 21.333 66 64c0 44 -22.667 66 -68 66c-45.333 -0.666992 -68 -23 -68 -67c0 -42 23.333 -63 70 -63zM-683 1294c46 0 69 21.667 69 65c0 46.667 -23 69.667 -69 69c-47.333 -1.33301 -71 -23.333 -71 -66c0 -45.333 23.667 -68 71 -68z" />
    <glyph glyph-name="six" unicode="6" 
d="M-440 1294c12.667 6.66699 12.999 24 0.999023 52l-158 376c-9.33301 22.667 -29.666 34 -60.999 34c-12.667 0 -24.334 -2.33301 -35.001 -7c-19.333 -9.33301 -29 -26.333 -29 -51c0 -14 3.66699 -26.333 11 -37l233 -339c16.667 -24 29.334 -33.333 38.001 -28z
M-227.001 1294c44 0 66 21.333 66 64c0 44 -22.667 66 -68 66c-45.333 -0.666992 -68 -23 -68 -67c0 -42 23.333 -63 70 -63zM-726.001 1294c45.333 0 68 21.667 68 65c0 46.667 -22.667 69.667 -68 69c-48 -1.33301 -72 -23.333 -72 -66c0 -45.333 24 -68 72 -68z" />
    <glyph glyph-name="seven" unicode="7" horiz-adv-x="1258" 
 />
    <glyph glyph-name="eight" unicode="8" 
d="M-1101 1635h1112v115h-1112v-115z" />
    <glyph glyph-name="nine" unicode="9" 
d="M-342 1286c-0.666992 -0.666992 -12.668 9.66699 -36.001 31c-28.667 26 -51.667 54.667 -69 86c-25.333 45.333 -38.666 95 -39.999 149c-0.666992 34 13.666 53.667 42.999 59l82 6c28.667 6.66699 42 28.667 40 66c-2 38.667 -11.667 63 -29 73
c-10 5.33301 -35.667 8 -77 8c-62 0 -105.333 -14 -130 -42c-21.333 -24.667 -32 -65 -32 -121c0 -14 0.666992 -30.333 2 -49c6 -90 44 -160.667 114 -212c48.667 -36.667 91 -55 127 -55c2.66699 0 4.33398 0.333008 5.00098 1z" />
    <glyph glyph-name="colon" unicode=":" horiz-adv-x="669" 
d="M324 798c37.333 0 67 12.001 89 36.001c20 21.333 30 47.666 30 78.999c0 30.667 -10 56.667 -30 78c-22 23.333 -52.333 35.333 -91 36c-35.333 0.666992 -64 -11.666 -86 -36.999c-20 -22 -30 -49 -30 -81c0 -30.667 9.66699 -56.334 29 -77.001
c21.333 -22.667 51 -34 89 -34z" />
    <glyph glyph-name="semicolon" unicode=";" horiz-adv-x="565" 
d="M324 798c37.333 0 67 12.001 89 36.001c20 21.333 30 47.666 30 78.999c0 30.667 -10 56.667 -30 78c-22 23.333 -52.333 35.333 -91 36c-35.333 0.666992 -64 -11.666 -86 -36.999c-20 -22 -30 -49 -30 -81c0 -30.667 9.66699 -56.334 29 -77.001
c21.333 -22.667 51 -34 89 -34zM207 203.001c25.333 54 58.667 80.999 100 80.999c35.333 0 75 -19.333 119 -58c14 -12.667 21 -38.667 21 -78c0 -41.333 -7 -90.666 -21 -147.999c0 -82.667 -14.667 -149.667 -44 -201c-20 -34.667 -74 -71 -162 -109
c-12 12 7.66699 64.333 59 157c20 35.333 31 86.333 33 153l-79 85c-24 28 -36 53.333 -36 76c0 13.333 3.33301 27.333 10 42z" />
    <glyph glyph-name="less" unicode="&#x3c;" 
d="M-697 1158h491v-111h-491v111z" />
    <glyph glyph-name="equal" unicode="=" 
d="M-822 1355c0 53.333 25.3301 108.336 75.9971 165.003c66.667 74 155.334 111.667 266.001 113c110 2 200.333 -34.667 271 -110c55.333 -58.667 83 -114.334 83 -167.001c0 -12.667 -3 -20.334 -9 -23.001c-9.33301 -3.33301 -27.666 12.667 -54.999 48
c-36.667 47.333 -71 82.333 -103 105c-54.667 38.667 -117 57.667 -187 57c-66.667 -0.666992 -126 -19.334 -178 -56.001c-33.333 -24 -66.666 -58.333 -99.999 -103c-27.333 -36.667 -44.333 -55 -51 -55c-8.66699 0 -13 8.66699 -13 26z" />
    <glyph glyph-name="greater" unicode="&#x3e;" 
d="M-983 1158h552v-111h-552v111z" />
    <glyph glyph-name="question" unicode="?" 
d="M-642 -346c56.667 0 85 26.666 85 79.999c0 54.667 -28.333 82 -85 82c-57.333 0.666992 -86 -25.666 -86 -78.999c0 -55.333 28.667 -83 86 -83z" />
    <glyph glyph-name="at" unicode="@" 
d="M-988 1260c6.66699 -2 27.333 16.666 62 55.999c44.667 52 67.667 114 69 186c1.33301 38 -25.167 57.5 -79.5 58.5s-80.166 23.5 -77.499 67.5c4 80.667 37.667 121 101 121c104 0 156 -66 156 -198c0 -14.667 -0.666992 -31 -2 -49
c-4.66699 -64.667 -26.334 -118 -65.001 -160c-28 -30.667 -63 -53.667 -105 -69c-32 -11.333 -51.667 -15.666 -59 -12.999zM-443.001 1253c6 4 8 10.333 6 19c-2.66699 8 -5.66699 16.333 -9 25l-75 376c-4.66699 20.667 -18 31 -40 31c-12 0 -24.667 -3 -38 -9
c-26 -12 -39 -32 -39 -60c0 -8 1.33301 -15.667 4 -23l149 -339c10.667 -23.333 24.667 -30 42 -20z" />
    <glyph glyph-name="A" unicode="A" horiz-adv-x="1456" 
d="M728 1543h36l596 -1543h-202l-193 561h-466l-214 -561h-200zM571 727h329l-154 488z" />
    <glyph glyph-name="B" unicode="B" horiz-adv-x="1097" 
d="M92 1561c4.66699 1.33301 17.3311 3.66602 37.998 6.99902l56 9l175 8c34.667 1.33301 87 0.333008 157 -3c149.333 -8 256.333 -46.333 321 -115c44.667 -48 77.334 -136.667 98.001 -266c4 -26.667 6 -63 6 -109c0 -76.667 -17.667 -139.667 -53 -189
c-21.333 -30 -55.333 -61 -102 -93l70 -53c26 -21.333 46.333 -42.333 61 -63c19.333 -28.667 37.333 -75.667 54 -141c14.667 -61.333 22 -111.666 22 -150.999c0 -54 -5 -104 -15 -150c-16.667 -75.333 -47.334 -133 -92.001 -173c-11.333 -10 -22.666 -17 -33.999 -21
c-17.333 -5.33301 -26.666 -8.33301 -27.999 -9c-36 -18.667 -79.667 -30.334 -131 -35.001c-19.333 -1.33301 -47.333 -2.66602 -84 -3.99902l-157 -8h-364zM230.997 900l445 -2.00195c6.66699 0 13.334 3 20.001 9l34 28c17.333 14.667 32.5 39.834 45.5 75.501
s19.5 75.167 19.5 118.5c0 114 -26.5 195.333 -79.5 244s-147.5 73 -283.5 73c-38.667 0 -78.334 -2 -119.001 -6c-24 -1.33301 -51.333 -5.66602 -82 -12.999v-527zM745.997 183.998c46 37.333 69 108.667 69 214v24c0 8 -1.33301 22.667 -4 44c0 10 -1 22 -3 36l-10 53
c-4 24.667 -25.667 61.667 -65 111c-41.333 51.333 -73 77 -95 77h-400l2 -571l130 -39l118 -10h27c104.667 0 181.667 20.333 231 61z" />
    <glyph glyph-name="C" unicode="C" horiz-adv-x="1140" 
d="M246 943h552v-188h-552v188zM90 190h877v-188h-877v188zM110 1573h877v-188h-877v188z" />
    <glyph glyph-name="D" unicode="D" horiz-adv-x="1487" 
d="M69 0l641 1543h92l596 -1543h-1329zM1160 135l-399 1129l-434 -1129h833z" />
    <glyph glyph-name="E" unicode="E" horiz-adv-x="1228" 
d="M162 1541l900 2c1.33301 -1.33301 2 -52 2 -152l-701 1v-504l559 3v-188h-557l-2 -545h734v-156c0 -0.666992 -311.667 -0.666992 -935 0v1539z" />
    <glyph glyph-name="F" unicode="F" horiz-adv-x="1548" 
d="M837 1541l0.999023 -114.001c106.667 -11.333 204.334 -45.333 293.001 -102c74.667 -47.333 154.667 -123 240 -227c58 -70 87 -168.667 87 -296s-39.333 -244 -118 -350c-72.667 -98 -170 -175.333 -292 -232c-64 -29.333 -134 -44 -210 -44l-1 -174h-149l2 174
c-180.667 18.667 -321.334 85.667 -422.001 201c-81.333 92.667 -130.666 155.334 -147.999 188.001c-32 58.667 -48 137.667 -48 237c0 156.667 71 301 213 433c119.333 111.333 254.333 175.333 405 192l-2 114h149zM689.999 276.999v1047c-44.667 0 -90.667 -16 -138 -48
c-21.333 -14.667 -59 -47 -113 -97c-122.667 -113.333 -184 -239 -184 -377c0 -114.667 51.667 -231.334 155 -350.001c36.667 -42 78.667 -79.667 126 -113c60 -41.333 111.333 -62 154 -62zM1275 802c0 94.667 -28 185.332 -84 271.999c-51.333 78.667 -120 146 -206 202
c-41.333 26.667 -89 42.667 -143 48v-1047c50.667 0 106.334 23.333 167.001 70c19.333 14.667 64.666 56.667 135.999 126c86.667 84.667 130 194.334 130 329.001z" />
    <glyph glyph-name="G" unicode="G" horiz-adv-x="1107" 
d="M311 2l-195 -0.000976562v1552l914 1c1.33301 -5.33301 2 -57.666 2 -156.999l-723 3z" />
    <glyph glyph-name="H" unicode="H" horiz-adv-x="1445" 
d="M137 1547h188v-679h811v679h188v-1547h-188v707h-811v-707h-188v1547z" />
    <glyph glyph-name="I" unicode="I" horiz-adv-x="621" 
d="M428 0l-175 0.000976562v1561c0 -3.33301 29 -5 87 -5c58.667 -0.666992 88 0.666016 88 3.99902v-1560z" />
    <glyph glyph-name="J" unicode="J" horiz-adv-x="1190" 
d="M492 322c-132 16 -241 72.666 -327 169.999s-128.667 213.666 -128 348.999c1.33301 142 52.833 264 154.5 366s223.167 153 364.5 153c142 0 264 -51.167 366 -153.5s153 -224.166 153 -365.499c0 -133.333 -43 -249.166 -129 -347.499s-194.333 -155.5 -325 -171.5
v-736h-129v736zM558 397.999c112 0 204.668 44.668 278.001 134.001c70 85.333 105 187.666 105 306.999c0 120 -35 222.667 -105 308c-73.333 89.333 -166 134 -278 134c-112.667 0 -205.334 -43.667 -278.001 -131c-70 -83.333 -105 -184.666 -105 -303.999
c0 -120.667 35 -224.334 105 -311.001c73.333 -91.333 166 -137 278 -137z" />
    <glyph glyph-name="K" unicode="K" horiz-adv-x="1277" 
d="M305 2l-208.001 -0.00195312l1 1585h209v-674h76c110.667 78.667 222.334 183 335.001 313c37.333 42.667 133.333 162.667 288 360l230 1l-353 -410c-140 -159.333 -270 -283.666 -390 -372.999c104.667 -83.333 229.667 -214.333 375 -393
c165.333 -203.333 285 -339.666 359 -408.999h-247c-20 74 -227.333 305 -622 693h-51z" />
    <glyph glyph-name="L" unicode="L" horiz-adv-x="1527" 
d="M806 1246l-483.999 -1246c-30.667 2.66699 -99.334 4 -206.001 4l645 1539h86l596 -1543h-178c-80 166.667 -180.667 424.667 -302 774z" />
    <glyph glyph-name="M" unicode="M" horiz-adv-x="1720" 
d="M195 1553h282c96 -179.333 231.333 -482 406 -908l140 344c106 253.333 189.667 441.333 251 564h166c74.667 0.666992 109.667 1 105 1c26 -516.667 54 -1034 84 -1552h-166l-72 1407l-511 -1076l-519 1076l-72 -1407h-166z" />
    <glyph glyph-name="N" unicode="N" horiz-adv-x="1471" 
d="M152 1557h251l750 -1204v1204h184v-1555h-178l-830 1353v-1355h-177v1557z" />
    <glyph glyph-name="O" unicode="O" horiz-adv-x="1685" 
d="M842 1573c213.333 0 386.667 -82.332 520 -246.999c125.333 -153.333 188 -339 188 -557c0 -198 -67.333 -375 -202 -531c-140.667 -162.667 -308.667 -244 -504 -244c-206.667 0 -377.667 78.333 -513 235c-129.333 149.333 -194 328.666 -194 537.999
c0 220 61.333 406.333 184 559c132 164.667 305.667 247 521 247zM322.001 767.001c0 -184 40.001 -328.334 120.001 -433.001c89.333 -116 223.333 -174 402 -174c177.333 0 311 58 401 174c82 104.667 123 248.334 123 431.001c0 202.667 -36 355.667 -108 459
c-84.667 122 -223.334 183 -416.001 183c-192 0 -330.333 -60.667 -415 -182c-71.333 -103.333 -107 -256 -107 -458z" />
    <glyph glyph-name="P" unicode="P" horiz-adv-x="1601" 
d="M467 1346l-0.000976562 -1344c-130 -4.66699 -195.333 -5.33398 -196 -2.00098l1 1346h-187c0.666992 118 0.333984 176.333 -0.999023 175h1442v-175h-195v-1342c0 -1.33301 -65 -2 -195 -2v1344h-669z" />
    <glyph glyph-name="Q" unicode="Q" horiz-adv-x="1631" 
d="M782 1573c213.333 0 387 -82.333 521 -247c124.667 -153.333 187 -339 187 -557c0 -203.333 -70.667 -383.333 -212 -540c-136.667 -151.333 -301 -227 -493 -227c-184 0 -346.667 67 -488 201c-146 139.333 -219 327.333 -219 564c0 220 61.333 406.333 184 559
c132 164.667 305.333 247 520 247zM262 767c0 -184 40.001 -328.334 120.001 -433.001c89.333 -116 223.333 -174 402 -174c177.333 0 311.333 58 402 174c81.333 104.667 122 248.334 122 431.001c0 202.667 -36 355.667 -108 459c-84.667 122 -223.334 183 -416.001 183
c-192 0 -330.333 -60.667 -415 -182c-71.333 -103.333 -107 -256 -107 -458zM1149 864.999v-175h-723l3 175h720z" />
    <glyph glyph-name="R" unicode="R" horiz-adv-x="1104" 
d="M311 0l-181 -0.000976562v1559c58 18 166 27 324 27c59.333 0 122.666 -6.33301 189.999 -19c108 -21.333 179.667 -44.666 215 -69.999c46.667 -33.333 83.334 -98 110.001 -194c22.667 -79.333 34 -164.333 34 -255c0 -84 -36.667 -157 -110 -219l-59 -57
c-24.667 -22.667 -46.667 -38 -66 -46c-44 -18 -196.333 -27 -457 -27v-699zM311 885.999c23.333 0 59.5 -0.999023 108.5 -2.99902s85.5 -3 109.5 -3c111.333 0 186.333 12.667 225 38c52.667 33.333 79 103.666 79 210.999c0 116.667 -31 199 -93 247
c-54.667 42.667 -142.667 64 -264 64c-81.333 0 -136.333 -6.33301 -165 -19v-535z" />
    <glyph glyph-name="S" unicode="S" horiz-adv-x="1409" 
d="M116 1547h1130v-162c-62 -1.33301 -325 -2 -789 -2l573 -588l-598 -642l814 -2v-151l-1149 2l723 796c-463.333 444 -698 693.667 -704 749z" />
    <glyph glyph-name="T" unicode="T" horiz-adv-x="1344" 
d="M112 1551h1134v-153c-96 0.666992 -255.333 1 -478 1l-2 -1397h-189l3 1397l-470 -1z" />
    <glyph glyph-name="U" unicode="U" horiz-adv-x="1527" 
d="M311 1573l457 -668l460 668h226l-587 -806l3 -765h-195l-3 765l-589 806h228z" />
    <glyph glyph-name="V" unicode="V" horiz-adv-x="1228" 
d="M162 1541h905c1.33301 -1.33301 0.333008 -51.333 -3 -150l-701 1v-504l559 3v-188h-557v-701h-203v1539z" />
    <glyph glyph-name="W" unicode="W" horiz-adv-x="1933" 
d="M1649 905c0 -190.667 -54.002 -433.333 -162.002 -728h246v-175h-454c10.667 62 50.334 224.333 119.001 487c47.333 180 71 350 71 510c0 52.667 -17.333 113.334 -52 182.001c-31.333 62 -66.666 112.667 -105.999 152c-56 56 -162 84 -318 84
c-84 0 -142.667 -3.33301 -176 -10c-51.333 -11.333 -103 -38 -155 -80c-88.667 -72.667 -133 -164.667 -133 -276c0 -157.333 21 -334 63 -530l128 -519h-428v175h240l-123 388c-38 136 -58.333 271.333 -61 406c-2 121.333 37 243.666 117 366.999
c84.667 129.333 180.667 201.333 288 216c114 15.333 205.333 23 274 23c94 0 173.667 -12 239 -36c256 -96 384 -283.333 384 -562v-41c-0.666992 -16.667 -1 -27.667 -1 -33z" />
    <glyph glyph-name="X" unicode="X" horiz-adv-x="1411" 
d="M703 719l-360 -572.001l-36 -145h-244l139 188l409 634l-356 551l-143 198h217c0 -17.333 1 -29.666 3 -36.999l22 -64l347 -555l343 555c14 38.667 23.667 63.667 29 75l15 28h196l-144 -216l-352 -535l538 -822h-242l-29 145c-12 22.667 -75.667 127 -191 313z" />
    <glyph glyph-name="Y" unicode="Y" horiz-adv-x="1411" 
d="M1357 1573c0 -198 -17.335 -349.335 -52.002 -454.002c-49.333 -150 -143.666 -264.333 -282.999 -343c-68.667 -38 -143.667 -57 -225 -57l1 -717h-182v717c-90 0 -171.333 20.667 -244 62c-136 78.667 -226.333 193.334 -271 344.001c-28.667 96.667 -43 246 -43 448
h156c0 -210 18.333 -359 55 -447c56.667 -133.333 172.334 -220.666 347.001 -261.999v703h182l-1 -703c162.667 44.667 274.667 134 336 268c45.333 100 68 247 68 441c34 2 86 2 156 0z" />
    <glyph glyph-name="Z" unicode="Z" horiz-adv-x="1144" 
d="M370 153c396.667 0 628 -0.666992 694 -2l2 -151l-995 2l733 1381l-688 2l3 162h947c-458.667 -914 -690.667 -1378.67 -696 -1394z" />
    <glyph glyph-name="bracketleft" unicode="[" 
d="M-385 1097c0.666992 1.33301 -10.999 9.33398 -34.999 24.001c-29.333 19.333 -53 41.333 -71 66c-26.667 37.333 -40.334 81.666 -41.001 132.999c-1.33301 38 24.167 57.667 76.5 59s79.5 23.666 81.5 66.999c1.33301 50.667 -32.667 76.667 -102 78
c-48 0 -86.333 -17.667 -115 -53c-30 -37.333 -43 -87.666 -39 -150.999c6 -80.667 39.667 -141.667 101 -183c42.667 -28 85.667 -42 129 -42c8 0 13 0.666992 15 2zM-826.999 1508c0 49.333 24.334 100.335 73.001 153.002c63.333 68 148 103 254 105
c106 1.33301 193.333 -33 262 -103c53.333 -54.667 80 -106.334 80 -155.001c0 -12 -3 -19 -9 -21c-8.66699 -3.33301 -26.334 12 -53.001 46c-36 46 -69.333 80 -100 102c-52.667 37.333 -112.667 55.666 -180 54.999c-64 -0.666992 -121 -19 -171 -55
c-31.333 -22.667 -63 -55.667 -95 -99c-26 -36 -42 -54 -48 -54c-8.66699 0 -13 8.66699 -13 26z" />
    <glyph glyph-name="backslash" unicode="\" 
d="M-346 1292c8.66699 4.66699 6.33203 22.667 -7.00098 54l-160 376c-10.667 26 -33 39 -67 39c-11.333 0 -21.333 -2.33301 -30 -7c-18 -8 -27 -24.667 -27 -50c0 -16.667 4 -31 12 -43l233 -339c15.333 -22 28 -33 38 -33c2.66699 0.666992 5.33398 1.66699 8.00098 3z
" />
    <glyph glyph-name="bracketright" unicode="]" horiz-adv-x="2" 
d="M-590 1065c0 -1.33301 10.668 5.00098 32.001 19.001c25.333 15.333 45.666 35.333 60.999 60c22 35.333 33.667 79 35 131c0.666992 38 -24 59 -74 63c-52 4 -78.667 27.667 -80 71c-1.33301 25.333 6.33398 43.666 23.001 54.999s41.667 16 75 14
c111.333 -5.33301 162.666 -73 153.999 -203c-5.33301 -76 -34 -134 -86 -174c-38 -28 -77.333 -42 -118 -42c-14.667 0 -22 2 -22 6zM-848.999 1462c0 50 24.001 101.335 72.001 154.002c63.333 68 148.333 103 255 105c106 1.33301 193 -33 261 -103
c53.333 -54.667 80 -106.334 80 -155.001c0 -12 -2.66699 -19 -8 -21c-8.66699 -3.33301 -26.334 12 -53.001 46c-36 46 -69.333 80 -100 102c-52.667 37.333 -112.667 55.666 -180 54.999c-64.667 -0.666992 -121.667 -19 -171 -55c-32 -22.667 -63.667 -55.667 -95 -99
c-26 -36 -42.333 -54 -49 -54c-8 0 -12 8.33301 -12 25z" />
    <glyph glyph-name="asciicircum" unicode="^" 
d="M-733 1294c12.667 6.66699 13 24 1 52l-157 376c-10 22.667 -30.667 34 -62 34c-12.667 0 -24.334 -2.33301 -35.001 -7c-19.333 -9.33301 -29 -26.333 -29 -51c0 -14 3.66699 -26.333 11 -37l233 -339c16.667 -24 29.334 -33.333 38.001 -28zM-520 1294
c44.667 0 67 21.667 67 65s-23 65 -69 65c-45.333 -0.666992 -68 -23 -68 -67c0 -42 23.333 -63 70 -63zM-1019 1294c45.333 0 68 21.667 68 65c0 46.667 -22.667 69.667 -68 69c-48 -1.33301 -72 -23.333 -72 -66c0 -45.333 24 -68 72 -68z" />
    <glyph glyph-name="underscore" unicode="_" 
d="M-684 1292c8.66699 4.66699 6.33301 22.667 -7 54l-160 376c-10.667 26 -33 39 -67 39c-11.333 0 -21.333 -2.33301 -30 -7c-18 -8 -27 -24.667 -27 -50c0 -16.667 4 -31 12 -43l233 -339c15.333 -22 28 -33 38 -33c3.33301 0.666992 6 1.66699 8 3z" />
    <glyph glyph-name="grave" unicode="`" horiz-adv-x="1777" 
d="M0 1481c50 3.33301 98.668 5 146.001 5c446.667 0 806.334 -154.333 1079 -463c259.333 -294.667 389 -666.667 389 -1116c0 -94 -4.66699 -167.667 -14 -221h-130c2 31.333 3 65 3 101c0 278.667 -47 542 -141 790l-571 -566l-78 82l597 601
c-44.667 114 -112.334 220.667 -203.001 320l-610 -616l-87 86l610 617c-264.667 212 -568.334 318 -911.001 318c-26 0 -52.333 -0.666992 -79 -2v64z" />
    <glyph glyph-name="a" unicode="a" horiz-adv-x="1261" 
d="M883 242c-9.33301 0 -32.666 -20.999 -69.999 -62.999c-46.667 -52.667 -87 -91.334 -121 -116.001c-57.333 -42 -114.666 -63 -171.999 -63c-142.667 -0 -249 51.333 -319 154c-59.333 87.333 -89 206.333 -89 357s37.333 269 112 355c78.667 91.333 192 137 340 137
c56 0 101.667 -10.667 137 -32c21.333 -12.667 49 -38.334 83 -77.001c36 -42 69 -73.333 99 -94c20 6 49.333 42.667 88 110c35.333 62 74.333 93 117 93c14 0 27 -8 39 -24s18 -31.333 18 -46c-2.66699 -7.33301 -24 -25.666 -64 -54.999c-50 -36 -83 -91.667 -99 -167
c-9.33301 -43.333 -14 -110 -14 -200c0 -154 55 -289.333 165 -406c4.66699 -4.66699 7 -9.66699 7 -15c0 -17.333 -14.167 -37 -42.5 -59s-51.5 -33 -69.5 -33c-18.667 0 -37.834 40.667 -57.501 122s-48.834 122 -87.501 122zM273 472.001
c0 -71.333 19.999 -141.667 59.999 -211c46.667 -80 103.667 -120 171 -120c106.667 0 187.334 40.667 242.001 122c47.333 70 71 161.333 71 274c0 82 -22.667 153.667 -68 215c-50 68 -114.333 102 -193 102c-188.667 0 -283 -127.333 -283 -382z" />
    <glyph glyph-name="b" unicode="b" horiz-adv-x="1160" 
d="M930 1274c0 -66.667 -10.666 -130.331 -31.999 -190.998c-13.333 -38 -40.333 -96 -81 -174c32.667 0 75.334 -29.667 128.001 -89s88.667 -122 108 -188c16 -54 24 -125.333 24 -214c0 -138 -44.333 -243.667 -133 -317c-82 -67.333 -193 -101 -333 -101
c-36 0 -96.167 18.5 -180.5 55.5s-136.833 55.5 -157.5 55.5c-6 -9.33301 -9 -23.333 -9 -42c0 -52 9.66699 -129.833 29 -233.5s29 -181.5 29 -233.5c0 -57.333 -41 -95 -123 -113c-56.667 31.333 -85 197.666 -85 498.999l2 973c0 219.333 23.333 369 70 449
c65.333 111.333 199.666 167 402.999 167c81.333 0 138.666 -8.66699 171.999 -26c37.333 -18.667 78 -63.334 122 -134.001c31.333 -49.333 47 -97 47 -143zM585.001 1470c-44.667 0 -80.334 -4.00098 -107.001 -12.001c-8 -2 -41 -15 -99 -39
c-80 -76 -120.333 -166 -121 -270l-1 -721c0 -84.667 45.333 -155.667 136 -213c80 -50.667 165.333 -76 256 -76c96.667 0 171.667 26.333 225 79s80 127.334 80 224.001c0 59.333 -2.66699 98.333 -8 117c-16.667 57.333 -52 108 -106 152c-56 45.333 -113.333 68 -172 68
c-8.66699 0 -49.5 -4.66699 -122.5 -14s-112.167 -14.666 -117.5 -15.999c-38.667 40 -58 69.333 -58 88c0 21.333 13 36.166 39 44.499l117 36.5l146 25c36.667 9.33301 64.334 41 83.001 95c22.667 64.667 34 119.667 34 165c0 69.333 -16.333 129.333 -49 180
c-38 58 -89.667 87 -155 87z" />
    <glyph glyph-name="c" unicode="c" horiz-adv-x="970" 
d="M409 1521c5.33301 0 21.998 0.330078 49.998 0.99707s52 1 72 1c203.333 0 305 -32.667 305 -98c0 -30.667 -15.333 -61.167 -46 -91.5s-60.334 -45.5 -89.001 -45.5c-29.333 0 -65.5 20.5 -108.5 61.5s-78.5 61.5 -106.5 61.5c-144.667 0 -217 -92.667 -217 -278
c0 -43.333 15.333 -90.666 46 -141.999c34 -56 69.667 -84 107 -84c5.33301 0 10.333 0.666992 15 2c110 48.667 211 73 303 73c15.333 0 23 -6 23 -18c0 -6 -2.16699 -15.667 -6.5 -29s-6.5 -22 -6.5 -26c0 -8 -2.83301 -19 -8.5 -33s-8.5 -21.333 -8.5 -22
c-36 -41.333 -135.667 -61.666 -299 -60.999c-36 -6.66699 -76.667 -68.667 -122 -186c-42 -108 -63 -185.667 -63 -233c0 -152.667 46 -229 138 -229c30.667 0 76.334 5.83301 137.001 17.5s106.334 17.5 137.001 17.5c72 0 130.333 -40 175 -120
c37.333 -67.333 56 -139.666 56 -216.999c0 -35.333 -37.667 -80.666 -113 -135.999l-143 -93l-113 -79c-44.667 -26.667 -87.667 -40 -129 -40c-18 8 -27 29 -27 63c0 60.667 26 103 78 127l147 40c43.333 12.667 89 39 137 79c34 28.667 51 58.334 51 89.001
c0 34 -11 66 -33 96c-24 32.667 -52.667 49 -86 49c-14.667 0 -38 -4.83301 -70 -14.5s-55.667 -14.834 -71 -15.501c-80 -4 -127.333 -6 -142 -6c-25.333 0 -72.333 3.33301 -141 10c-50 4.66699 -91 55 -123 151c-25.333 76 -38 146.333 -38 211c0 70 15 135.333 45 196
c11.333 24 40.666 69.667 87.999 137c34.667 49.333 54.667 91.666 60 126.999l-101 148c-26.667 45.333 -40 105 -40 179c0 38.667 15.667 91 47 157c34.667 72.667 71.334 121 110.001 145c7.33301 4.66699 11 8.33398 11 11.001c0 4 -10.333 8 -31 12
c-27.333 5.33301 -46.666 10.666 -57.999 15.999c-22 10 -33 28 -33 54c0 36 13.667 54 41 54c6 0 12 -1.33301 18 -4c68 -30 112.667 -54.667 134 -74c8 -7.33301 22 -11 42 -11z" />
    <glyph glyph-name="d" unicode="d" horiz-adv-x="1021" 
d="M964 1399c-6 -34.667 -21 -69.667 -45 -105c-65.333 33.333 -138.333 64.666 -219 93.999c-98.667 35.333 -173 53 -223 53c-10.667 0 -24.667 -4.33301 -42 -13s-26 -17.667 -26 -27c0 -30.667 46.333 -113 139 -247c29.333 -41.333 52 -72 68 -92
c34 -40.667 62.333 -65 85 -73c95.333 -34.667 162.333 -101.667 201 -201c30 -76 45 -180 45 -312c0 -142 -33.333 -254.333 -100 -337c-72 -90 -178.333 -135 -319 -135c-143.333 0 -253 43.667 -329 131c-72.667 82.667 -109 196.334 -109 341.001
c0 168 34 289.333 102 364c62.667 70 160.667 106.667 294 110c6 0 9 2.33301 9 7c0 5.33301 -41.5 67.333 -124.5 186s-124.5 210.667 -124.5 276c0 95.333 84.333 143 253 143c152.667 0 307.667 -54.333 465 -163zM235 476c0 -83.333 20.666 -157.999 61.999 -223.999
c48.667 -78 113 -117 193 -117c94.667 0 170.667 25.333 228 76c60 53.333 90 127 90 221c0 74 -25 158.333 -75 253c-56 107.333 -117.333 161 -184 161c-80.667 0 -140.167 -14.667 -178.5 -44s-71.166 -79.333 -98.499 -150c-24.667 -64.667 -37 -123.334 -37 -176.001z
" />
    <glyph glyph-name="e" unicode="e" horiz-adv-x="801" 
d="M188 502c-3.33301 27.333 -19.334 71 -48.001 131c-27.333 56 -41 103.333 -41 142c0 72 27 130.333 81 175c49.333 40 108.333 60 177 60c21.333 0 42.333 -2.33301 63 -7l92 -21c98 -22 147 -62.667 147 -122c0 -40.667 -18.667 -65 -56 -73
c-10 5.33301 -33.667 23.666 -71 54.999c-27.333 22.667 -53.666 34 -78.999 34h-66c-47.333 0 -85.5 -17.5 -114.5 -52.5s-43.5 -76.5 -43.5 -124.5c0 -90.667 26 -136 78 -136h277c28.667 0 43 -18.667 43 -56c0 -40.667 -15.667 -61 -47 -61h-291
c-40 -22 -60 -65.667 -60 -131c0 -71.333 22.333 -120 67 -146c32.667 -20 85.667 -30 159 -30c34.667 0 60.667 11 78 33c36.667 47.333 58.667 74 66 80l10 1c35.333 0 53 -25.333 53 -76c0 -29.333 -17.667 -56.333 -53 -81l-86 -72c-22 -16 -55.333 -24 -100 -24
c-89.333 0 -162.333 16.667 -219 50c-70 41.333 -105 103.333 -105 186c0 50.667 8.33301 95.334 25 134.001z" />
    <glyph glyph-name="f" unicode="f" horiz-adv-x="1209" 
d="M529 4l-121.001 10.001c-87.333 7.33301 -165.666 63.666 -234.999 168.999c-63.333 96.667 -95 191 -95 283c0 102.667 35.667 213.334 107 332.001c90 150 203.333 226.667 340 230c7.33301 0 11 12.667 11 38c0 14.667 -2.5 50.5 -7.5 107.5s-7.5 101.167 -7.5 132.5
c0 102 23 152 69 150c55.333 -2 83 -60.667 83 -176c0 -25.333 -1.5 -61 -4.5 -107s-4.5 -76.333 -4.5 -91c0 -36 5.66699 -54 17 -54c20 0 45 -4.66699 75 -14c36 -12 60.333 -19 73 -21c78.667 -12.667 151.667 -84.334 219 -215.001c60 -117.333 90 -221.333 90 -312
c0 -94 -32 -189 -96 -285c-70 -103.333 -150 -159 -240 -167l-116 -10l2 -404c0 -35.333 -26 -53 -78 -53c-53.333 0 -80 17.667 -80 53zM702.999 892.001c-23.333 -172.667 -35.002 -289.332 -35.002 -349.999c0 -170.667 0.666992 -265 2 -283
c6.66699 -98.667 27.334 -148 62.001 -148c70.667 0 136.334 42 197.001 126c56 78 84 153 84 225c0 163.333 -67.333 295.666 -202 396.999c-36.667 27.333 -65.667 41 -87 41c-7.33301 0 -14.333 -2.66699 -21 -8zM201.997 462.003c0 -73.333 28.334 -148.667 85.001 -226
c60.667 -83.333 127 -125 199 -125c40.667 0 61 132.667 61 398c0 149.333 -11.333 277 -34 383c-6.66699 4.66699 -14.334 7.33398 -23.001 8.00098c-76 -8.66699 -144.667 -66 -206 -172c-54.667 -94.667 -82 -183.334 -82 -266.001z" />
    <glyph glyph-name="g" unicode="g" horiz-adv-x="1225" 
d="M611 392l9.00098 -7.00098l10 -1l12 4l175 314c87.333 144 163 226.333 227 247l83 26c4.66699 1.33301 9.66699 2 15 2c16 0 31.167 -5 45.5 -15s21.5 -22.333 21.5 -37c0 -24.667 -30.667 -60.667 -92 -108c-68.667 -54 -160.667 -177 -276 -369
c-110.667 -184.667 -177.667 -322.667 -201 -414l-25 -289c-16.667 -127.333 -64 -191 -142 -191c-35.333 0 -56.833 2.83301 -64.5 8.5s-11.5 22.5 -11.5 50.5c0 64 19 142 57 234s57 184 57 276c0 82 -18.667 186 -56 312c-44 148.667 -93.333 236 -148 262l-260 123
c-4.66699 10 -7 19.333 -7 28c0 19.333 6 45 18 77c14 37.333 28.333 56 43 56c147.333 0 263.666 -65 348.999 -195c47.333 -71.333 101 -202.666 161 -393.999z" />
    <glyph glyph-name="h" unicode="h" horiz-adv-x="1078" 
d="M580 1001c85.333 0 159.333 -14.666 222 -43.999c82 -38 124.667 -94.667 128 -170c2.66699 -40 5.66699 -100.333 9 -181c6 -199.333 9 -417.333 9 -654v-291c0 -32.667 -28 -49 -84 -49c-54.667 0 -81.334 16.333 -80.001 49c12 358 18 670.333 18 937v175
c0 34 -28.333 62.667 -85 86c-47.333 19.333 -91.333 29 -132 29c-38 0 -86 -11.333 -144 -34c-67.333 -27.333 -101 -56 -101 -86c0 -89.333 3 -212 9 -368c6 -168 9.66699 -290.667 11 -368c0 -20 -31.333 -30 -94 -30c-54.667 0 -82 11.333 -82 34
c2.66699 174 8.33398 438.667 17.001 794c0 18.667 -11.333 34.667 -34 48c-20 10.667 -40 16 -60 16c-4 0 -16.333 2.33301 -37 7c-14.667 3.33301 -25.667 2.66602 -33 -2.00098l-5 38c22 42.667 55.333 64 100 64c15.333 0 40.333 -10.667 75 -32s65 -32 91 -32
c30.667 0 76.667 10.667 138 32s109.333 32 144 32z" />
    <glyph glyph-name="i" unicode="i" horiz-adv-x="671" 
d="M463 80c0 -52 -43.3359 -78 -130.003 -78c-61.333 0 -95 117.333 -101 352v460c-1.33301 12.667 -7.66602 35 -18.999 67c-10 29.333 -15 50.666 -15 63.999c0 24 39.667 42 119 54c49.333 -9.33301 74 -81 74 -215c0 -21.333 -0.666992 -46.166 -2 -74.499
s-2 -44.166 -2 -47.499c0 -22.667 -1.33301 -71.667 -4 -147c-3.33301 -72.667 -4.66602 -128.334 -3.99902 -167.001c0.666992 -60.667 5.33398 -106.667 14.001 -138c10.667 -40 34 -83.333 70 -130z" />
    <glyph glyph-name="j" unicode="j" horiz-adv-x="1110" 
d="M630 956c-124.667 1.33301 -250.667 -52 -378 -160c-121.333 -103.333 -182 -198.333 -182 -285c0 -30.667 10.333 -55.334 31 -74.001c58 -50.667 171.333 -114.667 340 -192c123.333 -56 185.666 -111 186.999 -165c2.66699 -153.333 -53.666 -230 -168.999 -230
c-30 0 -71.667 5.83301 -125 17.5s-87.666 17.5 -102.999 17.5c-57.333 0 -86 -20.667 -86 -62c0 -30 22.333 -45 67 -45c6 0 28.667 -1.83301 68 -5.5s73.333 -5.5 102 -5.5c241.333 0 362 113 362 339c0 96.667 -29.667 168.334 -89 215.001
c-20 16 -89.333 49.667 -208 101c-100.667 44 -179 98.667 -235 164c-8.66699 10 -13 21.667 -13 35c0 51.333 50.167 109.5 150.5 174.5s193.166 96.833 278.499 95.5c32.667 0 70 -22.833 112 -68.5s74 -68.5 96 -68.5c27.333 0 57.333 22 90 66
c6.66699 8.66699 10 17 10 25c0 32 -46.333 60 -139 84c-70 18 -125.667 27 -167 27z" />
    <glyph glyph-name="k" unicode="k" horiz-adv-x="910" 
d="M271 602c18.667 13.333 114.002 92.3311 286.002 236.998c127.333 106.667 206.666 163.667 237.999 171c36.667 -5.33301 55 -25.333 55 -60c0 -32 -66 -95.333 -198 -190c-144.667 -104 -227 -173.667 -247 -209c25.333 -52.667 108.666 -140.667 249.999 -264
c127.333 -111.333 191 -185.666 191 -222.999c0 -11.333 -10.667 -29 -32 -53c-10.667 -6 -24.667 -11.333 -42 -16c-78.667 58.667 -164.667 135 -258 229l-243 244l11 -329c4.66699 -6.66699 5.66699 -21.667 3 -45c-4 -33.333 -6 -51 -6 -53c0 -26 -30.333 -39 -91 -39
c-38.667 0 -58 9.33301 -58 28l-4 745c0 18 -5.33301 44.833 -16 80.5s-16 62.167 -16 79.5c0 56.667 31.333 85 94 85c61.333 0 92 -81 92 -243c0 -49.333 -3 -107.666 -9 -174.999z" />
    <glyph glyph-name="l" unicode="l" horiz-adv-x="1073" 
d="M130 1492c0 60.667 51.334 91.002 154.001 91.002c80.667 0 142 -25.667 184 -77c31.333 -37.333 56.666 -97 75.999 -179c31.333 -133.333 47.333 -200.833 48 -202.5s54.334 -151.834 161.001 -450.501c27.333 -82.667 72.666 -204.334 135.999 -365.001
c34.667 -59.333 80.334 -149 137.001 -269c-10.667 -30 -56.334 -45 -137.001 -45c-36.667 0 -77 65.667 -121 197l-106 365c-39.333 130.667 -71.666 196 -96.999 196c-30.667 0 -93.834 -124.167 -189.501 -372.5s-149.5 -372.5 -161.5 -372.5h-169
c0 6 30.667 64.667 92 176c64.667 118 101 187.333 109 208l123 323c51.333 142.667 77 245 77 307c0 70 -9.66699 150 -29 240c-26 124 -60.333 186 -103 186c-4.66699 0 -27 -6.33301 -67 -19c-42.667 -13.333 -67.667 -20.666 -75 -21.999
c-28 -4.66699 -42 23.666 -42 84.999z" />
    <glyph glyph-name="m" unicode="m" horiz-adv-x="1075" 
d="M127 958c0 27.333 31 41.0039 93 41.0039c68 0 102 -15.333 102 -46c0 -14 -2.66699 -33.333 -8 -58l-11 -58c-7.33301 -62 -11 -169.667 -11 -323c0 -127.333 10 -198.333 30 -213c0 -56.667 25.667 -104 77 -142c47.333 -34.667 100.333 -52 159 -52
c43.333 0 87.666 22.167 132.999 66.5s68 88.166 68 131.499v648c0 29.333 28.667 44 86 44c52 0 78 -13 78 -39c0 -28 -3.33301 -66.333 -10 -115c-7.33301 -58 -11.666 -96.667 -12.999 -116c-6 -92 -9 -182.333 -9 -271c0 -128 8.33301 -217 25 -267
c5.33301 -16.667 18.666 -42.334 39.999 -77.001c16.667 -28.667 25 -49.334 25 -62.001c0 -36.667 -17.667 -55 -53 -55c-42.667 0 -74.667 10.333 -96 31l-59 81c-62.667 -50.667 -95.667 -77 -99 -79c-26 -14.667 -66.333 -22 -121 -22c-64.667 0 -109 3.33301 -133 10
s-63 27 -117 61c-8.66699 -16.667 -13 -52.334 -13 -107.001c0 -3.33301 -2.33301 -44.333 -7 -123c-4 -51.333 -2 -91 6 -119c-2 -14.667 -11.667 -28 -29 -40s-32.666 -18 -45.999 -18c-40 0 -60 7 -60 21l3 1080c0 23.333 -5 56 -15 98s-15 71.667 -15 89z" />
    <glyph glyph-name="n" unicode="n" horiz-adv-x="961" 
d="M108 1001c16 8.66699 34.333 13 55 13c54.667 0 111 -28.333 169 -85l96 -761c67.333 37.333 134.666 130.333 201.999 279c62.667 140.667 94 253.334 94 338.001c0 42 -7.16699 77.5 -21.5 106.5s-21.5 48.5 -21.5 58.5c0 43.333 28.333 65 85 65
c59.333 0 97.333 -18.667 114 -56c10.667 -23.333 16 -72.333 16 -147c0 -54 -16 -147.333 -48 -280c-24.667 -102.667 -83.667 -213 -177 -331c-107.333 -136 -207.666 -202.333 -300.999 -199l-60 2c-28.667 21.333 -54 135.666 -76 342.999
c-25.333 235.333 -49.333 382 -72 440c-48 52 -72 93.333 -72 124c0 46.667 6 76.667 18 90z" />
    <glyph glyph-name="o" unicode="o" horiz-adv-x="1082" 
d="M549 1001c137.333 0 252.999 -47.833 346.999 -143.5s141 -211.834 141 -348.501c0 -135.333 -44.333 -251.666 -133 -348.999c-91.333 -101.333 -204.666 -152 -339.999 -152c-136.667 0 -251.667 46.167 -345 138.5s-140 206.5 -140 342.5
c0 136.667 43.667 255 131 355c90.667 104.667 203.667 157 339 157zM214.999 501c0 -93.333 33.334 -177.667 100.001 -253c68.667 -78 149 -117 241 -117c92.667 0 173 39.667 241 119c64.667 76 97 161 97 255c0 93.333 -33 177.333 -99 252
c-68.667 78 -149.334 117 -242.001 117s-173 -39.667 -241 -119c-64.667 -76 -97 -160.667 -97 -254z" />
    <glyph glyph-name="p" unicode="p" horiz-adv-x="1326" 
d="M1200 1001c24.667 0 46.167 -9.49805 64.5 -28.498s27.5 -40.833 27.5 -65.5c0 -35.333 -16 -57.333 -48 -66c-12 -3.33301 -43 -5 -93 -5c-38 0 -75.333 4.66699 -112 14c-19.333 -32 -29 -97.333 -29 -196c0 -69.333 5.83301 -175.333 17.5 -318
s17.5 -232.334 17.5 -269.001c0 -28 -0.666992 -43.667 -2 -47c-4 -12 -16.333 -18 -37 -18c-89.333 0 -134 14 -134 42l4 806h-325v-829c-6 -12.667 -38.333 -19 -97 -19c-57.333 0 -85.333 6.33301 -84 19c20.667 251.333 31 453.666 31 606.999
c0 112.667 -14.333 186.667 -43 222c-60.667 -0.666992 -132.667 -8.66699 -216 -24c-3.33301 22 22.667 56.667 78 104s97 71 125 71h855z" />
    <glyph glyph-name="q" unicode="q" horiz-adv-x="925" 
d="M472 1569c76 0 134.666 -16.999 175.999 -50.999c64 -52.667 115.667 -149.667 155 -291c33.333 -118 50 -229.667 50 -335c0 -27.333 -6 -149.666 -18 -366.999c-8 -136 -38.667 -251 -92 -345c-67.333 -118.667 -161.666 -178 -282.999 -178
c-30 0 -56.333 6.33301 -79 19c-7.33301 4 -30 20.667 -68 50c-98 75.333 -161.667 200.666 -191 375.999c-14.667 87.333 -22 231.666 -22 432.999c0 157.333 24.667 300 74 428c66.667 174 166 261 298 261zM247.999 963.001c0 -15.333 2.66699 -30 8 -44
c76 -4 218.667 -6.66699 428 -8c14 -0.666992 21 18 21 56c0 88 -20 184.667 -60 290c-50 131.333 -111.333 197 -184 197c-62.667 0 -116 -69 -160 -207c-35.333 -109.333 -53 -204 -53 -284zM502.999 160.001c76.667 0 132 66.667 166 200c22 86.667 33 186 33 298
c0 53.333 -6 83.333 -18 90c-48 26 -131.333 39 -250 39c-118 0 -177 -29.333 -177 -88c0 -149.333 9.66699 -260.333 29 -333c36.667 -137.333 109 -206 217 -206z" />
    <glyph glyph-name="r" unicode="r" horiz-adv-x="1102" 
d="M201 -453c-47.333 0 -71.002 11.333 -71.002 34l-2 906c0 146.667 32.333 267 97 361c74.667 108 182 162 322 162c148 0 261.667 -46.667 341 -140c75.333 -88 113 -207.667 113 -359c0 -152 -29.667 -271.333 -89 -358c-69.333 -102 -175.666 -153 -318.999 -153
c-101.333 0 -202.666 37.667 -303.999 113l2 -532c0 -22.667 -30 -34 -90 -34zM552.998 886c-80.667 0 -147.001 -41.333 -199.001 -124c-46 -72.667 -69 -151.667 -69 -237c0 -108.667 23 -199.667 69 -273c54.667 -87.333 133 -131 235 -131
c86.667 0 154.334 38.333 203.001 115c41.333 65.333 62 144 62 236c0 276 -100.333 414 -301 414z" />
    <glyph glyph-name="s" unicode="s" horiz-adv-x="1089" 
d="M593 1001l322.998 0.000976562c60.667 0 101.667 -4.66699 123 -14c8 -34.667 12 -60.667 12 -78c0 -32.667 -16.667 -49 -50 -49c-66.667 0 -130 6 -190 18c4 -13.333 18.667 -38.666 44 -75.999c70.667 -78.667 106 -187.334 106 -326.001c0 -44 -3.66699 -91 -11 -141
c-32 -224.667 -186 -337 -462 -337c-143.333 0 -251.666 51.667 -324.999 155c-64 90 -96 209.333 -96 358c0 63.333 11.333 123.666 34 180.999c52 130 112.333 215.333 181 256c60.667 35.333 164.334 53 311.001 53zM501.998 123.001c104 0 183.999 32 239.999 96
c53.333 60 80 142.333 80 247c0 92.667 -23 180 -69 262c-54 96 -123.667 144 -209 144c-101.333 0 -182.666 -35.333 -243.999 -106c-58 -67.333 -87 -153 -87 -257c0 -96.667 23 -182 69 -256c54.667 -86.667 128 -130 220 -130z" />
    <glyph glyph-name="t" unicode="t" horiz-adv-x="1088" 
d="M1068 943c0 -15.333 -9.66602 -43.668 -28.999 -85.001l-15 -14c-94 21.333 -165.667 32 -215 32c-67.333 0 -113 -14.333 -137 -43c-18.667 -22 -28 -61.667 -28 -119c0 -10.667 0.5 -29.5 1.5 -56.5s1.5 -48.167 1.5 -63.5v-111c0 -11.333 -0.333008 -29.833 -1 -55.5
s-1 -45.167 -1 -58.5c0 -146 45.667 -229.333 137 -250l6 -16c0 -66 -39.333 -99 -118 -99c-71.333 0 -117.333 18.333 -138 55c-15.333 26 -23 78.333 -23 157c0 100.667 -2.33301 248.667 -7 444c-2.66699 102.667 -22 172 -58 208c-15.333 5.33301 -48.333 8 -99 8
c-118.667 0 -190.667 -27.333 -216 -82c-17.333 10.667 -26 35.667 -26 75c0 34.667 9 64.334 27 89.001c20.667 29.333 50.667 44 90 44c14.667 0 35.167 -0.5 61.5 -1.5s46.166 -1.5 59.499 -1.5h672c36.667 0 55 -18.667 55 -56z" />
    <glyph glyph-name="u" unicode="u" horiz-adv-x="1003" 
d="M403 6c-78 0 -139.666 49.333 -184.999 148c-32.667 72.667 -57.334 173.667 -74.001 303l-23 246c-5.33301 41.333 -21.333 81 -48 119c-26 35.333 -39 57.333 -39 66c0 28.667 13 53.334 39 74.001c24 19.333 51 29 81 29c30.667 0 57 -13.333 79 -40
c19.333 -23.333 31.666 -102.333 36.999 -237c8.66699 -198 15.334 -316 20.001 -354c14.667 -124.667 42.667 -193.667 84 -207c61.333 -18.667 110 -28 146 -28c26 0 60 8.33301 102 25c58 24 87 112.667 87 266c0 49.333 -3.5 123.666 -10.5 222.999s-10.5 168 -10.5 206
c0 104.667 19.333 157 58 157c78 0 117 -24 117 -72c0 -20 6.33301 -46.333 19 -79c11.333 -29.333 16 -54 14 -74l-32 -282c-18 -155.333 -35.333 -257.333 -52 -306c-40 -122 -109 -183 -207 -183h-202z" />
    <glyph glyph-name="v" unicode="v" horiz-adv-x="1110" 
d="M959 1055c-10.667 -13.333 -23.333 -27.667 -38 -43c-8.66699 -7.33301 -36.334 -11 -83.001 -11l-369 1c-146.667 0 -262.334 -58.333 -347.001 -175c-77.333 -106.667 -116 -239 -116 -397c0 -68 15 -124 45 -168c34 -50.667 83.667 -76 149 -76h407
c82.667 0 124 -31 124 -93c0 -49.333 -23.667 -74 -71 -74c-13.333 0 -42.166 0.833008 -86.499 2.5s-73.5 2.5 -87.5 2.5c-58 0 -87 -20.333 -87 -61c0 -30.667 22.667 -46 68 -46c72.667 0 146.334 11.333 221.001 34c100 31.333 150 74.333 150 129
c0 50 -22 91.667 -66 125c-40.667 30.667 -87 46 -139 46h-324c-70 0 -118.333 23.333 -145 70c-18.667 34 -28 87.667 -28 161c0 101.333 31 200 93 296c68 106 147.333 159 238 159l371 -1c34 0 64 8.33301 90 25c30.667 18.667 46 43 46 73c0 14 -5 21 -15 21z" />
    <glyph glyph-name="w" unicode="w" horiz-adv-x="1676" 
d="M909 534c0 -174 14.333 -279.668 43 -317.001c10 -13.333 25.667 -25.666 47 -36.999l54 -30c35.333 -22 81.666 -33 138.999 -33c87.333 0 151 45.333 191 136c28.667 66 43 149.333 43 250c0 96.667 -31.333 173.334 -94 230.001
c-46.667 41.333 -123.334 80.333 -230.001 117c-34 28 -51 51 -51 69l9 21c22 14 60.667 21 116 21c140 0 246.333 -53.333 319 -160c63.333 -92 95 -211 95 -357c0 -190 -28.333 -310 -85 -360c-46 -40.667 -103.333 -67 -172 -79c-38 -6.66699 -103.667 -10 -197 -10
c-44.667 0 -96 18.333 -154 55l-138 95c-98 -62.667 -151.667 -96.334 -161 -101.001c-61.333 -32.667 -121 -49 -179 -49c-152 0 -261 38.667 -327 116c-60 70.667 -90 181.667 -90 333c0 146.667 31.333 265.667 94 357c73.333 106.667 180.333 160 321 160
c82 0 123 -14 123 -42s-32.333 -56.667 -97 -86c-88 -40 -148 -74.667 -180 -104c-64.667 -58 -97 -136.667 -97 -236c0 -98 15.667 -180 47 -246c42 -86.667 107 -130 195 -130c34.667 0 74.334 9.33301 119.001 28c56 24 91.833 46.333 107.5 67s25.834 61.667 30.501 123
c9.33301 120.667 13.333 186 12 196c-4.66699 45.333 18 68 68 68c52.667 0 79 -21.667 79 -65z" />
    <glyph glyph-name="x" unicode="x" horiz-adv-x="1171" 
d="M630 470c38.667 0 85.668 54 141.001 162l159 307c23.333 44 64.333 66 123 66c19.333 0 36 -6.66699 50 -20s21 -29.333 21 -48c0 -49.333 -69.667 -157.166 -209 -323.499s-209 -267.166 -209 -302.499c0 -42.667 53.667 -146.334 161 -311.001l168 -246
c3.33301 -6 16.333 -25 39 -57c10.667 -16 16 -35.667 16 -59c0 -16.667 3.33301 -29.667 10 -39l10 -14c0 -4 -15.333 -16.667 -46 -38c-9.33301 -6.66699 -38.333 -4.33398 -87 6.99902c-36.667 8.66699 -99 115.667 -187 321c-86 202 -145.333 303 -178 303
c-39.333 0 -84.333 -50 -135 -150l-155 -305c-36.667 -71.333 -63.667 -115.333 -81 -132c-30.667 -29.333 -78.667 -44 -144 -44c-28.667 0 -43 9 -43 27c0 50 73.167 180.333 219.5 391s219.5 322.667 219.5 336c0 74 -27 171 -81 291
c-58.667 129.333 -116.667 202.666 -174 219.999c-80.667 24 -131.334 58.333 -152.001 103c-14 30.667 -21 49.667 -21 57c0 6.66699 2 12.334 6 17.001c20.667 28 40.334 42 59.001 42c7.33301 0 19.5 -3.16699 36.5 -9.5s31.5 -9.5 43.5 -9.5
c75.333 0 142.666 -46.667 201.999 -140c26 -41.333 66.667 -128.333 122 -261c39.333 -94 71.333 -141 96 -141z" />
    <glyph glyph-name="y" unicode="y" horiz-adv-x="1297" 
d="M585 -6c-70.667 16 -144.666 40.998 -221.999 74.998c-102.667 44.667 -183.334 162.334 -242.001 353.001c-46 149.333 -69 297.333 -69 444c0 63.333 26.667 95 80 95c44.667 0 67 -35.667 67 -107c0 -305.333 73 -523.666 219 -654.999
c56.667 -50.667 112 -76 166 -76l1 1217c0 28 26.667 42 80 42c45.333 0 68 -14 68 -42l-1 -1217c37.333 0 69.666 8 96.999 24c16.667 9.33301 43.334 30.333 80.001 63c74.667 68 128.667 159.667 162 275c20.667 74 34 167.333 40 280c5.33301 97.333 11.333 151 18 161
c16 23.333 38.333 35 67 35c44.667 0 67 -31.667 67 -95c0 -156 -23.667 -306.667 -71 -452c-60 -186.667 -146.333 -304 -259 -352c-63.333 -27.333 -131 -50 -203 -68v-456c0 -27.333 -30 -41 -90 -41c-36.667 0 -55 13.667 -55 41v456z" />
    <glyph glyph-name="z" unicode="z" horiz-adv-x="912" 
d="M873 -153c0 -36.667 -56.665 -95.332 -169.998 -175.999l-217 -143c-33.333 -23.333 -66.333 -35 -99 -35c-20.667 0 -31 13.667 -31 41c0 76.667 35 131.667 105 165l196 65c70 27.333 105 72.333 105 135c0 33.333 -11.5 63.166 -34.5 89.499
s-51.167 42.166 -84.5 47.499c-109.333 -25.333 -182 -38 -218 -38c-157.333 0 -261.333 54.333 -312 163c-32 70 -48 196.667 -48 380c0 214.667 96.333 480.667 289 798c-97.333 0 -146 53 -146 159c0 18 7.16699 35.667 21.5 53s30.5 26 48.5 26
c23.333 0 60 -24.333 110 -73s87 -73 111 -73s55.5 12.167 94.5 36.5s79.167 36.5 120.5 36.5c34.667 0 64 -12 88 -36s36 -53.667 36 -89c0 -45.333 -21 -82.666 -63 -111.999c-37.333 -26 -79.333 -39 -126 -39c-16.667 0 -40.334 6.33301 -71.001 19s-53.667 19 -69 19
c-10.667 0 -35 -22.667 -73 -68c-62.667 -74.667 -116.334 -191.667 -161.001 -351c-41.333 -146 -62 -275 -62 -387c0 -214 50.667 -321 152 -321c29.333 0 72.333 7.5 129 22.5s99.667 22.5 129 22.5c82.667 0 146.667 -37.333 192 -112
c38.667 -63.333 58 -138.333 58 -225z" />
    <glyph glyph-name="braceleft" unicode="{" 
d="M-656 1097c0.666992 1.33301 -10.665 9.33398 -33.998 24.001c-30 19.333 -53.667 41.333 -71 66c-26.667 37.333 -40.667 81.666 -42 132.999c-0.666992 38 25.166 57.667 77.499 59s79.166 23.666 80.499 66.999c2 50.667 -31.667 76.667 -101 78
c-48 0 -86.333 -17.667 -115 -53c-30 -37.333 -43 -87.666 -39 -150.999c5.33301 -80.667 39 -141.667 101 -183c42.667 -28 85.667 -42 129 -42c8 0 12.667 0.666992 14 2zM-1097 1508c0 49.333 24.001 100.335 72.001 153.002c63.333 68 148.333 103 255 105
c106 1.33301 193 -33 261 -103c54 -54.667 81 -106.334 81 -155.001c0 -12 -3 -19 -9 -21c-8.66699 -3.33301 -26.334 12 -53.001 46c-36 46 -69.333 80 -100 102c-52.667 37.333 -112.667 55.666 -180 54.999c-64 -0.666992 -121 -19 -171 -55
c-31.333 -22.667 -63 -55.667 -95 -99c-26 -36 -42 -54 -48 -54c-8.66699 0 -13 8.66699 -13 26z" />
    <glyph glyph-name="bar" unicode="|" 
d="M-757 -124l105 4l2 -164c0.666992 -72.667 18 -109 52 -109c13.333 0 30.333 6.33301 51 19s31.667 19 33 19c2 -0.666992 3 -1.66699 3 -3c0 -24.667 -14 -46.5 -42 -65.5s-59 -28.5 -93 -28.5c-89.333 0 -130 56 -122 168z" />
    <glyph glyph-name="braceright" unicode="}" horiz-adv-x="2" 
d="M-861 1065c0 -1.33301 11.002 5.00098 33.002 19.001c25.333 15.333 45.666 35.333 60.999 60c22 35.333 33.667 79 35 131c0.666992 38 -24.5 59 -75.5 63s-77.5 27.667 -79.5 71c-0.666992 25.333 7.16602 43.666 23.499 54.999s41.5 16 75.5 14
c111.333 -5.33301 162.333 -73 153 -203c-5.33301 -76 -34 -134 -86 -174c-37.333 -28 -76.333 -42 -117 -42c-15.333 0 -23 2 -23 6zM-1120 1462c0 50 24.333 101.335 73 154.002c63.333 68 148 103 254 105c106 1.33301 193.333 -33 262 -103
c53.333 -54.667 80 -106.334 80 -155.001c0 -12 -3 -19 -9 -21c-8.66699 -3.33301 -26.334 12 -53.001 46c-35.333 46 -68.666 80 -99.999 102c-52.667 37.333 -112.667 55.666 -180 54.999c-64 -0.666992 -121 -19 -171 -55c-31.333 -22.667 -63 -55.667 -95 -99
c-25.333 -36 -41.333 -54 -48 -54c-8.66699 0 -13 8.33301 -13 25z" />
    <glyph glyph-name="asciitilde" unicode="~" 
d="M-1093 1355c0 53.333 25.334 108.336 76.001 165.003c66.667 74 155.667 111.667 267 113c110 2 200.333 -34.667 271 -110c55.333 -58.667 83 -114.334 83 -167.001c0 -12.667 -3.33301 -20.334 -10 -23.001c-8.66699 -3.33301 -26.667 12.667 -54 48
c-36.667 47.333 -71 82.333 -103 105c-54.667 38.667 -117 57.667 -187 57c-66.667 -0.666992 -126.334 -19.334 -179.001 -56.001c-32.667 -24 -66 -58.333 -100 -103c-27.333 -36.667 -44.333 -55 -51 -55c-8.66699 0 -13 8.66699 -13 26z" />
    <glyph glyph-name="nonbreakingspace" unicode="&#xa0;" horiz-adv-x="563" 
 />
    <glyph glyph-name=".null" 
 />
    <glyph glyph-name="nonmarkingreturn" horiz-adv-x="563" 
 />
  </font>
</defs>
</svg>
